<svg width="177" height="210" viewBox="0 0 177 210" fill="none" xmlns="http://www.w3.org/2000/svg">
<defs>
<filter id="filter0_b_1_1289" x="-19.9795" y="138.093" width="217.148" height="91.8135" filterUnits="userSpaceOnUse" color-interpolation-filters="sRGB">
<feFlood flood-opacity="0" result="BackgroundImageFix"/>
<feGaussianBlur in="BackgroundImageFix" stdDeviation="10"/>
<feComposite in2="SourceAlpha" operator="in" result="effect1_backgroundBlur_1_1289"/>
<feBlend mode="normal" in="SourceGraphic" in2="effect1_backgroundBlur_1_1289" result="shape"/>
</filter>
<linearGradient id="paint0_linear_1_1289" x1="88.7174" y1="61.0854" x2="88.7174" y2="318.787" gradientUnits="userSpaceOnUse">
<stop stop-color="#67548B"/>
<stop offset="1" stop-color="#EDC59F"/>
</linearGradient>
<linearGradient id="paint1_linear_1_1289" x1="88.7174" y1="61.0854" x2="88.7174" y2="318.787" gradientUnits="userSpaceOnUse">
<stop stop-color="#67548B"/>
<stop offset="1" stop-color="#EDC59F"/>
</linearGradient>
<linearGradient id="paint2_linear_1_1289" x1="91.375" y1="-87.1862" x2="90.7032" y2="114.315" gradientUnits="userSpaceOnUse">
<stop offset="0.4372" stop-color="#9477FF" stop-opacity="0.53"/>
<stop offset="0.9596" stop-color="#9477FF" stop-opacity="0"/>
</linearGradient>
<linearGradient id="paint3_linear_1_1289" x1="90.7327" y1="-1.38576" x2="90.7327" y2="110.619" gradientUnits="userSpaceOnUse">
<stop stop-color="#7F88ED"/>
<stop offset="0.9596" stop-color="#96B0ED"/>
</linearGradient>
<linearGradient id="paint4_linear_1_1289" x1="87.3273" y1="-71.5405" x2="90.9619" y2="191.609" gradientUnits="userSpaceOnUse">
<stop stop-color="white"/>
<stop offset="1" stop-color="white" stop-opacity="0"/>
</linearGradient>
<linearGradient id="paint5_linear_1_1289" x1="93.3099" y1="44.538" x2="96.0071" y2="203.68" gradientUnits="userSpaceOnUse">
<stop stop-color="white"/>
<stop offset="1" stop-color="white" stop-opacity="0"/>
</linearGradient>
<linearGradient id="paint6_linear_1_1289" x1="91.1975" y1="65.2121" x2="92.1841" y2="164.083" gradientUnits="userSpaceOnUse">
<stop stop-color="#5B5FB3" stop-opacity="0.53"/>
<stop offset="0.9596" stop-color="#7E5AFF" stop-opacity="0"/>
</linearGradient>
<linearGradient id="paint7_linear_1_1289" x1="78.4412" y1="236.266" x2="83.388" y2="137.864" gradientUnits="userSpaceOnUse">
<stop offset="0.4372" stop-color="#4198F4" stop-opacity="0.53"/>
<stop offset="0.9596" stop-color="#4AA2FF" stop-opacity="0"/>
</linearGradient>
<linearGradient id="paint8_linear_1_1289" x1="267.751" y1="210" x2="265.509" y2="261.814" gradientUnits="userSpaceOnUse">
<stop stop-color="#3B4982"/>
<stop offset="1" stop-color="#2745C1" stop-opacity="0"/>
</linearGradient>
</defs>
<rect x="0.5" width="176.435" height="210" rx="10" fill="url(#paint0_linear_1_1289)"/>
<mask id="mask0_1_1289" style="mask-type:alpha" maskUnits="userSpaceOnUse" x="0" y="0" width="177" height="210">
<rect x="0.5" width="176.435" height="210" rx="10" fill="url(#paint1_linear_1_1289)"/>
</mask>
<g mask="url(#mask0_1_1289)">
<path d="M183.488 -26.1045H-2.02283V236.266H183.488V-26.1045Z" fill="#4FA4C0"/>
<path d="M183.488 -26.1045H-2.02283V236.266H183.488V-26.1045Z" fill="url(#paint2_linear_1_1289)"/>
<path d="M183.488 -26.1045H-2.02283V236.266H183.488V-26.1045Z" fill="#4FA4C0"/>
<path d="M183.488 -26.1045H-2.02283V236.266H183.488V-26.1045Z" fill="url(#paint3_linear_1_1289)"/>
<path opacity="0.61" d="M58.4466 29.0717C66.6909 29.0717 73.3741 22.3885 73.3741 14.1443C73.3741 5.90004 66.6909 -0.783215 58.4466 -0.783215C50.2024 -0.783215 43.5192 5.90004 43.5192 14.1443C43.5192 22.3885 50.2024 29.0717 58.4466 29.0717Z" fill="white"/>
<path opacity="0.22" d="M172.233 -18.6918C172.063 -18.6918 171.905 -18.6805 171.746 -18.6805C171.531 -18.6805 171.304 -18.6918 171.088 -18.6918C156.592 -18.6238 144.01 -9.48821 138.74 3.24038C136.79 7.71749 135.691 12.648 135.691 17.8392C135.691 30.2051 141.846 41.1428 151.253 47.7508C144.271 50.1764 139.25 56.7844 139.25 64.5938C139.25 70.091 141.732 74.9988 145.643 78.2745C136.802 78.9772 129.831 86.3559 129.831 95.3782C129.831 96.9763 130.069 98.5178 130.477 99.9913C129.117 99.7079 127.7 99.5606 126.261 99.5606C115.833 99.5606 107.23 107.257 105.757 117.276C104.159 116.846 102.481 116.596 100.747 116.596C96.009 116.596 91.6793 118.319 88.3356 121.153C83.5525 113.638 75.165 108.628 65.5874 108.628C62.6404 108.628 59.8068 109.116 57.1545 109.988C58.0953 107.2 58.3787 104.128 57.7099 100.887C56.5198 95.1175 52.3261 90.3797 46.8629 88.1808C43.4852 86.8207 40.2549 86.7073 37.2852 87.2854C38.1353 85.4719 38.634 83.4543 38.634 81.3234C38.634 74.1034 33.1822 68.1642 26.1661 67.3821C27.2429 64.5031 27.855 61.3975 27.855 58.1445C27.855 43.9764 16.7019 32.4493 2.7038 31.7692C5.78677 28.5162 7.69097 24.1298 7.69097 19.3013C7.69097 9.27032 -0.435843 1.14351 -10.4668 1.14351C-20.4978 1.14351 -28.6246 9.27032 -28.6246 19.3013V236.254H208.776V17.8505C208.764 -2.32483 192.409 -18.6918 172.233 -18.6918Z" fill="url(#paint4_linear_1_1289)"/>
<path opacity="0.74" d="M210.124 65.478C208.56 51.6613 197.407 40.7688 183.488 39.5901V39.4767C183.295 39.4994 183.103 39.5221 182.899 39.5447C182.264 39.4994 181.629 39.4767 180.983 39.4767C164.786 39.4767 151.65 52.6134 151.65 68.8103C151.65 75.1916 153.69 81.0968 157.158 85.914C157.419 86.4694 157.691 87.0134 157.986 87.5348C148.737 90.6745 142.083 99.402 142.083 109.705C142.083 109.75 142.095 109.796 142.095 109.852C137.765 106.497 132.324 104.491 126.419 104.491C122.497 104.491 118.791 105.375 115.47 106.939C110.437 96.1377 99.4997 88.6456 86.8051 88.6456C80.3332 88.6456 74.3259 90.5951 69.3161 93.9275C66.3011 89.3257 61.1099 86.2767 55.1933 86.2767C52.1897 86.2767 49.3674 87.0701 46.9192 88.4529C44.913 79 36.5255 71.9046 26.4718 71.9046C25.0663 71.9046 23.6949 72.052 22.3687 72.3126C22.9581 70.2838 23.2982 68.1529 23.2982 65.9313C23.2982 63.3698 22.8561 60.9102 22.0741 58.6206C19.4331 49.7117 11.2043 43.2171 1.434 43.2171C1.28666 43.2171 1.15064 43.2398 1.00329 43.2398C0.855942 43.2398 0.71994 43.2171 0.572592 43.2171C-0.311497 43.2171 -1.17292 43.2738 -2.03434 43.3758V43.5231C-12.2807 45.178 -20.1128 54.0415 -20.1128 64.7526V236.549H210.305V65.2966L210.124 65.478Z" fill="url(#paint5_linear_1_1289)"/>
<path d="M150.686 115.089L119.913 129.45L41.2976 94.0068C28.637 88.2942 13.8455 90.1418 2.97578 98.7899L-2.02272 102.768L-149.099 236.266H331.494L187.659 118.761C184.905 116.506 181.777 114.772 178.411 113.615C169.32 110.498 159.391 111.031 150.686 115.089Z" fill="#A5C0EA"/>
<path d="M178.399 113.615C169.32 110.499 159.391 111.031 150.686 115.089L119.913 129.45L41.2974 94.0069C35.0181 91.1733 28.2174 90.2098 21.6321 91.0033L46.8739 125.449L38.8151 133.813L107.196 197.626L172.482 154.374L157.033 143.051L181.301 114.613L178.399 113.615Z" fill="#92B3EA"/>
<path d="M150.686 115.089L119.913 129.45L41.2976 94.0068C28.637 88.2942 13.8455 90.1418 2.97578 98.7899L-2.02272 102.768L-149.099 236.266H331.494L187.659 118.761C184.905 116.506 181.777 114.772 178.411 113.615C169.32 110.498 159.391 111.031 150.686 115.089Z" fill="url(#paint6_linear_1_1289)"/>
<path d="M125.83 172.566L59.546 147.778C43.5304 141.782 25.9393 141.476 9.70837 146.893C1.94427 149.489 -5.35513 153.343 -11.8724 158.307L-114.336 236.266H281.112L213.196 196.164C193.689 184.648 171.632 178.143 148.998 177.236C141.086 176.918 133.265 175.343 125.83 172.566Z" fill="white"/>
<path d="M149.009 177.236C141.086 176.918 133.265 175.343 125.83 172.566L59.5459 147.778C53.1419 145.386 46.4886 143.913 39.7786 143.335L32.2638 161.107C29.6909 167.182 30.813 174.187 35.1314 179.163L84.697 236.254H281.123L213.207 196.153C193.7 184.649 171.644 178.143 149.009 177.236Z" fill="#CEE0FF"/>
<path d="M125.83 172.566L59.546 147.778C43.5304 141.782 25.9393 141.476 9.70837 146.893C1.94426 149.489 -5.35513 153.343 -11.8724 158.307L-114.336 236.266H281.112L213.196 196.164C193.689 184.648 171.632 178.143 148.998 177.236C141.086 176.918 133.265 175.343 125.83 172.566Z" fill="url(#paint7_linear_1_1289)"/>
<path d="M-14.6039 236.537L8.46173 178.607L36.8772 236.537H-14.6039Z" fill="#2F497C"/>
<path d="M19.0027 236.537L43.2358 168.236L70.4951 236.537H19.0027Z" fill="#2F497C"/>
<path d="M26.4266 171.693L13.9134 196.606H20.17L0.493408 236.537H50.1383L36.7183 204.121L45.2192 206.705L26.4266 171.693Z" fill="#627BB3"/>
<path d="M-4.69774 171.693L-17.2223 196.606H-10.9544L-30.631 236.537H19.0026L5.59394 204.121L14.0835 206.705L-4.69774 171.693Z" fill="#496AAA"/>
<path d="M80.356 182.925L69.9964 203.531H75.1762L58.9113 236.537H99.9533L88.8569 209.731L95.8842 211.874L80.356 182.925Z" fill="#2F79AA"/>
<path d="M58.3219 182.925L47.9735 203.531H53.142L36.8771 236.537H77.9191L66.8227 209.731L73.8501 211.874L58.3219 182.925Z" fill="#496AAA"/>
<path d="M148.046 236.538L164.651 194.861L185.087 236.538H148.046Z" fill="#2F497C"/>
<path d="M172.233 236.538L189.665 187.403L209.274 236.538H172.233Z" fill="#2F497C"/>
<path d="M177.572 189.885L168.561 207.816H173.072L158.915 236.537H194.63L184.973 213.211L191.082 215.081L177.572 189.885Z" fill="#627BB3"/>
<path d="M155.175 189.885L146.164 207.816H150.675L136.518 236.537H172.233L162.576 213.211L168.697 215.081L155.175 189.885Z" fill="#496AAA"/>
<rect x="176.935" y="210" width="177.148" height="51.8135" transform="rotate(-180 176.935 210)" fill="url(#paint8_linear_1_1289)"/>
<g filter="url(#filter0_b_1_1289)">
<rect x="0.0205078" y="158.093" width="177.148" height="51.8135" fill="#8DA5EA" fill-opacity="0.11"/>
</g>
</g>
<path d="M25.6537 177.4V179.596C24.4057 180.688 23.3917 182.29 22.6117 184.402C21.9157 186.31 21.5557 188.176 21.5317 190H18.7957C19.0837 186.22 20.4937 182.812 23.0257 179.776H17.0497V177.4H25.6537ZM32.6014 190V177.148H38.1454C39.8854 177.148 41.2714 177.676 42.3034 178.732C43.4194 179.848 43.9774 181.438 43.9774 183.502C43.9774 185.446 43.4974 186.994 42.5374 188.146C41.5054 189.382 40.0414 190 38.1454 190H32.6014ZM35.4274 179.524V187.624H37.9474C38.8594 187.624 39.5974 187.336 40.1614 186.76C40.8214 186.088 41.1514 185.092 41.1514 183.772C41.1514 182.392 40.8874 181.36 40.3594 180.676C39.7594 179.908 38.7874 179.524 37.4434 179.524H35.4274ZM51.4692 186.4V185.446C51.2652 185.626 50.8212 185.764 50.1372 185.86C49.3572 185.98 48.8412 186.094 48.5892 186.202C48.0852 186.43 47.8332 186.814 47.8332 187.354C47.8332 188.146 48.3552 188.542 49.3992 188.542C50.7792 188.542 51.4692 187.828 51.4692 186.4ZM48.1212 183.556H45.5652C45.6372 182.452 46.1232 181.636 47.0232 181.108C47.7672 180.664 48.7392 180.442 49.9392 180.442C52.6632 180.442 54.0252 181.324 54.0252 183.088V187.93C54.0252 188.962 54.1332 189.652 54.3492 190H51.7572C51.6492 189.664 51.5892 189.364 51.5772 189.1C50.8452 189.868 49.8012 190.252 48.4452 190.252C47.5092 190.252 46.7592 190.024 46.1952 189.568C45.5832 189.076 45.2772 188.374 45.2772 187.462C45.2772 186.514 45.6072 185.806 46.2672 185.338C46.7472 185.014 47.4732 184.78 48.4452 184.636C49.8252 184.444 50.5272 184.342 50.5512 184.33C51.1632 184.174 51.4692 183.868 51.4692 183.412C51.4692 182.908 51.3012 182.56 50.9652 182.368C50.7252 182.224 50.3412 182.152 49.8132 182.152C48.7692 182.152 48.2052 182.62 48.1212 183.556ZM64.4871 180.694L60.5991 191.17C60.3231 191.926 59.9391 192.466 59.4471 192.79C58.9551 193.114 58.2711 193.276 57.3951 193.276C56.9271 193.276 56.4051 193.246 55.8291 193.186V191.08C56.7291 191.152 57.2271 191.182 57.3231 191.17C57.9831 191.122 58.3131 190.732 58.3131 190C58.3131 189.796 58.2771 189.604 58.2051 189.424L54.9291 180.694H57.6651L59.7711 187.066H59.8071L61.8411 180.694H64.4871ZM64.8931 186.976H67.3231C67.3351 187.504 67.5391 187.906 67.9351 188.182C68.2831 188.422 68.7331 188.542 69.2851 188.542C69.7291 188.542 70.1011 188.458 70.4011 188.29C70.7731 188.074 70.9591 187.762 70.9591 187.354C70.9591 186.994 70.7071 186.706 70.2031 186.49C69.8431 186.334 69.1291 186.142 68.0611 185.914C67.1491 185.722 66.4711 185.47 66.0271 185.158C65.4151 184.75 65.1091 184.174 65.1091 183.43C65.1091 181.438 66.4591 180.442 69.1591 180.442C71.7271 180.442 73.0951 181.432 73.2631 183.412H70.8331C70.7731 182.572 70.1911 182.152 69.0871 182.152C68.1391 182.152 67.6651 182.44 67.6651 183.016C67.6651 183.412 67.9651 183.718 68.5651 183.934C68.6371 183.958 69.3031 184.114 70.5631 184.402C71.4871 184.618 72.1651 184.882 72.5971 185.194C73.2091 185.626 73.5151 186.232 73.5151 187.012C73.5151 188.14 73.0711 188.986 72.1831 189.55C71.4511 190.018 70.4791 190.252 69.2671 190.252C68.0551 190.252 67.0711 190.012 66.3151 189.532C65.4151 188.968 64.9411 188.116 64.8931 186.976ZM79.7328 185.356C79.7328 183.868 80.1708 182.68 81.0468 181.792C81.9228 180.892 83.0868 180.442 84.5388 180.442C86.0028 180.442 87.1728 180.892 88.0488 181.792C88.9248 182.68 89.3628 183.868 89.3628 185.356C89.3628 186.832 88.9248 188.02 88.0488 188.92C87.1728 189.808 86.0028 190.252 84.5388 190.252C83.0868 190.252 81.9228 189.808 81.0468 188.92C80.1708 188.02 79.7328 186.832 79.7328 185.356ZM82.2888 185.356C82.2888 186.208 82.4508 186.886 82.7748 187.39C83.1588 188.014 83.7468 188.326 84.5388 188.326C86.0508 188.326 86.8068 187.336 86.8068 185.356C86.8068 183.364 86.0508 182.368 84.5388 182.368C83.0388 182.368 82.2888 183.364 82.2888 185.356ZM91.5827 190V182.404H90.0527V180.694H91.5827V179.974C91.5827 179.122 91.8467 178.438 92.3747 177.922C92.9147 177.406 93.6887 177.148 94.6967 177.148C94.8647 177.148 95.0927 177.16 95.3807 177.184C95.7407 177.208 95.9627 177.22 96.0467 177.22V179.128C95.7467 179.092 95.4347 179.074 95.1107 179.074C94.4627 179.074 94.1387 179.428 94.1387 180.136V180.694H95.9027V182.404H94.1387V190H91.5827ZM113.603 181.468H110.867C110.783 180.832 110.471 180.298 109.931 179.866C109.391 179.434 108.767 179.218 108.059 179.218C106.871 179.218 105.971 179.674 105.359 180.586C104.831 181.366 104.567 182.38 104.567 183.628C104.567 184.828 104.831 185.812 105.359 186.58C105.983 187.48 106.883 187.93 108.059 187.93C108.899 187.93 109.577 187.66 110.093 187.12C110.573 186.616 110.867 185.926 110.975 185.05H113.711C113.567 186.646 112.979 187.924 111.947 188.884C110.927 189.832 109.631 190.306 108.059 190.306C106.127 190.306 104.579 189.658 103.415 188.362C102.299 187.126 101.741 185.548 101.741 183.628C101.741 181.66 102.299 180.052 103.415 178.804C104.567 177.496 106.115 176.842 108.059 176.842C109.523 176.842 110.759 177.244 111.767 178.048C112.823 178.888 113.435 180.028 113.603 181.468ZM121.166 186.4V185.446C120.962 185.626 120.518 185.764 119.834 185.86C119.054 185.98 118.538 186.094 118.286 186.202C117.782 186.43 117.53 186.814 117.53 187.354C117.53 188.146 118.052 188.542 119.096 188.542C120.476 188.542 121.166 187.828 121.166 186.4ZM117.818 183.556H115.262C115.334 182.452 115.82 181.636 116.72 181.108C117.464 180.664 118.436 180.442 119.636 180.442C122.36 180.442 123.722 181.324 123.722 183.088V187.93C123.722 188.962 123.83 189.652 124.046 190H121.454C121.346 189.664 121.286 189.364 121.274 189.1C120.542 189.868 119.498 190.252 118.142 190.252C117.206 190.252 116.456 190.024 115.892 189.568C115.28 189.076 114.974 188.374 114.974 187.462C114.974 186.514 115.304 185.806 115.964 185.338C116.444 185.014 117.17 184.78 118.142 184.636C119.522 184.444 120.224 184.342 120.248 184.33C120.86 184.174 121.166 183.868 121.166 183.412C121.166 182.908 120.998 182.56 120.662 182.368C120.422 182.224 120.038 182.152 119.51 182.152C118.466 182.152 117.902 182.62 117.818 183.556ZM125.778 190V177.148H128.334V190H125.778ZM130.419 190V180.694H132.831V181.954H132.867C133.575 180.946 134.523 180.442 135.711 180.442C137.055 180.442 137.961 180.958 138.429 181.99C139.113 180.958 140.049 180.442 141.237 180.442C143.505 180.442 144.639 181.552 144.639 183.772V190H142.083V184.726C142.083 183.97 142.005 183.436 141.849 183.124C141.621 182.68 141.177 182.458 140.517 182.458C139.377 182.458 138.807 183.244 138.807 184.816V190H136.251V184.78C136.251 184 136.197 183.478 136.089 183.214C135.873 182.71 135.411 182.458 134.703 182.458C134.307 182.458 133.959 182.59 133.659 182.854C133.203 183.226 132.975 183.808 132.975 184.6V190H130.419Z" fill="white"/>

</svg>
