<svg width="375" height="95" viewBox="0 0 375 95" fill="none" xmlns="http://www.w3.org/2000/svg">
<rect x="0.5" width="374" height="95" rx="10" fill="#333242"/>
<mask id="mask0_1_159" style="mask-type:alpha" maskUnits="userSpaceOnUse" x="0" y="0" width="375" height="95">
<rect x="0.5" width="374" height="95" rx="10" fill="#333242"/>
</mask>
<g mask="url(#mask0_1_159)">
<path d="M58.4519 40.4455C58.4519 23.0704 82.9519 6.58416 98.5 0H0.5V95H89.548C93.3173 79.4802 84.8363 67.7228 75.8846 62.0792C66.9329 56.4356 58.4519 54.5 58.4519 40.4455Z" fill="#444359"/>
<path d="M200.05 32.7186C184.204 16.6279 191.594 2.20173 197.27 -3H374.5V43.4688C333.841 87.1633 306.735 55.2594 304.303 47.2834C301.87 39.3074 299.438 12.2584 261.212 35.4928C222.985 58.7272 219.858 52.8319 200.05 32.7186Z" fill="#9B9DB4" fill-opacity="0.49"/>
<path d="M246.5 97.9998C246.5 115.673 232.173 130 214.5 130C196.827 130 182.5 115.673 182.5 97.9998C178.864 64.0664 191.221 70.278 204.804 77.3438C210.764 80.4442 217.683 79.3984 223.694 76.3997C243.788 66.3768 246.5 82.4416 246.5 97.9998Z" fill="#6C71A1"/>
</g>
<path d="M31.742 43V30.148H37.286C39.026 30.148 40.412 30.676 41.444 31.732C42.56 32.848 43.118 34.438 43.118 36.502C43.118 38.446 42.638 39.994 41.678 41.146C40.646 42.382 39.182 43 37.286 43H31.742ZM34.568 32.524V40.624H37.088C38 40.624 38.738 40.336 39.302 39.76C39.962 39.088 40.292 38.092 40.292 36.772C40.292 35.392 40.028 34.36 39.5 33.676C38.9 32.908 37.928 32.524 36.584 32.524H34.568ZM50.6098 39.4V38.446C50.4058 38.626 49.9618 38.764 49.2778 38.86C48.4978 38.98 47.9818 39.094 47.7298 39.202C47.2258 39.43 46.9738 39.814 46.9738 40.354C46.9738 41.146 47.4958 41.542 48.5398 41.542C49.9198 41.542 50.6098 40.828 50.6098 39.4ZM47.2618 36.556H44.7058C44.7778 35.452 45.2638 34.636 46.1638 34.108C46.9078 33.664 47.8798 33.442 49.0798 33.442C51.8038 33.442 53.1658 34.324 53.1658 36.088V40.93C53.1658 41.962 53.2738 42.652 53.4898 43H50.8978C50.7898 42.664 50.7298 42.364 50.7178 42.1C49.9858 42.868 48.9418 43.252 47.5858 43.252C46.6498 43.252 45.8998 43.024 45.3358 42.568C44.7238 42.076 44.4178 41.374 44.4178 40.462C44.4178 39.514 44.7478 38.806 45.4078 38.338C45.8878 38.014 46.6138 37.78 47.5858 37.636C48.9658 37.444 49.6678 37.342 49.6918 37.33C50.3038 37.174 50.6098 36.868 50.6098 36.412C50.6098 35.908 50.4418 35.56 50.1058 35.368C49.8658 35.224 49.4818 35.152 48.9538 35.152C47.9098 35.152 47.3458 35.62 47.2618 36.556ZM55.2217 43V33.694H57.7777V43H55.2217ZM57.7777 30.148V32.254H55.2217V30.148H57.7777ZM59.8624 43V30.148H62.4184V43H59.8624ZM72.909 33.694L69.021 44.17C68.745 44.926 68.361 45.466 67.869 45.79C67.377 46.114 66.693 46.276 65.817 46.276C65.349 46.276 64.827 46.246 64.251 46.186V44.08C65.151 44.152 65.649 44.182 65.745 44.17C66.405 44.122 66.735 43.732 66.735 43C66.735 42.796 66.699 42.604 66.627 42.424L63.351 33.694H66.087L68.193 40.066H68.229L70.263 33.694H72.909ZM81.8887 43V32.524H78.0367V30.148H88.5667V32.524H84.7147V43H81.8887ZM89.7786 43V30.148H92.3346V34.99H92.3886C92.7006 34.486 93.1146 34.096 93.6306 33.82C94.1106 33.568 94.6026 33.442 95.1066 33.442C96.3906 33.442 97.2966 33.79 97.8246 34.486C98.2806 35.086 98.5086 36.016 98.5086 37.276V43H95.9526V37.744C95.9526 36.22 95.4066 35.458 94.3146 35.458C93.6186 35.458 93.1146 35.668 92.8026 36.088C92.4906 36.508 92.3346 37.186 92.3346 38.122V43H89.7786ZM100.161 38.356C100.161 36.868 100.599 35.68 101.475 34.792C102.351 33.892 103.515 33.442 104.967 33.442C106.431 33.442 107.601 33.892 108.477 34.792C109.353 35.68 109.791 36.868 109.791 38.356C109.791 39.832 109.353 41.02 108.477 41.92C107.601 42.808 106.431 43.252 104.967 43.252C103.515 43.252 102.351 42.808 101.475 41.92C100.599 41.02 100.161 39.832 100.161 38.356ZM102.717 38.356C102.717 39.208 102.879 39.886 103.203 40.39C103.587 41.014 104.175 41.326 104.967 41.326C106.479 41.326 107.235 40.336 107.235 38.356C107.235 36.364 106.479 35.368 104.967 35.368C103.467 35.368 102.717 36.364 102.717 38.356ZM120.182 33.694V43H117.752V41.704H117.698C117.062 42.736 116.114 43.252 114.854 43.252C113.57 43.252 112.664 42.898 112.136 42.19C111.68 41.602 111.452 40.678 111.452 39.418V33.694H114.008V38.95C114.008 40.474 114.554 41.236 115.646 41.236C116.342 41.236 116.846 41.026 117.158 40.606C117.47 40.186 117.626 39.508 117.626 38.572V33.694H120.182ZM131.068 33.694V42.406C131.068 45.154 129.46 46.528 126.244 46.528C125.2 46.528 124.3 46.294 123.544 45.826C122.668 45.286 122.2 44.524 122.14 43.54H124.678C124.882 44.392 125.518 44.818 126.586 44.818C127.954 44.818 128.638 44.05 128.638 42.514V41.29H128.602C128.05 42.25 127.12 42.73 125.812 42.73C124.492 42.73 123.478 42.268 122.77 41.344C122.146 40.516 121.834 39.418 121.834 38.05C121.834 36.766 122.176 35.698 122.86 34.846C123.592 33.91 124.582 33.442 125.83 33.442C127.114 33.442 128.038 33.94 128.602 34.936H128.638V33.694H131.068ZM126.46 40.804C127.156 40.804 127.702 40.54 128.098 40.012C128.458 39.544 128.638 38.95 128.638 38.23C128.638 36.322 127.912 35.368 126.46 35.368C125.776 35.368 125.254 35.638 124.894 36.178C124.558 36.646 124.39 37.258 124.39 38.014C124.39 38.782 124.54 39.412 124.84 39.904C125.2 40.504 125.74 40.804 126.46 40.804ZM133.126 43V30.148H135.682V34.99H135.736C136.048 34.486 136.462 34.096 136.978 33.82C137.458 33.568 137.95 33.442 138.454 33.442C139.738 33.442 140.644 33.79 141.172 34.486C141.628 35.086 141.856 36.016 141.856 37.276V43H139.3V37.744C139.3 36.22 138.754 35.458 137.662 35.458C136.966 35.458 136.462 35.668 136.15 36.088C135.838 36.508 135.682 37.186 135.682 38.122V43H133.126ZM147.036 30.904V33.694H148.908V35.404H147.036V40.012C147.036 40.444 147.108 40.732 147.252 40.876C147.396 41.02 147.684 41.092 148.116 41.092C148.404 41.092 148.668 41.068 148.908 41.02V43.018C148.548 43.078 148.05 43.108 147.414 43.108C145.458 43.108 144.48 42.37 144.48 40.894V35.404H142.932V33.694H144.48V30.904H147.036Z" fill="white"/>
<path d="M31.314 66V58.146H33.25L35.417 64.295H35.439L37.551 58.146H39.465V66H38.156V59.939H38.134L35.956 66H34.823L32.645 59.939H32.623V66H31.314ZM41.6614 66V58.146H47.3154V59.334H43.0364V61.391H46.9964V62.513H43.0364V64.812H47.3924V66H41.6614ZM50.5151 59.268V64.878H51.8681C52.8654 64.878 53.5731 64.6067 53.9911 64.064C54.3211 63.624 54.4861 62.9603 54.4861 62.073C54.4861 61.1857 54.3211 60.522 53.9911 60.082C53.5731 59.5393 52.8654 59.268 51.8681 59.268H50.5151ZM49.1401 66V58.146H52.3961C53.5474 58.146 54.4274 58.531 55.0361 59.301C55.5861 59.9903 55.8611 60.9143 55.8611 62.073C55.8611 63.2317 55.5861 64.1557 55.0361 64.845C54.4274 65.615 53.5474 66 52.3961 66H49.1401ZM57.6286 66V58.146H59.0036V66H57.6286ZM60.4921 59.334V58.146H66.8501V59.334H64.3531V66H62.9781V59.334H60.4921ZM71.1156 59.499L69.9276 62.876H72.3256L71.1486 59.499H71.1156ZM67.3976 66L70.4116 58.146H71.8746L74.8996 66H73.4256L72.6886 63.921H69.5536L68.8166 66H67.3976ZM75.4495 59.334V58.146H81.8075V59.334H79.3105V66H77.9355V59.334H75.4495ZM83.268 66V58.146H84.643V66H83.268ZM90.2236 57.959C91.3676 57.959 92.2879 58.3623 92.9846 59.169C93.6519 59.9463 93.9856 60.9143 93.9856 62.073C93.9856 63.2317 93.6519 64.196 92.9846 64.966C92.2879 65.78 91.3676 66.187 90.2236 66.187C89.0796 66.187 88.1592 65.78 87.4626 64.966C86.7952 64.196 86.4616 63.2317 86.4616 62.073C86.4616 60.9143 86.7952 59.9463 87.4626 59.169C88.1592 58.3623 89.0796 57.959 90.2236 57.959ZM90.2236 59.081C89.4389 59.081 88.8302 59.3927 88.3976 60.016C88.0236 60.5587 87.8366 61.2443 87.8366 62.073C87.8366 62.9017 88.0236 63.5873 88.3976 64.13C88.8302 64.7533 89.4389 65.065 90.2236 65.065C91.0082 65.065 91.6169 64.7533 92.0496 64.13C92.4236 63.5873 92.6106 62.9017 92.6106 62.073C92.6106 61.2443 92.4236 60.5587 92.0496 60.016C91.6169 59.3927 91.0082 59.081 90.2236 59.081ZM95.732 66V58.146H97.184L100.77 63.932H100.792V58.146H102.101V66H100.649L97.074 60.225H97.041V66H95.732Z" fill="#EBEAEC"/>
<path d="M119.008 62.425V61.49C119.485 61.512 119.873 61.4313 120.174 61.248C120.533 61.0427 120.713 60.72 120.713 60.28C120.713 59.9573 120.599 59.697 120.372 59.499C120.152 59.2937 119.866 59.191 119.514 59.191C119.103 59.191 118.784 59.3487 118.557 59.664C118.33 59.972 118.223 60.3387 118.238 60.764H116.984C117.021 59.994 117.259 59.3707 117.699 58.894C118.168 58.3953 118.781 58.146 119.536 58.146C120.189 58.146 120.742 58.3183 121.197 58.663C121.71 59.0443 121.967 59.5577 121.967 60.203C121.967 61.0463 121.604 61.5963 120.878 61.853V61.875C121.311 61.963 121.652 62.183 121.901 62.535C122.15 62.8797 122.275 63.3013 122.275 63.8C122.275 64.504 122.004 65.076 121.461 65.516C120.948 65.9413 120.31 66.154 119.547 66.154C118.682 66.154 118.011 65.9083 117.534 65.417C117.087 64.9477 116.856 64.2987 116.841 63.47H118.095C118.08 63.954 118.198 64.3427 118.447 64.636C118.704 64.9513 119.07 65.109 119.547 65.109C119.98 65.109 120.332 64.988 120.603 64.746C120.882 64.4967 121.021 64.1593 121.021 63.734C121.021 62.8027 120.35 62.3663 119.008 62.425ZM123.701 63.602V62.414H126.902V63.602H123.701ZM128.571 60.566V59.576C129.143 59.5833 129.627 59.488 130.023 59.29C130.463 59.0627 130.727 58.7327 130.815 58.3H131.838V66H130.463V60.566H128.571ZM137.708 65.109C138.647 65.109 139.116 64.1227 139.116 62.15C139.116 60.1773 138.647 59.191 137.708 59.191C136.769 59.191 136.3 60.1773 136.3 62.15C136.3 64.1227 136.769 65.109 137.708 65.109ZM137.708 58.146C138.705 58.146 139.424 58.5933 139.864 59.488C140.201 60.1627 140.37 61.05 140.37 62.15C140.37 63.25 140.201 64.1373 139.864 64.812C139.424 65.7067 138.705 66.154 137.708 66.154C136.711 66.154 135.992 65.7067 135.552 64.812C135.215 64.1373 135.046 63.25 135.046 62.15C135.046 61.05 135.215 60.1627 135.552 59.488C135.992 58.5933 136.711 58.146 137.708 58.146ZM145.738 66V58.146H147.674L149.841 64.295H149.863L151.975 58.146H153.889V66H152.58V59.939H152.558L150.38 66H149.247L147.069 59.939H147.047V66H145.738ZM156.085 66V58.146H157.46V66H156.085ZM159.642 66V58.146H161.094L164.68 63.932H164.702V58.146H166.011V66H164.559L160.984 60.225H160.951V66H159.642Z" fill="#EBEAEC"/>
<circle cx="110" cy="61.5" r="1.5" fill="#EBEAEC"/>
<circle cx="324.5" cy="48" r="20" fill="white"/>
<path d="M329.664 46.5735L322.006 42.222C320.892 41.5906 319.5 42.3813 319.5 43.6441V52.3528C319.5 53.6213 320.892 54.4119 322.006 53.7749L329.664 49.4233C330.779 48.7919 330.779 47.2106 329.664 46.5735Z" fill="#3F414E"/>
</svg>
