<svg width="374" height="95" viewBox="0 0 374 95" fill="none" xmlns="http://www.w3.org/2000/svg">
<rect width="374" height="95" rx="10" fill="#F1DDCF"/>
<mask id="mask0_1_1446" style="mask-type:alpha" maskUnits="userSpaceOnUse" x="0" y="0" width="374" height="95">
<rect width="374" height="95" rx="10" fill="#333242"/>
</mask>
<g mask="url(#mask0_1_1446)">
<path d="M57.9519 40.4455C57.9519 23.0704 82.4519 6.58416 98 0H0V95H89.048C92.8173 79.4802 84.3363 67.7228 75.3846 62.0792C66.4329 56.4356 57.9519 54.5 57.9519 40.4455Z" fill="#ECD3C2"/>
<path d="M199.55 32.7186C183.704 16.6279 191.094 2.20173 196.77 -3H374V43.4688C333.341 87.1633 306.235 55.2594 303.803 47.2834C301.37 39.3074 298.938 12.2584 260.712 35.4928C222.485 58.7272 219.358 52.8319 199.55 32.7186Z" fill="#FAC978"/>
<path d="M246 97.9998C246 115.673 231.673 130 214 130C196.327 130 182 115.673 182 97.9998C178.364 64.0664 190.721 70.278 204.304 77.3438C210.264 80.4442 217.183 79.3984 223.194 76.3997C243.288 66.3768 246 82.4416 246 97.9998Z" fill="#FF7C6B"/>
</g>
<path d="M31.242 43V30.148H36.786C38.526 30.148 39.912 30.676 40.944 31.732C42.06 32.848 42.618 34.438 42.618 36.502C42.618 38.446 42.138 39.994 41.178 41.146C40.146 42.382 38.682 43 36.786 43H31.242ZM34.068 32.524V40.624H36.588C37.5 40.624 38.238 40.336 38.802 39.76C39.462 39.088 39.792 38.092 39.792 36.772C39.792 35.392 39.528 34.36 39 33.676C38.4 32.908 37.428 32.524 36.084 32.524H34.068ZM50.1098 39.4V38.446C49.9058 38.626 49.4618 38.764 48.7778 38.86C47.9978 38.98 47.4818 39.094 47.2298 39.202C46.7258 39.43 46.4738 39.814 46.4738 40.354C46.4738 41.146 46.9958 41.542 48.0398 41.542C49.4198 41.542 50.1098 40.828 50.1098 39.4ZM46.7618 36.556H44.2058C44.2778 35.452 44.7638 34.636 45.6638 34.108C46.4078 33.664 47.3798 33.442 48.5798 33.442C51.3038 33.442 52.6658 34.324 52.6658 36.088V40.93C52.6658 41.962 52.7738 42.652 52.9898 43H50.3978C50.2898 42.664 50.2298 42.364 50.2178 42.1C49.4858 42.868 48.4418 43.252 47.0858 43.252C46.1498 43.252 45.3998 43.024 44.8358 42.568C44.2238 42.076 43.9178 41.374 43.9178 40.462C43.9178 39.514 44.2478 38.806 44.9078 38.338C45.3878 38.014 46.1138 37.78 47.0858 37.636C48.4658 37.444 49.1678 37.342 49.1918 37.33C49.8038 37.174 50.1098 36.868 50.1098 36.412C50.1098 35.908 49.9418 35.56 49.6058 35.368C49.3658 35.224 48.9818 35.152 48.4538 35.152C47.4098 35.152 46.8458 35.62 46.7618 36.556ZM54.7217 43V33.694H57.2777V43H54.7217ZM57.2777 30.148V32.254H54.7217V30.148H57.2777ZM59.3624 43V30.148H61.9184V43H59.3624ZM72.409 33.694L68.521 44.17C68.245 44.926 67.861 45.466 67.369 45.79C66.877 46.114 66.193 46.276 65.317 46.276C64.849 46.276 64.327 46.246 63.751 46.186V44.08C64.651 44.152 65.149 44.182 65.245 44.17C65.905 44.122 66.235 43.732 66.235 43C66.235 42.796 66.199 42.604 66.127 42.424L62.851 33.694H65.587L67.693 40.066H67.729L69.763 33.694H72.409ZM89.8487 34.468H87.1127C87.0287 33.832 86.7167 33.298 86.1767 32.866C85.6367 32.434 85.0127 32.218 84.3047 32.218C83.1167 32.218 82.2167 32.674 81.6047 33.586C81.0767 34.366 80.8127 35.38 80.8127 36.628C80.8127 37.828 81.0767 38.812 81.6047 39.58C82.2287 40.48 83.1287 40.93 84.3047 40.93C85.1447 40.93 85.8227 40.66 86.3387 40.12C86.8187 39.616 87.1127 38.926 87.2207 38.05H89.9567C89.8127 39.646 89.2247 40.924 88.1927 41.884C87.1727 42.832 85.8767 43.306 84.3047 43.306C82.3727 43.306 80.8247 42.658 79.6607 41.362C78.5447 40.126 77.9867 38.548 77.9867 36.628C77.9867 34.66 78.5447 33.052 79.6607 31.804C80.8127 30.496 82.3607 29.842 84.3047 29.842C85.7687 29.842 87.0047 30.244 88.0127 31.048C89.0687 31.888 89.6807 33.028 89.8487 34.468ZM97.4125 39.4V38.446C97.2085 38.626 96.7645 38.764 96.0805 38.86C95.3005 38.98 94.7845 39.094 94.5325 39.202C94.0285 39.43 93.7765 39.814 93.7765 40.354C93.7765 41.146 94.2985 41.542 95.3425 41.542C96.7225 41.542 97.4125 40.828 97.4125 39.4ZM94.0645 36.556H91.5085C91.5805 35.452 92.0665 34.636 92.9665 34.108C93.7105 33.664 94.6825 33.442 95.8825 33.442C98.6065 33.442 99.9685 34.324 99.9685 36.088V40.93C99.9685 41.962 100.077 42.652 100.293 43H97.7005C97.5925 42.664 97.5325 42.364 97.5205 42.1C96.7885 42.868 95.7445 43.252 94.3885 43.252C93.4525 43.252 92.7025 43.024 92.1385 42.568C91.5265 42.076 91.2205 41.374 91.2205 40.462C91.2205 39.514 91.5505 38.806 92.2105 38.338C92.6905 38.014 93.4165 37.78 94.3885 37.636C95.7685 37.444 96.4705 37.342 96.4945 37.33C97.1065 37.174 97.4125 36.868 97.4125 36.412C97.4125 35.908 97.2445 35.56 96.9085 35.368C96.6685 35.224 96.2845 35.152 95.7565 35.152C94.7125 35.152 94.1485 35.62 94.0645 36.556ZM102.024 43V30.148H104.58V43H102.024ZM106.665 43V33.694H109.077V34.954H109.113C109.821 33.946 110.769 33.442 111.957 33.442C113.301 33.442 114.207 33.958 114.675 34.99C115.359 33.958 116.295 33.442 117.483 33.442C119.751 33.442 120.885 34.552 120.885 36.772V43H118.329V37.726C118.329 36.97 118.251 36.436 118.095 36.124C117.867 35.68 117.423 35.458 116.763 35.458C115.623 35.458 115.053 36.244 115.053 37.816V43H112.497V37.78C112.497 37 112.443 36.478 112.335 36.214C112.119 35.71 111.657 35.458 110.949 35.458C110.553 35.458 110.205 35.59 109.905 35.854C109.449 36.226 109.221 36.808 109.221 37.6V43H106.665Z" fill="#3F414E"/>
<path d="M33.641 59.499L32.453 62.876H34.851L33.674 59.499H33.641ZM29.923 66L32.937 58.146H34.4L37.425 66H35.951L35.214 63.921H32.079L31.342 66H29.923ZM40.0979 59.268V61.864H42.1109C42.4776 61.864 42.7856 61.7723 43.0349 61.589C43.3356 61.3617 43.4859 61.0207 43.4859 60.566C43.4859 59.7007 43.0349 59.268 42.1329 59.268H40.0979ZM38.7229 66V58.146H42.1879C43.1852 58.146 43.9112 58.4283 44.3659 58.993C44.6959 59.4037 44.8609 59.9317 44.8609 60.577C44.8609 61.215 44.6959 61.7357 44.3659 62.139C43.9112 62.7037 43.1852 62.986 42.1879 62.986H40.0979V66H38.7229ZM47.9848 59.268V61.721H50.2398C51.1345 61.721 51.5818 61.303 51.5818 60.467C51.5818 59.6677 51.1272 59.268 50.2178 59.268H47.9848ZM46.6098 66V58.146H50.3608C51.2115 58.146 51.8568 58.333 52.2968 58.707C52.7368 59.0737 52.9568 59.5943 52.9568 60.269C52.9568 61.2883 52.5242 61.9483 51.6588 62.249V62.271C52.4362 62.381 52.8248 62.9347 52.8248 63.932C52.8248 65.0027 52.9678 65.692 53.2538 66H51.7798C51.6405 65.7727 51.5708 65.3877 51.5708 64.845C51.5708 64.0897 51.4682 63.5617 51.2628 63.261C51.0355 62.931 50.6175 62.766 50.0088 62.766H47.9848V66H46.6098ZM60.1885 62.425V61.49C60.6651 61.512 61.0538 61.4313 61.3545 61.248C61.7138 61.0427 61.8935 60.72 61.8935 60.28C61.8935 59.9573 61.7798 59.697 61.5525 59.499C61.3325 59.2937 61.0465 59.191 60.6945 59.191C60.2838 59.191 59.9648 59.3487 59.7375 59.664C59.5101 59.972 59.4038 60.3387 59.4185 60.764H58.1645C58.2011 59.994 58.4395 59.3707 58.8795 58.894C59.3488 58.3953 59.9611 58.146 60.7165 58.146C61.3691 58.146 61.9228 58.3183 62.3775 58.663C62.8908 59.0443 63.1475 59.5577 63.1475 60.203C63.1475 61.0463 62.7845 61.5963 62.0585 61.853V61.875C62.4911 61.963 62.8321 62.183 63.0815 62.535C63.3308 62.8797 63.4555 63.3013 63.4555 63.8C63.4555 64.504 63.1841 65.076 62.6415 65.516C62.1281 65.9413 61.4901 66.154 60.7275 66.154C59.8621 66.154 59.1911 65.9083 58.7145 65.417C58.2671 64.9477 58.0361 64.2987 58.0215 63.47H59.2755C59.2608 63.954 59.3781 64.3427 59.6275 64.636C59.8841 64.9513 60.2508 65.109 60.7275 65.109C61.1601 65.109 61.5121 64.988 61.7835 64.746C62.0621 64.4967 62.2015 64.1593 62.2015 63.734C62.2015 62.8027 61.5305 62.3663 60.1885 62.425ZM67.4008 65.109C68.3394 65.109 68.8088 64.1227 68.8088 62.15C68.8088 60.1773 68.3394 59.191 67.4008 59.191C66.4621 59.191 65.9928 60.1773 65.9928 62.15C65.9928 64.1227 66.4621 65.109 67.4008 65.109ZM67.4008 58.146C68.3981 58.146 69.1168 58.5933 69.5568 59.488C69.8941 60.1627 70.0628 61.05 70.0628 62.15C70.0628 63.25 69.8941 64.1373 69.5568 64.812C69.1168 65.7067 68.3981 66.154 67.4008 66.154C66.4034 66.154 65.6848 65.7067 65.2448 64.812C64.9074 64.1373 64.7388 63.25 64.7388 62.15C64.7388 61.05 64.9074 60.1627 65.2448 59.488C65.6848 58.5933 66.4034 58.146 67.4008 58.146Z" fill="#5A6175"/>
<path d="M86.711 59.268V61.864H88.724C89.0907 61.864 89.3987 61.7723 89.648 61.589C89.9487 61.3617 90.099 61.0207 90.099 60.566C90.099 59.7007 89.648 59.268 88.746 59.268H86.711ZM85.336 66V58.146H88.801C89.7983 58.146 90.5243 58.4283 90.979 58.993C91.309 59.4037 91.474 59.9317 91.474 60.577C91.474 61.215 91.309 61.7357 90.979 62.139C90.5243 62.7037 89.7983 62.986 88.801 62.986H86.711V66H85.336ZM96.0279 59.499L94.8399 62.876H97.2379L96.0609 59.499H96.0279ZM92.3099 66L95.3239 58.146H96.7869L99.8119 66H98.3379L97.6009 63.921H94.4659L93.7289 66H92.3099ZM101.022 63.173V58.146H102.397V62.722C102.397 63.4333 102.481 63.943 102.65 64.251C102.921 64.7497 103.453 64.999 104.245 64.999C105.037 64.999 105.568 64.7497 105.84 64.251C106.008 63.943 106.093 63.4333 106.093 62.722V58.146H107.468V63.173C107.468 64.1557 107.174 64.911 106.588 65.439C106.023 65.9377 105.242 66.187 104.245 66.187C103.247 66.187 102.47 65.9377 101.913 65.439C101.319 64.911 101.022 64.1557 101.022 63.173ZM109.125 63.382H110.5C110.5 63.954 110.695 64.3867 111.083 64.68C111.428 64.9367 111.897 65.065 112.491 65.065C113.056 65.065 113.485 64.9403 113.778 64.691C114.028 64.4783 114.152 64.207 114.152 63.877C114.152 63.393 113.936 63.0703 113.503 62.909C113.445 62.887 112.664 62.6707 111.16 62.26C110.002 61.9447 109.422 61.281 109.422 60.269C109.422 59.5283 109.723 58.9453 110.324 58.52C110.86 58.146 111.516 57.959 112.293 57.959C113.151 57.959 113.859 58.1717 114.416 58.597C115.01 59.059 115.307 59.6823 115.307 60.467H113.932C113.874 59.543 113.309 59.081 112.238 59.081C111.857 59.081 111.538 59.1507 111.281 59.29C110.959 59.4733 110.797 59.7447 110.797 60.104C110.797 60.61 111.109 60.9473 111.732 61.116C112.356 61.2773 113.111 61.479 113.998 61.721C114.49 61.8677 114.875 62.139 115.153 62.535C115.403 62.8943 115.527 63.2903 115.527 63.723C115.527 64.5443 115.201 65.175 114.548 65.615C113.984 65.9963 113.269 66.187 112.403 66.187C111.45 66.187 110.684 65.9633 110.104 65.516C109.466 65.0247 109.14 64.3133 109.125 63.382ZM117.281 66V58.146H122.935V59.334H118.656V61.391H122.616V62.513H118.656V64.812H123.012V66H117.281ZM129.746 59.268V61.864H131.759C132.126 61.864 132.434 61.7723 132.683 61.589C132.984 61.3617 133.134 61.0207 133.134 60.566C133.134 59.7007 132.683 59.268 131.781 59.268H129.746ZM128.371 66V58.146H131.836C132.834 58.146 133.56 58.4283 134.014 58.993C134.344 59.4037 134.509 59.9317 134.509 60.577C134.509 61.215 134.344 61.7357 134.014 62.139C133.56 62.7037 132.834 62.986 131.836 62.986H129.746V66H128.371ZM137.633 59.268V61.721H139.888C140.783 61.721 141.23 61.303 141.23 60.467C141.23 59.6677 140.776 59.268 139.866 59.268H137.633ZM136.258 66V58.146H140.009C140.86 58.146 141.505 58.333 141.945 58.707C142.385 59.0737 142.605 59.5943 142.605 60.269C142.605 61.2883 142.173 61.9483 141.307 62.249V62.271C142.085 62.381 142.473 62.9347 142.473 63.932C142.473 65.0027 142.616 65.692 142.902 66H141.428C141.289 65.7727 141.219 65.3877 141.219 64.845C141.219 64.0897 141.117 63.5617 140.911 63.261C140.684 62.931 140.266 62.766 139.657 62.766H137.633V66H136.258ZM147.358 59.499L146.17 62.876H148.568L147.391 59.499H147.358ZM143.64 66L146.654 58.146H148.117L151.142 66H149.668L148.931 63.921H145.796L145.059 66H143.64ZM159.117 60.643H157.742C157.478 59.6017 156.826 59.081 155.784 59.081C155 59.081 154.391 59.3927 153.958 60.016C153.584 60.5587 153.397 61.2443 153.397 62.073C153.397 62.9017 153.584 63.5873 153.958 64.13C154.391 64.7533 155 65.065 155.784 65.065C156.371 65.065 156.844 64.8633 157.203 64.46C157.533 64.0933 157.728 63.6093 157.786 63.008H159.128C159.07 63.954 158.732 64.7203 158.116 65.307C157.508 65.8937 156.73 66.187 155.784 66.187C154.64 66.187 153.72 65.78 153.023 64.966C152.356 64.196 152.022 63.2317 152.022 62.073C152.022 60.907 152.356 59.939 153.023 59.169C153.72 58.3623 154.64 57.959 155.784 57.959C156.686 57.959 157.442 58.1937 158.05 58.663C158.681 59.1543 159.037 59.8143 159.117 60.643ZM160.181 59.334V58.146H166.539V59.334H164.042V66H162.667V59.334H160.181ZM167.999 66V58.146H169.374V66H167.999ZM178.288 60.643H176.913C176.649 59.6017 175.996 59.081 174.955 59.081C174.17 59.081 173.561 59.3927 173.129 60.016C172.755 60.5587 172.568 61.2443 172.568 62.073C172.568 62.9017 172.755 63.5873 173.129 64.13C173.561 64.7533 174.17 65.065 174.955 65.065C175.541 65.065 176.014 64.8633 176.374 64.46C176.704 64.0933 176.898 63.6093 176.957 63.008H178.299C178.24 63.954 177.903 64.7203 177.287 65.307C176.678 65.8937 175.901 66.187 174.955 66.187C173.811 66.187 172.89 65.78 172.194 64.966C171.526 64.196 171.193 63.2317 171.193 62.073C171.193 60.907 171.526 59.939 172.194 59.169C172.89 58.3623 173.811 57.959 174.955 57.959C175.857 57.959 176.612 58.1937 177.221 58.663C177.851 59.1543 178.207 59.8143 178.288 60.643ZM180.099 66V58.146H185.753V59.334H181.474V61.391H185.434V62.513H181.474V64.812H185.83V66H180.099Z" fill="#5A6175"/>
<circle cx="78" cy="61.5" r="1.5" fill="#5A6175"/>
<circle cx="324" cy="48" r="20" fill="#3F414E"/>
<path d="M329.164 46.5735L321.506 42.222C320.392 41.5906 319 42.3813 319 43.6441V52.3528C319 53.6213 320.392 54.4119 321.506 53.7749L329.164 49.4233C330.279 48.7919 330.279 47.2106 329.164 46.5735Z" fill="#F0F1F2"/>
</svg>
