<svg width="260" height="452" viewBox="0 0 260 452" fill="none" xmlns="http://www.w3.org/2000/svg">
<defs>
<linearGradient id="paint0_linear_1_3982" x1="27.5188" y1="399.834" x2="425.362" y2="-124.8" gradientUnits="userSpaceOnUse">
<stop stop-color="#F2EDE4"/>
<stop offset="1" stop-color="#F2EDE4" stop-opacity="0"/>
</linearGradient>
</defs>
<path d="M189.1 75.2207C187.37 68.9907 182.58 45.1608 178.78 15.8508C175.66 -8.30925 194.42 -29.7292 218.77 -29.7292H232.67C255.01 -29.7292 273.1 -11.5692 273 10.7708C272.5 124.451 269.24 297.361 258.81 312.011C250.09 324.251 240.46 349.281 233.92 368.711C226.14 391.801 212.54 412.561 194.16 428.551C193.61 429.031 193.06 429.501 192.52 429.951C180.88 439.751 166.76 446.171 151.77 448.771C31.7097 469.571 1.1097 384.631 1.0097 336.401C1.0097 335.541 0.979701 334.681 0.929701 333.821C-0.480299 306.201 18.9197 246.391 108.55 217.791C199.61 188.751 200.2 110.641 189.1 75.2207Z" fill="url(#paint0_linear_1_3982)"/>

</svg>
