<svg width="178" height="124" viewBox="0 0 178 124" fill="none" xmlns="http://www.w3.org/2000/svg">
<path d="M177.617 -3.26489H-6.07336V178.817H177.617V-3.26489Z" fill="#554A96"/>
<path d="M150.842 103.169C166.169 71.7588 149.459 32.3276 113.52 15.0972C77.5807 -2.13319 36.0217 9.36192 20.6952 40.7723C5.36874 72.1826 22.0785 111.614 58.0176 128.844C93.9567 146.075 135.516 134.579 150.842 103.169Z" fill="#3B3283"/>
<path d="M166.739 16.4691C165.473 15.2072 163.752 14.6519 162.194 14.9833C163.186 13.8598 163.332 12.0463 162.499 10.7444C161.653 9.41887 159.882 8.71603 158.289 9.07473C156.983 9.36788 155.883 10.2401 155.31 11.3854C155.444 10.4531 155.435 9.31144 154.981 8.19528C154.43 6.84059 153.287 5.82822 151.996 5.55327C150.422 5.21824 148.59 6.02122 147.54 7.50883C146.865 8.46294 146.415 9.68471 146.252 10.952C146.002 10.0798 145.416 9.27867 144.612 8.79797C143.416 8.08421 141.797 8.06236 140.488 8.7397C139.268 9.37153 138.313 10.5933 137.933 12.0117C137.607 13.228 137.685 14.5536 138.155 15.8646C137.022 14.8995 135.831 13.9746 134.235 14.255C133.166 14.4425 132.282 15.0944 131.812 16.043C131.344 16.9862 131.362 18.0696 131.86 19.0164C132.701 20.6151 134.422 21.6129 137.119 22.0663C138.985 22.3794 140.907 22.3995 142.764 22.4177C143.109 22.4213 143.453 22.425 143.798 22.4304C144.07 22.4341 144.31 22.4395 144.533 22.4468C146.055 22.4942 147.58 22.5251 149.062 22.5379C149.7 22.5433 150.334 22.547 150.969 22.547C153.274 22.547 155.556 22.5069 157.777 22.4286C158.326 22.4086 158.884 22.3794 159.424 22.3521C160.222 22.3103 161.045 22.2684 161.855 22.2556C163.218 22.232 164.436 22.1719 165.545 21.6803C166.504 21.2542 167.786 20.524 167.872 19.102C167.927 18.2007 167.514 17.2411 166.739 16.4691Z" fill="#6F74C5"/>
<path d="M175.532 45.2327C174.654 44.3588 173.464 43.9746 172.384 44.204C173.071 43.4247 173.172 42.1701 172.595 41.267C172.009 40.3493 170.782 39.8613 169.68 40.109C168.774 40.3129 168.014 40.9156 167.615 41.7095C167.707 41.0631 167.702 40.2728 167.388 39.499C167.007 38.5613 166.214 37.8603 165.319 37.6691C164.23 37.436 162.961 37.9932 162.233 39.0238C161.767 39.6847 161.454 40.5314 161.34 41.409C161.168 40.8045 160.762 40.2492 160.205 39.9178C159.377 39.4243 158.256 39.408 157.349 39.8777C156.504 40.3147 155.843 41.1614 155.58 42.1446C155.354 42.9877 155.407 43.9054 155.734 44.814C154.95 44.1457 154.125 43.5048 153.019 43.6996C152.279 43.8289 151.667 44.2805 151.34 44.9378C151.017 45.5914 151.028 46.3416 151.373 46.9971C151.956 48.1042 153.148 48.7961 155.016 49.1093C156.309 49.3259 157.639 49.3405 158.927 49.3533C159.166 49.3551 159.404 49.3587 159.643 49.3624C159.832 49.366 159.998 49.3696 160.152 49.3733C161.206 49.4061 162.263 49.4279 163.289 49.437C163.73 49.4407 164.171 49.4425 164.61 49.4425C166.206 49.4425 167.788 49.4152 169.325 49.3605C169.706 49.3478 170.093 49.3278 170.466 49.3077C171.017 49.2786 171.589 49.2495 172.149 49.2404C173.093 49.224 173.936 49.1821 174.704 48.8416C175.367 48.5466 176.256 48.0404 176.317 47.0554C176.355 46.4308 176.069 45.7662 175.532 45.2327Z" fill="#93A1ED"/>
<path d="M14.4872 82.1115C13.8333 81.4615 12.946 81.1738 12.1433 81.345C12.6558 80.7641 12.7293 79.8301 12.3013 79.1582C11.8641 78.4735 10.9512 78.1112 10.1301 78.2969C9.45592 78.448 8.88831 78.8978 8.59257 79.4896C8.66237 79.0089 8.65686 78.4189 8.42358 77.8435C8.13886 77.1443 7.54921 76.6218 6.88425 76.4797C6.07234 76.3068 5.12633 76.7219 4.58444 77.4885C4.23727 77.9801 4.00398 78.6119 3.91948 79.2656C3.7909 78.8159 3.48781 78.4025 3.07267 78.1549C2.45547 77.7871 1.62151 77.7762 0.945529 78.1258C0.315469 78.4517 -0.176821 79.0817 -0.37337 79.8137C-0.542366 80.44 -0.501954 81.1247 -0.257645 81.802C-0.841782 81.3049 -1.45715 80.826 -2.28008 80.9717C-2.83115 81.0682 -3.2867 81.4051 -3.53101 81.8949C-3.77165 82.381 -3.7643 82.94 -3.50713 83.428C-3.07362 84.2528 -2.1864 84.7681 -0.794022 85.0012C0.168517 85.1632 1.16045 85.1723 2.11931 85.1833C2.29749 85.1851 2.47567 85.1869 2.65202 85.1887C2.79346 85.1905 2.91653 85.1942 3.03042 85.1978C3.81661 85.2215 4.60281 85.2379 5.36696 85.2452C5.69577 85.2488 6.02274 85.2506 6.34971 85.2506C7.53819 85.2506 8.71564 85.2306 9.86187 85.1887C10.1448 85.1778 10.4332 85.1632 10.7124 85.1487C11.1238 85.1268 11.5482 85.105 11.9651 85.0977C12.6687 85.0849 13.2969 85.0558 13.8682 84.8009C14.3623 84.5806 15.0254 84.2036 15.0695 83.4717C15.0989 83.0056 14.8858 82.5103 14.4872 82.1115Z" fill="#93A1ED"/>
<path d="M175.782 90.8677C175.154 90.2431 174.302 89.9663 173.53 90.132C174.023 89.5749 174.094 88.6772 173.681 88.0308C173.262 87.3735 172.384 87.0257 171.596 87.2023C170.948 87.348 170.404 87.7795 170.119 88.3476C170.185 87.8852 170.182 87.3189 169.956 86.7672C169.684 86.0953 169.116 85.5946 168.477 85.458C167.698 85.2923 166.789 85.6892 166.269 86.4267C165.935 86.9001 165.712 87.5046 165.63 88.1328C165.507 87.7012 165.216 87.3025 164.818 87.0658C164.226 86.7125 163.424 86.7016 162.775 87.0366C162.171 87.3498 161.697 87.9562 161.51 88.6572C161.348 89.2599 161.387 89.9172 161.62 90.5672C161.058 90.0902 160.468 89.6313 159.678 89.7697C159.149 89.8626 158.71 90.1848 158.477 90.6564C158.245 91.1244 158.253 91.6597 158.501 92.1295C158.918 92.9215 159.77 93.4168 161.107 93.6408C162.031 93.7955 162.985 93.8065 163.905 93.8156C164.076 93.8174 164.247 93.8192 164.417 93.821C164.553 93.8229 164.671 93.8265 164.781 93.8283C165.536 93.852 166.291 93.8665 167.026 93.8738C167.342 93.8775 167.656 93.8775 167.97 93.8775C169.113 93.8775 170.242 93.8574 171.343 93.8192C171.614 93.8101 171.892 93.7955 172.16 93.781C172.555 93.7609 172.963 93.7391 173.363 93.7336C174.039 93.7227 174.642 93.6918 175.191 93.4478C175.665 93.2365 176.302 92.8742 176.344 92.1695C176.372 91.7253 176.166 91.2518 175.782 90.8677Z" fill="#93A1ED"/>
<path d="M17.2666 44.0946C16.5998 43.4318 15.6942 43.1387 14.875 43.3135C15.3967 42.7217 15.4738 41.7676 15.0366 41.083C14.5921 40.3856 13.6589 40.016 12.8213 40.2035C12.1343 40.3583 11.5557 40.8171 11.2526 41.4198C11.3224 40.9282 11.3187 40.3273 11.0799 39.741C10.7897 39.0291 10.189 38.4956 9.50937 38.3499C8.68093 38.1733 7.71655 38.5957 7.16364 39.3787C6.80912 39.8812 6.57216 40.524 6.48583 41.1904C6.35541 40.7315 6.0468 40.3091 5.62248 40.056C4.99426 39.6809 4.14193 39.6682 3.45309 40.0251C2.81201 40.3565 2.3087 41.001 2.10848 41.7476C1.93765 42.3867 1.97806 43.0859 2.22604 43.7759C1.62904 43.2679 1.00266 42.7818 0.163193 42.9293C-0.3989 43.0276 -0.863638 43.3717 -1.11162 43.8706C-1.35777 44.3659 -1.34858 44.9376 -1.0859 45.4347C-0.643209 46.2759 0.262386 46.8003 1.68232 47.0407C2.66506 47.2064 3.67536 47.2155 4.65259 47.2264C4.83445 47.2282 5.01446 47.23 5.19632 47.2319C5.3396 47.2337 5.46634 47.2373 5.5839 47.241C6.3848 47.2665 7.18752 47.281 7.96821 47.2901C8.30253 47.2938 8.63684 47.2956 8.97116 47.2956C10.1835 47.2956 11.3849 47.2737 12.5531 47.2337C12.8415 47.2227 13.1354 47.2082 13.4201 47.1936C13.839 47.1718 14.2725 47.1499 14.6986 47.1426C15.415 47.1299 16.0579 47.0989 16.6402 46.8404C17.1436 46.6164 17.8195 46.2322 17.8655 45.4839C17.893 45.005 17.6744 44.5006 17.2666 44.0946Z" fill="#93A1ED"/>
<path d="M37.5882 125.971C36.1995 124.588 34.3112 123.978 32.6028 124.342C33.6903 123.109 33.8501 121.119 32.939 119.69C32.0114 118.235 30.0679 117.465 28.321 117.856C26.8864 118.178 25.6814 119.134 25.0513 120.392C25.1983 119.369 25.1873 118.116 24.6913 116.893C24.0869 115.407 22.8323 114.296 21.4161 113.994C19.6894 113.626 17.6798 114.508 16.5262 116.139C15.786 117.186 15.2937 118.526 15.1118 119.917C14.8381 118.959 14.1952 118.08 13.3116 117.554C12.0001 116.771 10.2238 116.747 8.78735 117.49C7.45008 118.182 6.4012 119.524 5.98423 121.081C5.62603 122.415 5.71236 123.87 6.22853 125.309C4.98495 124.251 3.67891 123.235 1.92833 123.542C0.754551 123.748 -0.213499 124.464 -0.72967 125.503C-1.244 126.538 -1.2238 127.727 -0.678236 128.766C0.243891 130.52 2.13223 131.614 5.09333 132.113C7.14148 132.457 9.24841 132.479 11.2874 132.499C11.6658 132.503 12.0442 132.506 12.4207 132.512C12.7202 132.515 12.9828 132.523 13.2271 132.53C14.8969 132.581 16.5703 132.616 18.1978 132.63C18.8958 132.637 19.5939 132.639 20.2882 132.639C22.8176 132.639 25.3213 132.595 27.7571 132.508C28.3596 132.486 28.9731 132.455 29.5646 132.424C30.439 132.379 31.3427 132.333 32.23 132.317C33.7252 132.291 35.0625 132.226 36.2785 131.685C37.3292 131.217 38.7381 130.416 38.8318 128.857C38.8924 127.87 38.4387 126.82 37.5882 125.971Z" fill="#93A1ED"/>
<path d="M32.0572 10.3622C30.8191 9.12947 29.1384 8.58504 27.6156 8.90915C28.5854 7.80937 28.7269 6.03772 27.915 4.76497C27.0884 3.46855 25.3562 2.7821 23.8003 3.1317C22.5218 3.41938 21.4472 4.26971 20.887 5.39133C21.0174 4.4791 21.0082 3.36294 20.5655 2.27227C20.0273 0.948535 18.9086 -0.0419892 17.6467 -0.309649C16.1092 -0.637396 14.3164 0.147376 13.2895 1.60221C12.6301 2.53447 12.1911 3.72892 12.0294 4.96708C11.7851 4.11494 11.212 3.33016 10.4258 2.86221C9.25752 2.16484 7.67411 2.14299 6.39378 2.80577C5.20163 3.42303 4.26848 4.6193 3.89559 6.00494C3.5778 7.19394 3.65312 8.49036 4.11418 9.77221C3.00652 8.82903 1.84193 7.92409 0.282392 8.19903C-0.762808 8.38293 -1.62615 9.02022 -2.08538 9.94701C-2.54277 10.8683 -2.52624 11.9281 -2.03946 12.853C-1.21652 14.4153 0.464247 15.3913 3.10204 15.8355C4.92609 16.1433 6.80525 16.1615 8.62011 16.1797C8.95627 16.1833 9.29426 16.187 9.63041 16.1906C9.89676 16.1942 10.1319 16.1997 10.3486 16.207C11.8365 16.2525 13.3263 16.2835 14.7774 16.2962C15.4001 16.3017 16.021 16.3053 16.64 16.3053C18.8921 16.3053 21.1239 16.2671 23.2952 16.1888C23.8315 16.1687 24.3789 16.1414 24.9061 16.1141C25.685 16.0741 26.4895 16.0322 27.2812 16.0194C28.613 15.9958 29.8052 15.9375 30.8889 15.4568C31.8258 15.0398 33.0804 14.3261 33.1649 12.9368C33.22 12.0537 32.8158 11.116 32.0572 10.3622Z" fill="#6F74C5"/>
<path d="M133.815 74.0363C129.931 70.1689 124.656 68.4628 119.88 69.4806C122.922 66.0338 123.364 60.473 120.817 56.48C118.221 52.4141 112.793 50.2583 107.909 51.358C103.9 52.2593 100.53 54.9305 98.77 58.4447C99.1796 55.586 99.1521 52.0827 97.7616 48.6632C96.0734 44.51 92.5668 41.4055 88.6064 40.5624C83.7809 39.5337 78.1618 41.999 74.9417 46.5565C72.8733 49.4826 71.4938 53.2298 70.9905 57.1136C70.2263 54.4389 68.428 51.9808 65.961 50.5095C62.2946 48.3227 57.3312 48.2535 53.3158 50.3329C49.5758 52.2684 46.6478 56.0193 45.4814 60.3656C44.4821 64.0947 44.719 68.1624 46.1647 72.1809C42.6893 69.2239 39.0393 66.3852 34.1458 67.2447C30.8669 67.82 28.1593 69.8193 26.7155 72.7271C25.2809 75.6186 25.3342 78.9416 26.8625 81.844C29.4415 86.7456 34.7171 89.8046 42.9905 91.1975C48.7125 92.1607 54.6034 92.219 60.3015 92.2754C61.3577 92.2864 62.4158 92.2973 63.4702 92.3118C64.306 92.3246 65.0426 92.341 65.7241 92.361C70.3935 92.5048 75.0666 92.5995 79.6148 92.6432C81.5674 92.6614 83.5163 92.6705 85.4598 92.6705C92.5264 92.6705 99.5268 92.5485 106.336 92.3046C108.021 92.2445 109.733 92.1571 111.39 92.0715C113.833 91.9459 116.358 91.8166 118.84 91.7729C123.019 91.7019 126.757 91.518 130.155 90.0067C133.093 88.6993 137.029 86.4579 137.292 82.1007C137.461 79.344 136.193 76.4034 133.815 74.0363Z" fill="#74C7E5"/>
<path d="M72.6346 67.243C72.2801 67.283 72.0266 67.6017 72.067 67.9513C72.1937 69.0456 71.6316 70.2273 70.6967 70.8245C69.7635 71.4217 68.4446 71.4436 67.4913 70.8773C66.5379 70.311 65.9354 69.1494 66.0273 68.0514C66.0566 67.7 65.7921 67.3905 65.4376 67.3613C65.0794 67.3304 64.7708 67.5944 64.7414 67.9458C64.6808 68.6687 64.8241 69.397 65.1253 70.0543C64.8149 70.5077 64.4108 70.8992 63.9442 71.1869C63.8432 71.2488 63.8119 71.3799 63.8744 71.48C63.9148 71.5456 63.9846 71.5802 64.0581 71.5802C64.0967 71.5802 64.1371 71.5692 64.172 71.5474C64.6239 71.2688 65.0243 70.901 65.3476 70.4786C65.6672 71.0157 66.1026 71.4855 66.6224 71.8405C66.4369 72.2429 66.1283 72.5925 65.7407 72.811C65.6378 72.8693 65.6011 72.9986 65.6599 73.1024C65.6984 73.1715 65.7719 73.2098 65.8472 73.2098C65.884 73.2098 65.9189 73.2007 65.9538 73.1825C66.4056 72.9294 66.7675 72.5288 66.9935 72.0645C67.6235 72.4013 68.3362 72.5707 69.0508 72.5707C69.8756 72.5707 70.7022 72.3467 71.3984 71.9006C72.7503 71.0357 73.5347 69.3915 73.351 67.8056C73.3106 67.4542 72.9891 67.2029 72.6346 67.243Z" fill="#231F20"/>
<path d="M99.9509 71.1869C99.4844 70.8992 99.0802 70.5077 98.7698 70.0543C99.0711 69.397 99.2143 68.6687 99.1537 67.9476C99.1243 67.5962 98.8176 67.3358 98.4575 67.3613C98.103 67.3905 97.8385 67.6982 97.8679 68.0514C97.9579 69.1494 97.3554 70.311 96.4039 70.8773C95.4505 71.4436 94.1334 71.4217 93.1985 70.8245C92.2653 70.2273 91.7014 69.0456 91.8281 67.9513C91.8685 67.5998 91.615 67.283 91.2605 67.243C90.9078 67.2029 90.5864 67.4542 90.546 67.8056C90.3623 69.3897 91.1466 71.0357 92.4986 71.9006C93.1966 72.3467 94.0214 72.5707 94.8462 72.5707C95.5607 72.5707 96.2716 72.4013 96.9035 72.0645C97.1294 72.5288 97.4913 72.9294 97.9432 73.1825C97.9763 73.2007 98.013 73.2098 98.0497 73.2098C98.1251 73.2098 98.1985 73.1715 98.2371 73.1024C98.2959 73.0004 98.2591 72.8693 98.1563 72.811C97.7687 72.5943 97.4601 72.2448 97.2746 71.8405C97.7944 71.4873 98.2298 71.0175 98.5494 70.4786C98.8727 70.9028 99.2731 71.2688 99.7268 71.5474C99.7617 71.5692 99.8021 71.5802 99.8407 71.5802C99.9124 71.5802 99.9822 71.5437 100.024 71.48C100.081 71.3817 100.052 71.2506 99.9509 71.1869Z" fill="#231F20"/>
<path d="M76.797 82.3882C76.1174 81.6326 74.9197 81.3777 73.9517 81.7855C72.9524 82.2043 72.326 83.2713 72.495 84.2673C72.6805 85.3616 73.7551 85.9552 74.7397 86.0572C74.8536 86.0681 74.9638 86.0754 75.074 86.0754C75.8565 86.0754 76.538 85.7804 76.9403 85.2542C77.5667 84.4348 77.5042 83.1766 76.797 82.3882Z" fill="#91D9F2"/>
<path d="M68.0423 75.4765C66.9658 74.8411 65.4357 74.7937 64.2233 74.8101C62.8603 74.8283 61.3339 75.0122 60.0811 75.573C59.1369 75.9955 58.5987 76.9204 59.0634 77.9182C59.5833 79.0362 61.0289 79.3822 62.1458 79.5187C63.968 79.7409 67.8604 79.8611 68.8321 77.8928C69.2803 76.9805 68.9056 75.9864 68.0423 75.4765Z" fill="#57B6DC"/>
<path d="M106.037 75.4765C104.96 74.8411 103.43 74.7937 102.218 74.8101C100.855 74.8283 99.3285 75.0122 98.0757 75.573C97.1315 75.9955 96.5933 76.9204 97.0581 77.9182C97.5779 79.0362 99.0236 79.3822 100.14 79.5187C101.963 79.7409 105.855 79.8611 106.827 77.8928C107.273 76.9805 106.9 75.9864 106.037 75.4765Z" fill="#57B6DC"/>
<path d="M30.9404 69.9195C28.5726 70.9009 27.026 73.5429 27.3419 76.0666C27.6579 78.5902 29.8089 80.7789 32.3456 81.1558C32.4044 81.1649 32.4632 81.1685 32.5238 81.1685C33.1043 81.1685 33.6058 80.7388 33.6921 80.1707C33.7399 79.8612 33.6609 79.5516 33.4735 79.2985C33.2861 79.0473 33.0106 78.8816 32.6983 78.8361C31.1737 78.6085 29.8805 77.2938 29.6895 75.7771C29.5003 74.2603 30.4298 72.6708 31.8515 72.0826C33.2751 71.4927 35.0679 71.9534 36.0231 73.1533C36.2197 73.3991 36.5007 73.5539 36.813 73.5903C37.1271 73.6267 37.4357 73.5393 37.6837 73.3463C37.9317 73.1515 38.0878 72.8729 38.1264 72.5633C38.165 72.2538 38.075 71.9461 37.8802 71.7003C36.2913 69.7028 33.3063 68.9381 30.9404 69.9195Z" fill="#57B6DC"/>
<path d="M55.6946 50.7773C52.5186 51.3217 49.6126 53.6178 48.1081 56.7696C46.815 59.4808 46.5064 62.8293 47.2393 66.196C47.3568 66.7313 47.8418 67.1209 48.3947 67.1209C48.4792 67.1209 48.5637 67.1118 48.6445 67.0936C48.9531 67.0281 49.2176 66.846 49.3885 66.582C49.5593 66.318 49.6181 66.0048 49.5501 65.6989C48.9256 62.8329 49.1717 60.0179 50.2445 57.7692C51.4238 55.2966 53.6666 53.5012 56.0932 53.0843C58.6208 52.6527 61.3467 53.8854 62.436 55.9539C62.583 56.2325 62.8291 56.4364 63.1304 56.5311C63.4316 56.6257 63.7531 56.5966 64.0323 56.4528C64.6109 56.1542 64.8368 55.444 64.5338 54.8705C62.9687 51.8916 59.249 50.1691 55.6946 50.7773Z" fill="#57B6DC"/>
<path d="M92.1259 46.6094C91.1689 43.616 87.8753 41.4474 84.466 41.5712C81.4939 41.6768 78.5438 43.3465 76.571 46.0377C74.9967 48.1862 74.003 50.9666 73.6191 54.3024C73.5456 54.9451 74.0122 55.5278 74.6624 55.6006C74.7083 55.6061 74.7524 55.6079 74.7965 55.6079C75.3972 55.6079 75.9023 55.1618 75.9703 54.5682C76.3083 51.6403 77.1551 49.2332 78.4869 47.4142C80.0335 45.3021 82.3003 43.9929 84.5505 43.9146C86.9366 43.829 89.2236 45.293 89.8702 47.3159C89.9657 47.6145 90.1733 47.8603 90.4543 48.0042C90.7354 48.148 91.055 48.1753 91.3544 48.0806C91.9771 47.8858 92.3225 47.2267 92.1259 46.6094Z" fill="#57B6DC"/>
<path d="M120.818 56.48C123.366 60.4731 122.921 66.032 119.881 69.4807C121.32 69.1748 122.802 69.1165 124.277 69.2877C130.881 64.1384 135.267 56.1486 136.077 47.6964C136.974 38.3538 134.2 28.6179 128.836 22.2887C123.37 15.8376 115.904 11.9519 106.648 10.7393C101.259 10.0328 94.8682 10.8758 90.3659 12.8824C85.8526 14.8944 81.7875 18.5779 78.922 23.2538C76.4109 27.3506 74.7118 32.2723 73.8742 37.8786C73.8595 37.9751 73.9127 38.0679 74.0027 38.1062C74.0927 38.1444 74.1975 38.1153 74.2581 38.0388C76.2052 35.5006 79.5888 33.6215 83.7879 32.7439C87.8898 31.8881 92.043 32.2031 95.4854 33.6324C99.2694 35.202 102.315 38.23 103.636 41.7314C105.061 45.5132 104.449 49.8705 102.076 52.8311C102.032 52.8876 102.017 52.9622 102.039 53.0296C102.061 53.097 102.117 53.1498 102.186 53.1698C102.539 53.2681 102.87 53.3428 103.193 53.4138C104.598 52.4524 106.195 51.7404 107.91 51.3544C112.793 50.2601 118.223 52.4141 120.818 56.48Z" fill="#FEABD5"/>
<path d="M108.171 30.1036C108.021 29.3625 107.708 28.6779 107.429 28.0952C107.275 27.7766 106.891 27.64 106.569 27.793C106.248 27.9459 106.112 28.3265 106.265 28.6451C106.512 29.1586 106.786 29.7576 106.907 30.3549C106.99 30.7664 107.038 31.3691 106.786 31.9062C106.47 32.5817 105.688 33.0515 104.839 33.0752C104.044 33.0988 103.179 32.7474 102.475 32.1138C102.21 31.8752 101.803 31.8953 101.564 32.1556C101.323 32.4178 101.343 32.8221 101.606 33.0588C102.523 33.8854 103.669 34.3534 104.767 34.3534C104.802 34.3534 104.839 34.3534 104.874 34.3516C106.2 34.3151 107.438 33.5468 107.956 32.4415C108.27 31.7715 108.344 30.963 108.171 30.1036Z" fill="#231F20"/>
<path d="M86.7875 22.8931C84.8772 22.2485 82.6563 24.2205 82.9521 26.1706C83.0696 26.939 83.5013 27.7183 84.0928 28.2281C85.206 29.1858 87.0429 28.6014 87.9595 27.6545C89.328 26.2398 88.652 23.5231 86.7875 22.8931Z" fill="#FF84C7"/>
<path d="M99.7486 26.9137C99.0634 25.3259 97.4066 24.7797 95.8985 25.508C95.0443 25.9213 94.2287 26.6842 94.1295 27.6657C93.9587 29.3627 95.3051 31.3838 97.2137 30.7738C98.7218 30.2895 100.474 28.5925 99.7486 26.9137Z" fill="#FFEAA3"/>
<path d="M106.947 14.4975C106.665 14.3045 106.356 14.1479 106.036 14.0368C104.675 13.5634 103.191 13.8347 102.254 14.9509C100.415 17.1431 101.955 20.843 105.048 20.1657C106.327 19.8853 107.859 19.1096 108.281 17.7804C108.698 16.4712 108.007 15.224 106.947 14.4975Z" fill="#FF84C7"/>
<path d="M128.072 24.7377C127.82 24.0167 127.196 23.4668 126.483 23.2119C124.797 22.6074 123.087 23.709 122.637 25.3677C122.356 26.4038 122.679 27.6492 123.713 28.1663C124.947 28.7836 126.408 28.1099 127.299 27.2031C127.966 26.5276 128.405 25.6918 128.072 24.7377Z" fill="#FF84C7"/>
<path d="M129.745 34.867C127.366 34.7851 125.157 36.5494 125.348 39.0166C125.35 39.0403 125.355 39.0622 125.361 39.0858C125.361 39.3845 125.423 39.6903 125.574 39.9999C126.037 40.954 126.979 41.6987 127.958 42.0793C130.138 42.9314 132.578 42.1248 132.943 39.674C133.283 37.3961 132.374 34.9562 129.745 34.867Z" fill="#FFEAA3"/>
<path d="M115.772 43.7887C114.481 43.6266 113.228 44.7646 112.675 45.8298C112.131 46.8768 112.462 48.1587 113.366 48.8979C114.773 50.0505 116.927 49.3841 117.747 48.0002C118.819 46.6182 117.818 44.0436 115.772 43.7887Z" fill="#FFEAA3"/>
<path d="M129.735 52.7802C128.75 51.2289 126.933 51.2361 125.545 52.3086C124.496 53.1189 123.814 54.5428 124.321 55.8337C124.797 57.0482 126.103 57.7055 127.367 57.7347C130.142 57.7984 131.024 54.8122 129.735 52.7802Z" fill="#FFEAA3"/>
<path d="M116.36 28.7579C114.066 28.8489 112.512 30.8827 111.349 32.6526C111.05 33.0331 110.831 33.4665 110.785 33.9709C110.706 34.8303 111.169 35.6296 111.981 35.9537C113.803 36.6821 116.055 34.5663 116.992 33.2371C117.798 32.0918 118.801 28.6614 116.36 28.7579Z" fill="#FFEAA3"/>
<path d="M98.2244 13.7654C98.026 13.0462 97.1112 12.8787 96.584 12.8441C88.5861 12.3142 81.3487 19.8324 78.011 27.0428C77.4655 28.2227 77.0761 29.4081 76.8575 30.5698L76.8446 30.6353C76.7105 31.3381 76.5599 32.1357 76.5048 32.844C76.4827 33.1244 76.5415 33.3938 76.6701 33.6032C76.7215 33.687 76.784 33.7616 76.8556 33.8217C77.0007 33.9455 77.1606 34.0075 77.3351 34.0075C77.3828 34.0075 77.4306 34.002 77.4802 33.9929C78.1029 33.8745 78.7017 33.0224 78.9313 32.589C79.3869 31.7278 79.7102 30.7937 80.0225 29.8924C80.1437 29.5428 80.2649 29.1932 80.3935 28.8473C81.7822 25.1109 83.9038 22.0647 86.6996 19.7942C89.2309 17.7385 92.361 16.5604 95.3662 15.5935C95.4653 15.5608 95.6086 15.5243 95.7776 15.4806C96.5308 15.284 97.7909 14.9526 98.1528 14.3335C98.2538 14.1551 98.2795 13.9639 98.2244 13.7654Z" fill="#CA6CAA"/>
<path d="M100.532 12.0302C100.21 11.8445 99.8299 11.8572 99.4901 11.9847C99.3027 12.0557 99.1447 12.1503 99.04 12.3288C98.6304 13.0243 99.6389 13.9712 100.335 13.8018C100.675 13.7199 100.952 13.4577 101.035 13.119C101.143 12.682 100.91 12.2487 100.532 12.0302Z" fill="#CA6CAA"/>
<path d="M136.155 46.7641C136.175 46.4618 136.193 46.1577 136.206 45.8555C136.044 46.0248 135.908 46.2342 135.815 46.4909C134.296 50.5769 131.959 54.3733 128.965 57.5615C127.675 58.9344 126.279 60.1871 124.821 61.3688C125.054 61.1795 124.126 58.9781 123.996 58.6649C123.608 57.7345 123.122 56.8441 122.549 56.0102C121.423 54.3733 119.964 52.9585 118.28 51.8915C114.755 49.6573 110.673 49.2604 106.736 50.5605C105.689 50.9064 104.738 51.3707 103.871 52.0699C103.41 52.1209 102.952 52.1846 102.501 52.2611C102.366 52.4578 102.223 52.6489 102.074 52.8347C102.03 52.8911 102.016 52.9658 102.038 53.0331C102.06 53.1005 102.115 53.1533 102.185 53.1733C102.537 53.2717 102.868 53.3463 103.191 53.4173C104.596 52.4559 106.193 51.744 107.908 51.358C112.793 50.26 118.221 52.4141 120.816 56.4799C122.951 59.8248 122.984 64.2694 121.151 67.6525C121.151 67.6525 121.151 67.6543 121.149 67.6543C121.081 67.7781 121.011 67.9001 120.939 68.0221C120.934 68.0294 120.93 68.0385 120.925 68.0458C120.857 68.1587 120.787 68.2679 120.715 68.3772C120.704 68.3936 120.695 68.4099 120.684 68.4245C120.618 68.5247 120.548 68.6248 120.477 68.7231C120.46 68.745 120.445 68.7686 120.429 68.7905C120.361 68.8852 120.289 68.9762 120.218 69.0673C120.197 69.0928 120.179 69.1182 120.161 69.1419C120.069 69.2566 119.975 69.3695 119.878 69.4788C121.316 69.1729 122.798 69.1146 124.273 69.2858C130.877 64.1365 135.264 56.1467 136.074 47.6945C136.103 47.3886 136.129 47.0827 136.149 46.7768C136.155 46.7732 136.155 46.7677 136.155 46.7641Z" fill="#EBCE72"/>
<path d="M38.7782 41.1469C38.6533 40.9284 38.3723 40.8519 38.1519 40.9757L32.463 44.1767L36.359 37.0082C36.4491 36.8406 36.427 36.6367 36.3003 36.4929C36.1754 36.3508 35.9733 36.2999 35.7933 36.3654C33.2106 37.3232 30.7271 38.5613 28.4144 40.0471C28.2013 40.1837 28.1407 40.4659 28.2785 40.6771C28.4163 40.8883 28.701 40.9484 28.9141 40.8118C30.8244 39.5864 32.8524 38.5322 34.9556 37.6709L30.8961 45.1381C30.7987 45.3165 30.8336 45.5369 30.9787 45.6789C31.0669 45.7645 31.1826 45.8082 31.3002 45.8082C31.3773 45.8082 31.4563 45.7881 31.5261 45.7481L38.6037 41.7641C38.826 41.6421 38.9032 41.3654 38.7782 41.1469Z" fill="#F7E9BC"/>
<path d="M43.9713 53.4591C43.8721 53.2279 43.602 53.1205 43.3688 53.2188C42.1729 53.7232 40.9349 54.1438 39.6747 54.4752C40.7861 52.7763 41.7008 50.9555 42.4025 49.0528C42.4613 48.8925 42.4246 48.7123 42.3089 48.5866C42.1913 48.461 42.0131 48.4118 41.8478 48.4573C39.7152 49.0509 37.6762 49.9322 35.786 51.0775C35.5693 51.2086 35.5013 51.489 35.6335 51.7039C35.7658 51.9187 36.0487 51.9861 36.2654 51.855C37.8176 50.9136 39.4764 50.158 41.2067 49.6008C40.4352 51.4836 39.4451 53.2716 38.2548 54.9285C38.1446 55.0815 38.1409 55.2872 38.2456 55.4438C38.332 55.5731 38.4771 55.6478 38.6295 55.6478C38.6626 55.6478 38.6957 55.6441 38.7269 55.6368C40.4371 55.2672 42.1197 54.7337 43.7306 54.0545C43.9621 53.958 44.0705 53.6904 43.9713 53.4591Z" fill="#F7E9BC"/>
<path d="M33.8627 30.504C33.7489 30.28 33.4715 30.189 33.2455 30.3019L23.87 34.9923C25.6279 31.3525 27.7458 27.8765 30.1797 24.6446C30.2973 24.488 30.301 24.2731 30.1889 24.1129C30.0769 23.9527 29.873 23.8799 29.6838 23.9345C26.5243 24.8431 23.5632 26.2615 20.8831 28.1533C20.6774 28.299 20.6278 28.583 20.7748 28.7888C20.9217 28.9927 21.2083 29.0419 21.4159 28.8962C23.633 27.3303 26.0504 26.0976 28.6165 25.2236C26.2322 28.5411 24.1694 32.0936 22.4757 35.8007C22.3949 35.9774 22.4353 36.1831 22.5768 36.3179C22.6649 36.4016 22.7788 36.4453 22.8946 36.4453C22.9644 36.4453 23.036 36.4289 23.1021 36.3962L33.6607 31.114C33.8848 31.0029 33.9766 30.728 33.8627 30.504Z" fill="#F7E9BC"/>
<path d="M49.1442 40.4751C48.3451 40.4751 48.3433 41.706 49.1442 41.706C49.9433 41.706 49.9451 40.4751 49.1442 40.4751Z" fill="#ADB9D1"/>
<path d="M51.8998 25.1165C51.3707 25.1165 51.3707 25.9304 51.8998 25.9304C52.4288 25.9304 52.4288 25.1165 51.8998 25.1165Z" fill="#ADB9D1"/>
<path d="M70.6342 12.2361C69.3392 12.2361 69.3374 14.2317 70.6342 14.2317C71.9293 14.2317 71.9329 12.2361 70.6342 12.2361Z" fill="#ADB9D1"/>
<path d="M51.6243 13.6362C51.437 13.6362 51.437 13.9239 51.6243 13.9239C51.8117 13.9239 51.8117 13.6362 51.6243 13.6362Z" fill="#ADB9D1"/>
<path d="M7.54014 31.3525C7.30685 31.3525 7.30685 31.7112 7.54014 31.7112C7.77343 31.7112 7.77343 31.3525 7.54014 31.3525Z" fill="#ADB9D1"/>
<path d="M19.9394 38.0679H19.6639C19.3644 38.0679 19.0797 38.3282 19.0926 38.6341C19.1073 38.94 19.3442 39.2004 19.6639 39.2004H19.9394C20.2388 39.2004 20.5235 38.94 20.5107 38.6341C20.496 38.3264 20.259 38.0679 19.9394 38.0679Z" fill="#ADB9D1"/>
<path d="M6.98907 63.1443C5.83733 63.1443 5.83549 64.9196 6.98907 64.9196C8.14081 64.9196 8.14264 63.1443 6.98907 63.1443Z" fill="#ADB9D1"/>
<path d="M20.2147 70.8862C19.1842 70.8862 19.1824 72.474 20.2147 72.474C21.2452 72.4722 21.2471 70.8862 20.2147 70.8862Z" fill="#ADB9D1"/>
<path d="M21.3168 78.0676C21.1019 78.0676 21.1 78.399 21.3168 78.399C21.5317 78.399 21.5317 78.0676 21.3168 78.0676Z" fill="#ADB9D1"/>
<path d="M6.41774 99.8665C6.03934 99.8665 6.03934 100.449 6.41774 100.449C6.79615 100.449 6.79615 99.8665 6.41774 99.8665Z" fill="#ADB9D1"/>
<path d="M21.2969 104.364C20.1397 104.364 20.1379 106.146 21.2969 106.146C22.4542 106.148 22.456 104.364 21.2969 104.364Z" fill="#ADB9D1"/>
<path d="M40.2167 106.238C39.5995 106.238 39.5995 107.188 40.2167 107.188C40.834 107.188 40.834 106.238 40.2167 106.238Z" fill="#ADB9D1"/>
<path d="M57.2874 110.902C57.2782 110.717 57.2176 110.526 57.0762 110.396C57.0266 110.36 56.9788 110.322 56.9292 110.285C56.8172 110.22 56.6959 110.189 56.5655 110.187C56.3635 110.161 56.1375 110.278 55.9998 110.418C55.8546 110.566 55.7738 110.768 55.7738 110.975C55.772 111.39 56.1192 111.793 56.56 111.767C56.751 111.756 56.9311 111.695 57.0707 111.558C57.1956 111.434 57.2893 111.23 57.2819 111.052C57.2819 111.039 57.2782 111.026 57.2782 111.015C57.2838 110.975 57.2893 110.939 57.2874 110.902Z" fill="#ADB9D1"/>
<path d="M8.25488 112.556C7.33092 112.556 7.32908 113.98 8.25488 113.98C9.17885 113.98 9.18068 112.556 8.25488 112.556Z" fill="#ADB9D1"/>
<path d="M114.428 114.01C114.037 114.029 113.708 114.324 113.708 114.724V114.906C113.708 115.28 114.038 115.638 114.428 115.62C114.819 115.602 115.148 115.307 115.148 114.906V114.724C115.148 114.351 114.817 113.992 114.428 114.01Z" fill="#ADB9D1"/>
<path d="M125.449 115.92H125.266C125.165 115.92 125.165 116.077 125.266 116.077H125.449C125.55 116.077 125.55 115.92 125.449 115.92Z" fill="#ADB9D1"/>
<path d="M170.821 121.554C169.522 121.554 169.52 123.553 170.821 123.553C172.12 123.553 172.121 121.554 170.821 121.554Z" fill="#ADB9D1"/>
<path d="M170.27 107.445C169.33 107.445 169.328 108.894 170.27 108.894C171.211 108.894 171.212 107.445 170.27 107.445Z" fill="#ADB9D1"/>
<path d="M133.348 111.199C132.79 111.199 132.788 112.06 133.348 112.06C133.906 112.059 133.908 111.199 133.348 111.199Z" fill="#ADB9D1"/>
<path d="M129.753 103.175C129.693 103.115 129.63 103.053 129.57 102.993C129.408 102.833 129.167 102.734 128.94 102.734C128.721 102.734 128.46 102.831 128.31 102.993C128.153 103.16 128.038 103.383 128.049 103.617C128.06 103.852 128.139 104.073 128.31 104.242L128.493 104.424C128.655 104.584 128.896 104.683 129.123 104.683C129.342 104.683 129.603 104.586 129.753 104.424C129.909 104.257 130.025 104.034 130.014 103.8C130.003 103.565 129.924 103.344 129.753 103.175Z" fill="#ADB9D1"/>
<path d="M162.004 101.402C161.491 101.402 161.491 102.19 162.004 102.19C162.516 102.192 162.516 101.402 162.004 101.402Z" fill="#ADB9D1"/>
<path d="M149.697 89.8245C149.283 89.8245 149.283 90.4618 149.697 90.4618C150.11 90.4618 150.11 89.8245 149.697 89.8245Z" fill="#ADB9D1"/>
<path d="M139.961 79.1692H139.777C139.715 79.1692 139.715 79.2657 139.777 79.2657H139.961C140.023 79.2675 140.023 79.1692 139.961 79.1692Z" fill="#ADB9D1"/>
<path d="M142.577 67.7035C142.411 67.5542 142.209 67.4595 141.981 67.4595H141.798C141.583 67.4595 141.355 67.5523 141.203 67.7035C141.058 67.8473 140.947 68.0858 140.956 68.2934C140.966 68.5083 141.037 68.7322 141.203 68.8833C141.368 69.0327 141.57 69.1273 141.798 69.1273H141.981C142.196 69.1273 142.424 69.0345 142.577 68.8833C142.722 68.7395 142.832 68.501 142.823 68.2934C142.812 68.0785 142.74 67.8546 142.577 67.7035Z" fill="#ADB9D1"/>
<path d="M145.029 54.2731V54.4551C145.029 54.5517 145.181 54.5517 145.181 54.4551V54.2731C145.18 54.1766 145.029 54.1766 145.029 54.2731Z" fill="#ADB9D1"/>
<path d="M158.698 80.7808H158.584C157.776 80.7808 157.774 82.0262 158.584 82.0262H158.698C159.506 82.0262 159.508 80.7808 158.698 80.7808Z" fill="#ADB9D1"/>
<path d="M151.901 63.3025C150.622 63.3025 150.619 65.2726 151.901 65.2726C153.179 65.2726 153.183 63.3025 151.901 63.3025Z" fill="#ADB9D1"/>
<path d="M167.698 54.9507C167.158 54.9507 167.158 55.7828 167.698 55.7828C168.238 55.781 168.238 54.9507 167.698 54.9507Z" fill="#ADB9D1"/>
<path d="M141.063 42.6348H140.879C140.648 42.6348 140.405 42.7349 140.24 42.897C140.084 43.0517 139.966 43.3066 139.975 43.5306C139.997 44.0149 140.372 44.4264 140.879 44.4264H141.063C141.294 44.4264 141.537 44.3263 141.702 44.1642C141.858 44.0095 141.976 43.7546 141.967 43.5306C141.945 43.0463 141.57 42.6348 141.063 42.6348Z" fill="#ADB9D1"/>
<path d="M161.269 31.5149H160.902C160.52 31.5149 160.152 31.8481 160.169 32.2414C160.187 32.6347 160.49 32.9679 160.902 32.9679H161.269C161.651 32.9679 162.018 32.6347 162.002 32.2414C161.984 31.8481 161.679 31.5149 161.269 31.5149Z" fill="#ADB9D1"/>
<path d="M172.291 34.7942C171.115 34.7942 171.113 36.6059 172.291 36.6059C173.466 36.6077 173.468 34.7942 172.291 34.7942Z" fill="#ADB9D1"/>
<path d="M172.658 26.1763C172.347 26.1763 172.347 26.6533 172.658 26.6533C172.968 26.6533 172.968 26.1763 172.658 26.1763Z" fill="#ADB9D1"/>
<path d="M166.366 3.33578C166.198 3.16827 165.92 3.04263 165.678 3.05173C165.426 3.06266 165.163 3.1446 164.989 3.33578C164.814 3.52515 164.702 3.75821 164.702 4.01859V4.20067C164.702 4.4483 164.811 4.70868 164.989 4.88348C165.158 5.05099 165.435 5.17663 165.678 5.16753C165.929 5.1566 166.192 5.07466 166.366 4.88348C166.541 4.69411 166.653 4.46105 166.653 4.20067V4.01859C166.653 3.77096 166.545 3.51058 166.366 3.33578Z" fill="#ADB9D1"/>
<path d="M154.219 0.588135H154.105C152.726 0.588135 152.722 2.71485 154.105 2.71485H154.219C155.599 2.71485 155.602 0.588135 154.219 0.588135Z" fill="#ADB9D1"/>
<path d="M127.654 9.00024C126.322 9.00024 126.318 11.0523 127.654 11.0523C128.986 11.0541 128.989 9.00024 127.654 9.00024Z" fill="#ADB9D1"/>
<path d="M105.795 1.99023C105.052 1.99023 105.051 3.13371 105.795 3.13371C106.537 3.13371 106.539 1.99023 105.795 1.99023Z" fill="#ADB9D1"/>
<path d="M75.6693 0.996094C74.5819 0.996094 74.58 2.67125 75.6693 2.67125C76.7567 2.67125 76.7586 0.996094 75.6693 0.996094Z" fill="#ADB9D1"/>
<path d="M65.0152 39.927C64.5908 39.927 64.5908 40.5789 65.0152 40.5789C65.4395 40.5789 65.4395 39.927 65.0152 39.927Z" fill="#ADB9D1"/>
<path d="M37.0205 23.0625C37.0151 23.0625 37.0151 23.0697 37.0205 23.0697C37.0259 23.0697 37.0259 23.0625 37.0205 23.0625Z" fill="#515763"/>
<path d="M58.2405 2.57816L57.9649 2.30503C57.818 2.15937 57.5498 2.14844 57.4047 2.30503C57.2596 2.46162 57.2486 2.70561 57.4047 2.86038C57.4965 2.95142 57.5884 3.04246 57.6802 3.1335C57.8272 3.27917 58.0954 3.2901 58.2405 3.1335C58.3856 2.97691 58.3984 2.73293 58.2405 2.57816Z" fill="#515763"/>
<path d="M2.58043 21.4526H2.30489C2.02936 21.4526 1.76668 21.693 1.77954 21.9734C1.7924 22.2556 2.01099 22.4941 2.30489 22.4941H2.58043C2.85596 22.4941 3.11864 22.2538 3.10578 21.9734C3.09293 21.6912 2.87617 21.4526 2.58043 21.4526Z" fill="#515763"/>
<path d="M14.1529 52.9199C13.2014 52.9199 13.1995 54.3875 14.1529 54.3875C15.1044 54.3875 15.1062 52.9199 14.1529 52.9199Z" fill="#515763"/>
<path d="M0.431172 89.7461H0.355859C-0.630559 89.7461 -0.632396 91.2665 0.355859 91.2665H0.431172C1.41943 91.2683 1.42126 89.7461 0.431172 89.7461Z" fill="#515763"/>
<path d="M46.4622 121.465H46.2785C46.0874 121.465 45.9056 121.631 45.9148 121.825C45.9239 122.022 46.0746 122.186 46.2785 122.186H46.4622C46.6532 122.186 46.8351 122.02 46.8259 121.825C46.8185 121.629 46.6661 121.465 46.4622 121.465Z" fill="#515763"/>
<path d="M145.103 118.886C145.071 118.886 145.071 118.935 145.103 118.935C145.135 118.937 145.135 118.886 145.103 118.886Z" fill="#515763"/>
<path d="M158.33 110.629C157.505 110.629 157.503 111.898 158.33 111.898C159.155 111.9 159.156 110.629 158.33 110.629Z" fill="#515763"/>
<path d="M173.576 78.9851C172.799 78.9851 172.799 80.1814 173.576 80.1814C174.353 80.1796 174.353 78.9851 173.576 78.9851Z" fill="#515763"/>
<path d="M158.146 54.0054C157.801 54.0199 157.509 54.2821 157.509 54.6372V54.8193C157.509 55.1489 157.801 55.4657 158.146 55.4511C158.491 55.4365 158.783 55.1743 158.783 54.8193V54.6372C158.783 54.3076 158.49 53.9908 158.146 54.0054Z" fill="#515763"/>
<path d="M140.512 24.7576C140.253 24.7576 140.253 25.1563 140.512 25.1563C140.771 25.1581 140.771 24.7576 140.512 24.7576Z" fill="#515763"/>
<path d="M174.31 7.62549C174.267 7.62549 174.267 7.69251 174.31 7.69251C174.354 7.69432 174.354 7.62549 174.31 7.62549Z" fill="#515763"/>
<path d="M111.856 7.46899C111.844 7.46899 111.844 7.48813 111.856 7.48813C111.868 7.48639 111.868 7.46899 111.856 7.46899Z" fill="#515763"/>
<path d="M98.6306 6.2871C98.2779 6.30348 97.9803 6.56932 97.9803 6.93167V7.11375C97.9803 7.4506 98.2798 7.77288 98.6306 7.75832C98.9833 7.74193 99.2809 7.47609 99.2809 7.11375V6.93167C99.2809 6.59481 98.9814 6.27253 98.6306 6.2871Z" fill="#515763"/>
<path d="M66.5029 25.3877C65.2612 25.3877 65.2593 27.2996 66.5029 27.2996C67.7428 27.2996 67.7465 25.3877 66.5029 25.3877Z" fill="#F2E3B5"/>
<path d="M39.1366 22.3341C38.9547 22.1538 38.659 22.0191 38.3982 22.0318C38.1281 22.0446 37.8489 22.132 37.6597 22.3341C37.4724 22.5362 37.3548 22.7857 37.3548 23.0661V23.3392C37.3548 23.605 37.4705 23.8836 37.6597 24.0712C37.8416 24.2514 38.1373 24.3862 38.3982 24.3734C38.6682 24.3607 38.9474 24.2733 39.1366 24.0712C39.324 23.869 39.4415 23.6196 39.4415 23.3392V23.0661C39.4415 22.8002 39.3258 22.5216 39.1366 22.3341Z" fill="#F2E3B5"/>
<path d="M38.9492 8.14819C38.7306 8.14819 38.7288 8.48687 38.9492 8.48687C39.1696 8.48687 39.1696 8.14819 38.9492 8.14819Z" fill="#F2E3B5"/>
<path d="M19.1125 19.8923H18.837C18.6037 19.8923 18.3814 20.0963 18.3925 20.333C18.4035 20.5715 18.589 20.7754 18.837 20.7754H19.1125C19.3458 20.7754 19.5681 20.5715 19.557 20.333C19.546 20.0963 19.3623 19.8923 19.1125 19.8923Z" fill="#F2E3B5"/>
<path d="M0.651536 54.1567C-0.114453 54.1567 -0.11629 55.3366 0.651536 55.3366C1.41753 55.3366 1.41936 54.1567 0.651536 54.1567Z" fill="#F2E3B5"/>
<path d="M26.8276 55.4419H26.5521C26.3427 55.4419 26.1406 55.624 26.1516 55.8388C26.1608 56.0537 26.328 56.2358 26.5521 56.2358H26.8276C27.037 56.2358 27.2391 56.0537 27.228 55.8388C27.2189 55.624 27.0517 55.4419 26.8276 55.4419Z" fill="#F2E3B5"/>
<path d="M24.072 87.2097C23.3152 87.2097 23.3134 88.3751 24.072 88.3751C24.8288 88.3751 24.8307 87.2097 24.072 87.2097Z" fill="#F2E3B5"/>
<path d="M13.8771 92.1553C13.1589 92.1553 13.1571 93.2624 13.8771 93.2624C14.5954 93.2624 14.5972 92.1553 13.8771 92.1553Z" fill="#F2E3B5"/>
<path d="M1.5867 107.41C1.51507 107.193 1.37913 106.977 1.16789 106.869C1.01359 106.791 0.851943 106.729 0.6756 106.736C0.434965 106.747 0.183309 106.831 0.0143136 107.009C-0.174888 107.21 -0.264896 107.446 -0.27408 107.716C-0.283265 107.965 -0.169376 108.253 0.016151 108.422C0.34312 108.719 0.780303 108.77 1.16973 108.562C1.36811 108.457 1.52976 108.233 1.58854 108.022C1.61242 107.936 1.61793 107.84 1.61426 107.743C1.62712 107.63 1.62161 107.517 1.5867 107.41Z" fill="#F2E3B5"/>
<path d="M35.8082 94.0598C35.2185 94.0598 35.2185 94.9666 35.8082 94.9666C36.3978 94.9666 36.3978 94.0598 35.8082 94.0598Z" fill="#F2E3B5"/>
<path d="M131.511 120.314C130.495 120.314 130.493 121.878 131.511 121.878C132.527 121.88 132.528 120.314 131.511 120.314Z" fill="#F2E3B5"/>
<path d="M145.183 120.473C145.122 120.413 145.06 120.351 144.999 120.291C144.838 120.13 144.599 120.032 144.369 120.032C144.151 120.032 143.89 120.128 143.739 120.291C143.583 120.458 143.467 120.68 143.478 120.915C143.489 121.148 143.568 121.37 143.739 121.54C143.8 121.6 143.862 121.662 143.923 121.722C144.085 121.882 144.323 121.98 144.553 121.98C144.772 121.98 145.032 121.884 145.183 121.722C145.339 121.554 145.455 121.332 145.444 121.097C145.433 120.864 145.352 120.642 145.183 120.473Z" fill="#F2E3B5"/>
<path d="M157.228 119.415C156.697 119.415 156.697 120.232 157.228 120.232C157.758 120.231 157.758 119.415 157.228 119.415Z" fill="#F2E3B5"/>
<path d="M148.227 102.006C148.043 102.013 147.887 102.153 147.887 102.343V102.525C147.887 102.701 148.043 102.869 148.227 102.862C148.41 102.854 148.567 102.714 148.567 102.525V102.343C148.567 102.166 148.41 101.999 148.227 102.006Z" fill="#F2E3B5"/>
<path d="M137.756 93.7703C137.029 93.7703 137.027 94.8901 137.756 94.8901C138.484 94.8919 138.486 93.7703 137.756 93.7703Z" fill="#F2E3B5"/>
<path d="M175.78 96.343C175.082 96.343 175.082 97.4173 175.78 97.4173C176.478 97.4173 176.478 96.343 175.78 96.343Z" fill="#F2E3B5"/>
<path d="M148.12 78.5956C148.059 78.5355 147.997 78.4736 147.936 78.4135C147.8 78.2788 147.551 78.2679 147.417 78.4135C147.282 78.5592 147.271 78.785 147.417 78.9288L147.6 79.1109C147.736 79.2457 147.986 79.2566 148.12 79.1109C148.254 78.9671 148.265 78.7413 148.12 78.5956Z" fill="#F2E3B5"/>
<path d="M162.738 70.0286C162.391 70.0286 162.389 70.5639 162.738 70.5639C163.085 70.5639 163.087 70.0286 162.738 70.0286Z" fill="#F2E3B5"/>
<path d="M170.27 65.2106C169.978 65.2234 169.732 65.4455 169.732 65.7441V65.9262C169.732 66.2048 169.98 66.4725 170.27 66.4597C170.562 66.447 170.808 66.2248 170.808 65.9262V65.7441C170.808 65.4656 170.56 65.1979 170.27 65.2106Z" fill="#F2E3B5"/>
<path d="M148.043 36.1196C147.85 36.1287 147.685 36.2744 147.685 36.4747V36.5657C147.685 36.7514 147.848 36.928 148.043 36.9208C148.236 36.9117 148.401 36.766 148.401 36.5657V36.4747C148.401 36.2889 148.236 36.1123 148.043 36.1196Z" fill="#F2E3B5"/>
<path d="M137.573 32.2395C137.332 32.2395 137.332 32.6091 137.573 32.6091C137.813 32.6073 137.813 32.2395 137.573 32.2395Z" fill="#F2E3B5"/>
<path d="M172.106 16.1287H171.923C171.684 16.1287 171.452 16.3381 171.465 16.582C171.476 16.8279 171.667 17.0354 171.923 17.0354H172.106C172.345 17.0354 172.577 16.826 172.564 16.582C172.553 16.3362 172.364 16.1287 172.106 16.1287Z" fill="#D5A6D2"/>
<path d="M175.046 9.70312C173.916 9.70312 173.914 11.4438 175.046 11.4438C176.175 11.4438 176.177 9.70312 175.046 9.70312Z" fill="#D5A6D2"/>
<path d="M135.473 1.11618C135.425 1.07248 135.367 1.04517 135.3 1.04517H135.255C135.192 1.04517 135.126 1.07248 135.082 1.11618C135.04 1.15806 135.007 1.22725 135.01 1.28733C135.014 1.35106 135.034 1.41479 135.082 1.45849C135.13 1.50219 135.188 1.5295 135.255 1.5295H135.3C135.363 1.5295 135.429 1.50219 135.473 1.45849C135.515 1.41661 135.548 1.34742 135.545 1.28733C135.541 1.22361 135.521 1.15988 135.473 1.11618Z" fill="#F2E3B5"/>
<path d="M121.04 -0.792236C119.997 -0.792236 119.995 0.815546 121.04 0.815546C122.084 0.817366 122.086 -0.792236 121.04 -0.792236Z" fill="#F2E3B5"/>
<path d="M110.938 7.78564C109.918 7.78564 109.916 9.35519 110.938 9.35519C111.957 9.35519 111.959 7.78564 110.938 7.78564Z" fill="#D5A6D2"/>
<path d="M87.9761 8.00415C87.7134 8.00415 87.7116 8.41019 87.9761 8.41019C88.2388 8.40837 88.2406 8.00415 87.9761 8.00415Z" fill="#F2E3B5"/>
<path d="M66.6677 42.5542C66.5836 42.5542 66.5836 42.6828 66.6677 42.6828C66.7517 42.6846 66.7517 42.5542 66.6677 42.5542Z" fill="#F2E3B5"/>
</svg>
