<svg width="178" height="124" viewBox="0 0 178 124" fill="none" xmlns="http://www.w3.org/2000/svg">
<path d="M177.687 -3.63525H-6.00348V178.446H177.687V-3.63525Z" fill="#4C53B4"/>
<path d="M150.912 102.799C166.239 71.3884 149.529 31.9573 113.59 14.7269C77.6505 -2.50356 36.0916 8.99156 20.7651 40.4019C5.43856 71.8123 22.1484 111.243 58.0875 128.474C94.0265 145.704 135.586 134.209 150.912 102.799Z" fill="#5F65BF"/>
<path d="M166.809 16.0987C165.543 14.8369 163.822 14.2815 162.264 14.6129C163.256 13.4895 163.401 11.6759 162.569 10.3741C161.722 9.04851 159.952 8.34567 158.359 8.70437C157.053 8.99752 155.953 9.8697 155.38 11.015C155.514 10.0827 155.504 8.94108 155.051 7.82492C154.5 6.47023 153.357 5.45785 152.066 5.18291C150.492 4.84788 148.66 5.65086 147.609 7.13847C146.935 8.09258 146.485 9.31435 146.322 10.5816C146.072 9.70946 145.486 8.9083 144.681 8.42761C143.486 7.71385 141.867 7.692 140.558 8.36934C139.338 9.00117 138.383 10.2229 138.002 11.6414C137.677 12.8577 137.754 14.1832 138.225 15.4942C137.091 14.5292 135.901 13.6042 134.305 13.8846C133.236 14.0721 132.352 14.724 131.882 15.6726C131.413 16.6158 131.432 17.6992 131.93 18.646C132.771 20.2447 134.492 21.2425 137.189 21.6959C139.055 22.0091 140.976 22.0291 142.833 22.0473C143.179 22.051 143.522 22.0546 143.868 22.0601C144.14 22.0637 144.38 22.0692 144.602 22.0765C146.125 22.1238 147.65 22.1548 149.132 22.1675C149.77 22.173 150.403 22.1766 151.039 22.1766C153.344 22.1766 155.626 22.1365 157.847 22.0583C158.396 22.0382 158.954 22.0091 159.494 21.9818C160.291 21.9399 161.114 21.898 161.924 21.8853C163.287 21.8616 164.505 21.8015 165.615 21.3099C166.574 20.8838 167.856 20.1537 167.942 18.7316C167.997 17.8303 167.584 16.8707 166.809 16.0987Z" fill="#93A1ED"/>
<path d="M175.602 44.8624C174.724 43.9884 173.534 43.6042 172.454 43.8336C173.141 43.0543 173.242 41.7998 172.665 40.8966C172.079 39.979 170.852 39.491 169.75 39.7386C168.845 39.9425 168.084 40.5452 167.685 41.3391C167.777 40.6927 167.772 39.9025 167.458 39.1286C167.077 38.1909 166.284 37.4899 165.389 37.2987C164.3 37.0656 163.031 37.6228 162.303 38.6534C161.837 39.3144 161.524 40.161 161.411 41.0387C161.238 40.4342 160.832 39.8788 160.275 39.5474C159.447 39.054 158.326 39.0376 157.419 39.5074C156.574 39.9444 155.913 40.791 155.65 41.7743C155.424 42.6173 155.477 43.535 155.804 44.4436C155.02 43.7754 154.195 43.1344 153.089 43.3293C152.349 43.4585 151.737 43.9101 151.41 44.5674C151.087 45.2211 151.098 45.9713 151.444 46.6268C152.026 47.7338 153.218 48.4257 155.086 48.7389C156.379 48.9556 157.709 48.9702 158.997 48.9829C159.236 48.9847 159.474 48.9884 159.713 48.992C159.902 48.9956 160.068 48.9993 160.222 49.0029C161.276 49.0357 162.333 49.0575 163.36 49.0667C163.8 49.0703 164.241 49.0721 164.68 49.0721C166.277 49.0721 167.858 49.0448 169.396 48.9902C169.776 48.9774 170.163 48.9574 170.536 48.9374C171.087 48.9082 171.659 48.8791 172.219 48.87C173.163 48.8536 174.006 48.8117 174.774 48.4712C175.437 48.1763 176.326 47.6701 176.387 46.685C176.425 46.0605 176.139 45.3959 175.602 44.8624Z" fill="#93A1ED"/>
<path d="M14.557 81.7412C13.903 81.0911 13.0158 80.8034 12.2131 80.9746C12.7256 80.3938 12.799 79.4597 12.371 78.7878C11.9339 78.1032 11.0209 77.7408 10.1998 77.9266C9.52568 78.0777 8.95808 78.5274 8.66233 79.1192C8.73214 78.6385 8.72663 78.0486 8.49334 77.4732C8.20862 76.774 7.61897 76.2514 6.95401 76.1094C6.1421 75.9364 5.19609 76.3516 4.6542 77.1181C4.30703 77.6097 4.07374 78.2416 3.98924 78.8952C3.86066 78.4455 3.55757 78.0322 3.14243 77.7845C2.52523 77.4167 1.69127 77.4058 1.01529 77.7554C0.385232 78.0813 -0.107058 78.7113 -0.303607 79.4433C-0.472603 80.0697 -0.432191 80.7543 -0.187882 81.4316C-0.772018 80.9345 -1.38738 80.4557 -2.21032 80.6013C-2.76139 80.6978 -3.21694 81.0347 -3.46125 81.5245C-3.70188 82.0107 -3.69454 82.5696 -3.43737 83.0576C-3.00386 83.8825 -2.11663 84.3977 -0.724259 84.6308C0.23828 84.7929 1.23021 84.802 2.18907 84.8129C2.36725 84.8147 2.54544 84.8165 2.72178 84.8184C2.86322 84.8202 2.98629 84.8238 3.10018 84.8275C3.88638 84.8511 4.67257 84.8675 5.43673 84.8748C5.76553 84.8784 6.0925 84.8803 6.41947 84.8803C7.60795 84.8803 8.78541 84.8602 9.93164 84.8184C10.2145 84.8074 10.5029 84.7929 10.7821 84.7783C11.1936 84.7564 11.6179 84.7346 12.0349 84.7273C12.7384 84.7146 13.3667 84.6854 13.9379 84.4305C14.4321 84.2102 15.0952 83.8333 15.1393 83.1013C15.1687 82.6352 14.9556 82.1399 14.557 81.7412Z" fill="#93A1ED"/>
<path d="M175.852 90.4973C175.224 89.8727 174.371 89.596 173.6 89.7617C174.092 89.2045 174.164 88.3068 173.751 87.6605C173.332 87.0031 172.454 86.6554 171.666 86.832C171.017 86.9776 170.473 87.4092 170.189 87.9773C170.255 87.5148 170.251 86.9485 170.025 86.3968C169.753 85.7249 169.186 85.2242 168.547 85.0876C167.768 84.9219 166.858 85.3189 166.339 86.0563C166.004 86.5297 165.782 87.1342 165.699 87.7624C165.576 87.3309 165.286 86.9321 164.887 86.6954C164.296 86.3422 163.493 86.3313 162.845 86.6663C162.24 86.9795 161.767 87.5858 161.579 88.2868C161.418 88.8895 161.456 89.5468 161.689 90.1969C161.127 89.7198 160.538 89.261 159.748 89.3993C159.219 89.4922 158.78 89.8145 158.546 90.2861C158.315 90.754 158.322 91.2893 158.57 91.7591C158.987 92.5512 159.84 93.0464 161.177 93.2704C162.101 93.4252 163.054 93.4361 163.975 93.4452C164.145 93.447 164.316 93.4488 164.487 93.4507C164.623 93.4525 164.741 93.4561 164.851 93.4579C165.606 93.4816 166.361 93.4962 167.095 93.5035C167.411 93.5071 167.725 93.5071 168.04 93.5071C169.182 93.5071 170.312 93.4871 171.412 93.4488C171.684 93.4397 171.961 93.4252 172.23 93.4106C172.625 93.3906 173.032 93.3687 173.433 93.3633C174.109 93.3523 174.711 93.3214 175.26 93.0774C175.734 92.8662 176.372 92.5038 176.414 91.7992C176.442 91.3549 176.236 90.8815 175.852 90.4973Z" fill="#93A1ED"/>
<path d="M17.3363 43.7242C16.6695 43.0615 15.7639 42.7683 14.9446 42.9431C15.4663 42.3513 15.5434 41.3972 15.1063 40.7126C14.6617 40.0152 13.7286 39.6456 12.891 39.8331C12.204 39.9879 11.6253 40.4468 11.3222 41.0494C11.392 40.5578 11.3884 39.957 11.1496 39.3707C10.8593 38.6587 10.2587 38.1252 9.57901 37.9796C8.75057 37.8029 7.78619 38.2254 7.23328 39.0083C6.87876 39.5109 6.6418 40.1536 6.55547 40.82C6.42505 40.3612 6.11645 39.9387 5.69212 39.6857C5.0639 39.3106 4.21157 39.2978 3.52273 39.6547C2.88165 39.9861 2.37834 40.6307 2.17812 41.3772C2.00729 42.0163 2.0477 42.7155 2.29568 43.4056C1.69869 42.8976 1.0723 42.4114 0.232834 42.5589C-0.329259 42.6572 -0.793997 43.0014 -1.04198 43.5003C-1.28812 43.9955 -1.27894 44.5673 -1.01626 45.0643C-0.573568 45.9056 0.332027 46.43 1.75196 46.6703C2.7347 46.836 3.745 46.8451 4.72223 46.856C4.90409 46.8578 5.0841 46.8597 5.26596 46.8615C5.40924 46.8633 5.53598 46.867 5.65354 46.8706C6.45444 46.8961 7.25716 46.9107 8.03785 46.9198C8.37217 46.9234 8.70648 46.9252 9.0408 46.9252C10.2532 46.9252 11.4545 46.9034 12.6228 46.8633C12.9112 46.8524 13.2051 46.8378 13.4898 46.8233C13.9086 46.8014 14.3421 46.7796 14.7683 46.7723C15.4847 46.7595 16.1276 46.7286 16.7099 46.47C17.2132 46.2461 17.8892 45.8619 17.9351 45.1135C17.9627 44.6346 17.7441 44.1303 17.3363 43.7242Z" fill="#93A1ED"/>
<path d="M37.658 125.601C36.2693 124.217 34.3809 123.607 32.6726 123.971C33.7601 122.739 33.9199 120.749 33.0088 119.319C32.0811 117.864 30.1377 117.094 28.3908 117.486C26.9562 117.808 25.7511 118.764 25.1211 120.022C25.268 118.999 25.257 117.746 24.761 116.522C24.1567 115.037 22.9021 113.926 21.4858 113.624C19.7591 113.256 17.7496 114.137 16.596 115.769C15.8557 116.816 15.3634 118.156 15.1816 119.547C14.9079 118.589 14.265 117.71 13.3814 117.183C12.0699 116.4 10.2936 116.377 8.85711 117.12C7.51984 117.812 6.47097 119.153 6.05399 120.71C5.69579 122.045 5.78213 123.5 6.2983 124.938C5.05471 123.88 3.74867 122.864 1.9981 123.172C0.824314 123.378 -0.143736 124.093 -0.659907 125.133C-1.17424 126.167 -1.15403 127.356 -0.608473 128.396C0.313654 130.149 2.20199 131.244 5.16309 131.743C7.21124 132.087 9.31817 132.109 11.3571 132.129C11.7355 132.132 12.1139 132.136 12.4905 132.141C12.7899 132.145 13.0526 132.152 13.2969 132.16C14.9667 132.211 16.6401 132.245 18.2676 132.26C18.9656 132.267 19.6636 132.269 20.358 132.269C22.8874 132.269 25.3911 132.225 27.8268 132.138C28.4293 132.116 29.0429 132.085 29.6344 132.054C30.5087 132.008 31.4125 131.963 32.2997 131.947C33.795 131.921 35.1322 131.855 36.3483 131.315C37.399 130.847 38.8079 130.046 38.9016 128.487C38.9622 127.5 38.5085 126.449 37.658 125.601Z" fill="#93A1ED"/>
<path d="M32.127 9.9918C30.8889 8.7591 29.2081 8.21468 27.6853 8.53879C28.6552 7.43901 28.7967 5.66736 27.9847 4.39461C27.1581 3.09818 25.4259 2.41174 23.8701 2.76133C22.5916 3.04902 21.517 3.89934 20.9567 5.02097C21.0872 4.10874 21.078 2.99258 20.6353 1.90191C20.0971 0.578174 18.9784 -0.412351 17.7164 -0.680011C16.1789 -1.00776 14.3861 -0.222985 13.3593 1.23185C12.6998 2.16411 12.2608 3.35856 12.0992 4.59672C11.8549 3.74458 11.2818 2.9598 10.4956 2.49185C9.32728 1.79448 7.74387 1.77263 6.46354 2.43541C5.27139 3.05266 4.33824 4.24894 3.96535 5.63458C3.64757 6.82358 3.72288 8.12 4.18394 9.40185C3.07629 8.45867 1.91169 7.55372 0.352155 7.82867C-0.693045 8.01257 -1.55639 8.64986 -2.01562 9.57665C-2.47301 10.498 -2.45647 11.5577 -1.96969 12.4827C-1.14676 14.0449 0.53401 15.0209 3.17181 15.4652C4.99586 15.7729 6.87501 15.7911 8.68987 15.8093C9.02603 15.813 9.36402 15.8166 9.70017 15.8202C9.96653 15.8239 10.2016 15.8293 10.4184 15.8366C11.9063 15.8821 13.396 15.9131 14.8472 15.9258C15.4699 15.9313 16.0908 15.9349 16.7098 15.9349C18.9619 15.9349 21.1937 15.8967 23.3649 15.8184C23.9013 15.7984 24.4487 15.7711 24.9759 15.7438C25.7547 15.7037 26.5593 15.6618 27.351 15.6491C28.6828 15.6254 29.8749 15.5671 30.9587 15.0864C31.8955 14.6695 33.1501 13.9557 33.2346 12.5664C33.2897 11.6833 32.8856 10.7456 32.127 9.9918Z" fill="#93A1ED"/>
<path d="M133.884 73.6659C130.001 69.7985 124.725 68.0924 119.95 69.1103C122.991 65.6635 123.434 60.1027 120.886 56.1096C118.291 52.0438 112.863 49.8879 107.978 50.9877C103.97 51.889 100.6 54.5601 98.8398 58.0743C99.2494 55.2156 99.2219 51.7124 97.8313 48.2929C96.1432 44.1396 92.6366 41.0351 88.6762 40.1921C83.8506 39.1633 78.2315 41.6287 75.0114 46.1862C72.9431 49.1122 71.5636 52.8595 71.0602 56.7433C70.2961 54.0685 68.4978 51.6104 66.0308 50.1392C62.3643 47.9524 57.401 47.8832 53.3855 49.9626C49.6456 51.8981 46.7176 55.649 45.5511 59.9953C44.5519 63.7243 44.7888 67.792 46.2345 71.8105C42.759 68.8535 39.1091 66.0149 34.2156 66.8743C30.9367 67.4497 28.2291 69.4489 26.7853 72.3568C25.3507 75.2482 25.4039 78.5712 26.9322 81.4736C29.5113 86.3752 34.7869 89.4342 43.0603 90.8271C48.7822 91.7903 54.6732 91.8486 60.3713 91.9051C61.4275 91.916 62.4856 91.9269 63.54 91.9415C64.3757 91.9542 65.1123 91.9706 65.7938 91.9906C70.4632 92.1345 75.1363 92.2292 79.6845 92.2729C81.6372 92.2911 83.5861 92.3002 85.5296 92.3002C92.5961 92.3002 99.5966 92.1782 106.406 91.9342C108.09 91.8741 109.802 91.7867 111.459 91.7011C113.902 91.5755 116.428 91.4462 118.91 91.4025C123.089 91.3315 126.827 91.1476 130.225 89.6363C133.162 88.329 137.099 86.0876 137.362 81.7303C137.531 78.9736 136.263 76.033 133.884 73.6659Z" fill="#74C7E5"/>
<path d="M72.7045 66.8726C72.35 66.9127 72.0965 67.2313 72.1369 67.5809C72.2636 68.6752 71.7015 69.8569 70.7665 70.4542C69.8334 71.0514 68.5145 71.0732 67.5612 70.507C66.6078 69.9407 66.0053 68.779 66.0971 67.681C66.1265 67.3296 65.862 67.0201 65.5075 66.991C65.1493 66.96 64.8407 67.224 64.8113 67.5754C64.7507 68.2983 64.894 69.0266 65.1952 69.6839C64.8848 70.1373 64.4807 70.5288 64.0141 70.8165C63.9131 70.8784 63.8818 71.0095 63.9443 71.1096C63.9847 71.1752 64.0545 71.2098 64.128 71.2098C64.1665 71.2098 64.207 71.1989 64.2419 71.177C64.6937 70.8984 65.0942 70.5306 65.4175 70.1082C65.7371 70.6453 66.1724 71.1151 66.6923 71.4702C66.5068 71.8726 66.1982 72.2222 65.8106 72.4407C65.7077 72.4989 65.671 72.6282 65.7298 72.732C65.7683 72.8012 65.8418 72.8394 65.9171 72.8394C65.9539 72.8394 65.9888 72.8303 66.0237 72.8121C66.4755 72.559 66.8374 72.1584 67.0633 71.6941C67.6934 72.031 68.4061 72.2003 69.1207 72.2003C69.9455 72.2003 70.7721 71.9764 71.4682 71.5303C72.8202 70.6654 73.6046 69.0212 73.4209 67.4352C73.3805 67.0838 73.059 66.8325 72.7045 66.8726Z" fill="#231F20"/>
<path d="M100.021 70.8165C99.5541 70.5288 99.1499 70.1373 98.8395 69.6839C99.1408 69.0266 99.284 68.2983 99.2234 67.5773C99.194 67.2258 98.8873 66.9655 98.5272 66.991C98.1727 67.0201 97.9082 67.3278 97.9376 67.681C98.0276 68.779 97.4251 69.9407 96.4736 70.507C95.5202 71.0732 94.2031 71.0514 93.2682 70.4542C92.335 69.8569 91.7711 68.6752 91.8978 67.5809C91.9382 67.2295 91.6847 66.9127 91.3302 66.8726C90.9775 66.8325 90.6561 67.0838 90.6157 67.4352C90.432 69.0193 91.2163 70.6654 92.5683 71.5303C93.2663 71.9764 94.0911 72.2003 94.9159 72.2003C95.6304 72.2003 96.3413 72.031 96.9732 71.6941C97.1991 72.1584 97.561 72.559 98.0129 72.8121C98.046 72.8303 98.0827 72.8394 98.1194 72.8394C98.1948 72.8394 98.2682 72.8012 98.3068 72.732C98.3656 72.63 98.3288 72.4989 98.226 72.4407C97.8384 72.224 97.5298 71.8744 97.3443 71.4702C97.8641 71.1169 98.2995 70.6472 98.6191 70.1082C98.9424 70.5324 99.3428 70.8984 99.7965 71.177C99.8314 71.1989 99.8719 71.2098 99.9104 71.2098C99.9821 71.2098 100.052 71.1734 100.094 71.1096C100.151 71.0113 100.122 70.8802 100.021 70.8165Z" fill="#231F20"/>
<path d="M76.8668 82.0179C76.1872 81.2622 74.9895 81.0073 74.0215 81.4152C73.0222 81.834 72.3958 82.901 72.5648 83.897C72.7503 84.9913 73.8249 85.5848 74.8095 85.6868C74.9234 85.6977 75.0336 85.705 75.1438 85.705C75.9263 85.705 76.6078 85.4101 77.0101 84.8838C77.6365 84.0645 77.574 82.8063 76.8668 82.0179Z" fill="#91D9F2"/>
<path d="M68.112 75.1062C67.0356 74.4707 65.5054 74.4234 64.2931 74.4398C62.9301 74.458 61.4036 74.6419 60.1509 75.2027C59.2067 75.6251 58.6685 76.5501 59.1332 77.5479C59.6531 78.6659 61.0987 79.0118 62.2155 79.1484C64.0378 79.3705 67.9302 79.4907 68.9019 77.5224C69.3501 76.6102 68.9754 75.616 68.112 75.1062Z" fill="#57B6DC"/>
<path d="M106.107 75.1062C105.03 74.4707 103.5 74.4234 102.288 74.4398C100.925 74.458 99.3983 74.6419 98.1455 75.2027C97.2014 75.6251 96.6632 76.5501 97.1279 77.5479C97.6477 78.6659 99.0934 79.0118 100.21 79.1484C102.032 79.3705 105.925 79.4907 106.897 77.5224C107.343 76.6102 106.97 75.616 106.107 75.1062Z" fill="#57B6DC"/>
<path d="M31.0101 69.5492C28.6423 70.5306 27.0956 73.1726 27.4116 75.6962C27.7275 78.2199 29.8785 80.4085 32.4153 80.7854C32.4741 80.7945 32.5329 80.7982 32.5935 80.7982C33.174 80.7982 33.6754 80.3684 33.7618 79.8004C33.8095 79.4908 33.7305 79.1813 33.5432 78.9282C33.3558 78.6769 33.0803 78.5112 32.768 78.4657C31.2434 78.2381 29.9502 76.9235 29.7591 75.4067C29.5699 73.89 30.4994 72.3004 31.9212 71.7123C33.3448 71.1223 35.1376 71.583 36.0928 72.7829C36.2894 73.0287 36.5704 73.1835 36.8827 73.2199C37.1968 73.2563 37.5054 73.1689 37.7534 72.9759C38.0013 72.7811 38.1575 72.5025 38.1961 72.193C38.2346 71.8834 38.1446 71.5757 37.9499 71.3299C36.361 69.3325 33.376 68.5677 31.0101 69.5492Z" fill="#57B6DC"/>
<path d="M55.7643 50.4069C52.5883 50.9513 49.6823 53.2474 48.1779 56.3992C46.8847 59.1104 46.5761 62.4589 47.309 65.8256C47.4266 66.3609 47.9115 66.7506 48.4644 66.7506C48.5489 66.7506 48.6334 66.7415 48.7143 66.7233C49.0229 66.6577 49.2874 66.4756 49.4582 66.2116C49.629 65.9476 49.6878 65.6344 49.6198 65.3285C48.9953 62.4625 49.2414 59.6476 50.3142 57.3989C51.4935 54.9262 53.7364 53.1309 56.1629 52.7139C58.6905 52.2824 61.4165 53.5151 62.5057 55.5835C62.6527 55.8621 62.8988 56.066 63.2001 56.1607C63.5013 56.2554 63.8228 56.2263 64.102 56.0824C64.6806 55.7838 64.9066 55.0737 64.6035 54.5001C63.0384 51.5213 59.3187 49.7988 55.7643 50.4069Z" fill="#57B6DC"/>
<path d="M92.1954 46.239C91.2384 43.2456 87.9448 41.077 84.5355 41.2008C81.5634 41.3065 78.6133 42.9761 76.6405 45.6673C75.0663 47.8159 74.0725 50.5963 73.6886 53.932C73.6151 54.5748 74.0817 55.1574 74.7319 55.2303C74.7779 55.2357 74.822 55.2375 74.866 55.2375C75.4667 55.2375 75.9719 54.7914 76.0398 54.1978C76.3778 51.27 77.2246 48.8628 78.5564 47.0438C80.1031 44.9317 82.3698 43.6225 84.62 43.5442C87.0062 43.4587 89.2931 44.9226 89.9397 46.9455C90.0352 47.2441 90.2428 47.49 90.5238 47.6338C90.8049 47.7776 91.1245 47.805 91.4239 47.7103C92.0466 47.5154 92.392 46.8563 92.1954 46.239Z" fill="#57B6DC"/>
<path d="M120.888 56.1097C123.436 60.1027 122.991 65.6617 119.951 69.1103C121.389 68.8044 122.872 68.7461 124.347 68.9173C130.951 63.768 135.337 55.7783 136.147 47.326C137.044 37.9834 134.27 28.2475 128.906 21.9184C123.439 15.4672 115.974 11.5816 106.718 10.3689C101.329 9.66244 94.938 10.5055 90.4357 12.512C85.9224 14.524 81.8573 18.2075 78.9918 22.8834C76.4807 26.9802 74.7816 31.9019 73.944 37.5082C73.9293 37.6047 73.9825 37.6976 74.0725 37.7358C74.1625 37.774 74.2672 37.7449 74.3279 37.6684C76.275 35.1302 79.6586 33.2511 83.8577 32.3735C87.9595 31.5177 92.1128 31.8327 95.5552 33.2621C99.3392 34.8316 102.385 37.8596 103.706 41.361C105.131 45.1429 104.519 49.5001 102.146 52.4608C102.102 52.5172 102.087 52.5919 102.109 52.6592C102.131 52.7266 102.186 52.7794 102.256 52.7994C102.609 52.8978 102.94 52.9724 103.263 53.0434C104.668 52.082 106.264 51.3701 107.98 50.9841C112.862 49.8898 118.292 52.0438 120.888 56.1097Z" fill="#F5C371"/>
<path d="M108.241 29.7332C108.09 28.9922 107.778 28.3075 107.499 27.7249C107.345 27.4062 106.961 27.2697 106.639 27.4226C106.318 27.5756 106.182 27.9561 106.334 28.2747C106.582 28.7882 106.856 29.3873 106.977 29.9845C107.06 30.396 107.108 30.9987 106.856 31.5358C106.54 32.2114 105.757 32.6811 104.909 32.7048C104.113 32.7285 103.248 32.3771 102.545 31.7434C102.28 31.5049 101.872 31.5249 101.634 31.7853C101.393 32.0475 101.413 32.4517 101.676 32.6884C102.592 33.5151 103.739 33.983 104.837 33.983C104.872 33.983 104.909 33.983 104.944 33.9812C106.27 33.9448 107.508 33.1764 108.026 32.0712C108.34 31.4011 108.414 30.5926 108.241 29.7332Z" fill="#231F20"/>
<path d="M86.8572 22.5228C84.9469 21.8782 82.726 23.8502 83.0218 25.8003C83.1393 26.5687 83.571 27.348 84.1625 27.8578C85.2757 28.8155 87.1126 28.2311 88.0292 27.2842C89.3977 25.8695 88.7217 23.1528 86.8572 22.5228Z" fill="#FFEAA3"/>
<path d="M99.8184 26.5433C99.1333 24.9555 97.4764 24.4093 95.9683 25.1376C95.1141 25.551 94.2985 26.3139 94.1994 27.2953C94.0285 28.9923 95.375 31.0134 97.2835 30.4034C98.7916 29.9191 100.544 28.2221 99.8184 26.5433Z" fill="#FFEAA3"/>
<path d="M107.018 14.1271C106.735 13.9341 106.426 13.7775 106.106 13.6664C104.745 13.193 103.261 13.4643 102.324 14.5805C100.486 16.7728 102.025 20.4727 105.118 19.7953C106.397 19.5149 107.929 18.7392 108.351 17.41C108.768 16.1009 108.077 14.8536 107.018 14.1271Z" fill="#FFEAA3"/>
<path d="M128.142 24.3674C127.89 23.6463 127.266 23.0964 126.553 22.8415C124.867 22.237 123.157 23.3386 122.707 24.9974C122.426 26.0334 122.749 27.2788 123.783 27.796C125.017 28.4132 126.478 27.7395 127.369 26.8327C128.036 26.1572 128.475 25.3215 128.142 24.3674Z" fill="#FFEAA3"/>
<path d="M129.815 34.4966C127.436 34.4147 125.227 36.1791 125.418 38.6463C125.419 38.67 125.425 38.6918 125.43 38.7155C125.43 39.0141 125.493 39.32 125.644 39.6295C126.106 40.5836 127.049 41.3284 128.028 41.7089C130.208 42.561 132.648 41.7544 133.013 39.3036C133.353 37.0258 132.444 34.5859 129.815 34.4966Z" fill="#FFEAA3"/>
<path d="M115.842 43.4183C114.551 43.2563 113.298 44.3943 112.745 45.4595C112.201 46.5064 112.532 47.7883 113.436 48.5275C114.843 49.6801 116.997 49.0137 117.817 47.6299C118.889 46.2479 117.888 43.6732 115.842 43.4183Z" fill="#FFEAA3"/>
<path d="M129.804 52.4098C128.82 50.8585 127.003 50.8658 125.614 51.9382C124.566 52.7485 123.884 54.1724 124.391 55.4634C124.867 56.6778 126.173 57.3352 127.437 57.3643C130.212 57.428 131.094 54.4419 129.804 52.4098Z" fill="#FFEAA3"/>
<path d="M116.43 28.3875C114.136 28.4785 112.582 30.5124 111.419 32.2822C111.12 32.6628 110.901 33.0961 110.855 33.6005C110.776 34.4599 111.239 35.2593 112.051 35.5834C113.873 36.3117 116.125 34.1959 117.062 32.8667C117.868 31.7214 118.871 28.291 116.43 28.3875Z" fill="#FFEAA3"/>
<path d="M98.2942 13.395C98.0958 12.6758 97.181 12.5083 96.6538 12.4737C88.6559 11.9438 81.4185 19.462 78.0809 26.6724C77.5353 27.8523 77.1459 29.0377 76.9273 30.1993L76.9144 30.2649C76.7803 30.9677 76.6297 31.7652 76.5746 32.4735C76.5526 32.7539 76.6113 33.0234 76.7399 33.2328C76.7914 33.3166 76.8538 33.3912 76.9255 33.4513C77.0706 33.5751 77.2304 33.637 77.4049 33.637C77.4527 33.637 77.5004 33.6316 77.55 33.6225C78.1727 33.5041 78.7716 32.652 79.0012 32.2186C79.4567 31.3574 79.78 30.4233 80.0923 29.522C80.2135 29.1724 80.3348 28.8228 80.4633 28.4768C81.852 24.7405 83.9737 21.6943 86.7694 19.4237C89.3007 17.368 92.4308 16.19 95.436 15.2231C95.5352 15.1903 95.6784 15.1539 95.8474 15.1102C96.6006 14.9136 97.8607 14.5822 98.2226 13.9631C98.3236 13.7847 98.3493 13.5935 98.2942 13.395Z" fill="#FFF4D1"/>
<path d="M100.601 11.6598C100.28 11.4741 99.8994 11.4868 99.5596 11.6143C99.3722 11.6853 99.2143 11.78 99.1096 11.9584C98.6999 12.654 99.7084 13.6008 100.405 13.4315C100.744 13.3495 101.022 13.0873 101.104 12.7487C101.213 12.3117 100.98 11.8783 100.601 11.6598Z" fill="#FFF4D1"/>
<path d="M136.225 46.3937C136.245 46.0914 136.263 45.7874 136.276 45.4851C136.115 45.6544 135.979 45.8638 135.885 46.1206C134.366 50.2065 132.029 54.0029 129.035 57.1911C127.746 58.564 126.35 59.8168 124.891 60.9985C125.124 60.8091 124.197 58.6077 124.066 58.2946C123.679 57.3641 123.192 56.4737 122.619 55.6398C121.493 54.0029 120.034 52.5881 118.35 51.5211C114.825 49.287 110.743 48.89 106.807 50.1901C105.76 50.5361 104.808 51.0004 103.941 51.6996C103.48 51.7505 103.023 51.8143 102.571 51.8907C102.437 52.0874 102.293 52.2786 102.145 52.4643C102.101 52.5208 102.086 52.5954 102.108 52.6628C102.13 52.7301 102.185 52.7829 102.255 52.803C102.608 52.9013 102.938 52.976 103.261 53.047C104.667 52.0856 106.263 51.3736 107.979 50.9876C112.863 49.8897 118.291 52.0437 120.887 56.1096C123.021 59.4544 123.054 63.899 121.221 67.2821C121.221 67.2821 121.221 67.2839 121.219 67.2839C121.151 67.4078 121.081 67.5298 121.01 67.6518C121.004 67.659 121 67.6681 120.995 67.6754C120.927 67.7883 120.857 67.8976 120.786 68.0068C120.775 68.0232 120.765 68.0396 120.754 68.0542C120.688 68.1543 120.618 68.2544 120.547 68.3528C120.53 68.3746 120.516 68.3983 120.499 68.4201C120.431 68.5148 120.359 68.6059 120.288 68.6969C120.268 68.7224 120.249 68.7479 120.231 68.7716C120.139 68.8863 120.045 68.9992 119.948 69.1084C121.386 68.8025 122.869 68.7442 124.344 68.9154C130.947 63.7661 135.334 55.7764 136.144 47.3241C136.173 47.0182 136.199 46.7123 136.219 46.4064C136.225 46.4028 136.225 46.3973 136.225 46.3937Z" fill="#EBCE72"/>
<path d="M38.8481 40.7765C38.7232 40.558 38.4421 40.4815 38.2217 40.6054L32.5328 43.8064L36.4289 36.6378C36.5189 36.4703 36.4969 36.2663 36.3701 36.1225C36.2452 35.9805 36.0431 35.9295 35.8631 35.995C33.2804 36.9528 30.7969 38.191 28.4843 39.6767C28.2712 39.8133 28.2106 40.0955 28.3483 40.3067C28.4861 40.518 28.7708 40.578 28.9839 40.4415C30.8943 39.2161 32.9222 38.1618 35.0255 37.3006L30.9659 44.7677C30.8686 44.9462 30.9035 45.1665 31.0486 45.3085C31.1368 45.3941 31.2525 45.4378 31.3701 45.4378C31.4472 45.4378 31.5262 45.4178 31.596 45.3777L38.6736 41.3938C38.8959 41.2718 38.973 40.995 38.8481 40.7765Z" fill="#F7E9BC"/>
<path d="M44.0411 53.0888C43.9419 52.8575 43.6719 52.7501 43.4386 52.8484C42.2428 53.3528 41.0047 53.7734 39.7446 54.1048C40.8559 52.406 41.7707 50.5851 42.4724 48.6824C42.5312 48.5222 42.4944 48.3419 42.3787 48.2163C42.2611 48.0906 42.0829 48.0415 41.9176 48.087C39.785 48.6806 37.746 49.5619 35.8558 50.7071C35.6391 50.8382 35.5711 51.1187 35.7034 51.3335C35.8356 51.5484 36.1185 51.6157 36.3353 51.4846C37.8875 50.5433 39.5462 49.7876 41.2765 49.2305C40.505 51.1132 39.515 52.9012 38.3246 54.5582C38.2144 54.7111 38.2107 54.9169 38.3155 55.0735C38.4018 55.2027 38.5469 55.2774 38.6994 55.2774C38.7324 55.2774 38.7655 55.2738 38.7967 55.2665C40.5069 54.8968 42.1895 54.3633 43.8005 53.6842C44.0319 53.5877 44.1403 53.32 44.0411 53.0888Z" fill="#F7E9BC"/>
<path d="M33.9326 30.1336C33.8187 29.9097 33.5413 29.8186 33.3154 29.9315L23.9398 34.6219C25.6977 30.9821 27.8157 27.5062 30.2496 24.2742C30.3671 24.1176 30.3708 23.9028 30.2587 23.7426C30.1467 23.5823 29.9428 23.5095 29.7536 23.5641C26.5941 24.4727 23.633 25.8911 20.953 27.783C20.7472 27.9286 20.6976 28.2127 20.8446 28.4184C20.9915 28.6223 21.2781 28.6715 21.4857 28.5258C23.7028 26.9599 26.1202 25.7272 28.6864 24.8533C26.302 28.1708 24.2392 31.7232 22.5456 35.4304C22.4647 35.607 22.5052 35.8128 22.6466 35.9475C22.7348 36.0313 22.8487 36.075 22.9644 36.075C23.0342 36.075 23.1058 36.0586 23.172 36.0258L33.7305 30.7436C33.9546 30.6325 34.0465 30.3576 33.9326 30.1336Z" fill="#F7E9BC"/>
<path d="M49.2139 40.1047C48.4148 40.1047 48.413 41.3356 49.2139 41.3356C50.0129 41.3356 50.0148 40.1047 49.2139 40.1047Z" fill="#ADB9D1"/>
<path d="M51.9696 24.7461C51.4406 24.7461 51.4406 25.56 51.9696 25.56C52.4986 25.56 52.4986 24.7461 51.9696 24.7461Z" fill="#ADB9D1"/>
<path d="M70.7039 11.8657C69.4089 11.8657 69.407 13.8613 70.7039 13.8613C71.9989 13.8613 72.0026 11.8657 70.7039 11.8657Z" fill="#ADB9D1"/>
<path d="M51.6944 13.2659C51.5066 13.2659 51.5066 13.5536 51.6944 13.5536C51.8822 13.5536 51.8822 13.2659 51.6944 13.2659Z" fill="#ADB9D1"/>
<path d="M7.6102 30.9822C7.37635 30.9822 7.37635 31.3409 7.6102 31.3409C7.84405 31.3409 7.84405 30.9822 7.6102 30.9822Z" fill="#ADB9D1"/>
<path d="M20.0092 37.6975H19.7336C19.4342 37.6975 19.1495 37.9579 19.1623 38.2638C19.177 38.5697 19.414 38.8301 19.7336 38.8301H20.0092C20.3086 38.8301 20.5933 38.5697 20.5804 38.2638C20.5657 37.9561 20.3288 37.6975 20.0092 37.6975Z" fill="#ADB9D1"/>
<path d="M7.05889 62.7739C5.90715 62.7739 5.90531 64.5492 7.05889 64.5492C8.21063 64.5492 8.21247 62.7739 7.05889 62.7739Z" fill="#ADB9D1"/>
<path d="M20.2846 70.5159C19.2541 70.5159 19.2523 72.1036 20.2846 72.1036C21.3151 72.1018 21.317 70.5159 20.2846 70.5159Z" fill="#ADB9D1"/>
<path d="M21.387 77.6973C21.1716 77.6973 21.1697 78.0287 21.387 78.0287C21.6024 78.0287 21.6024 77.6973 21.387 77.6973Z" fill="#ADB9D1"/>
<path d="M6.48735 99.4961C6.10895 99.4961 6.10895 100.079 6.48735 100.079C6.86576 100.079 6.86576 99.4961 6.48735 99.4961Z" fill="#ADB9D1"/>
<path d="M21.3667 103.993C20.2095 103.993 20.2076 105.776 21.3667 105.776C22.524 105.778 22.5258 103.993 21.3667 103.993Z" fill="#ADB9D1"/>
<path d="M40.2866 105.867C39.6694 105.867 39.6694 106.818 40.2866 106.818C40.9038 106.818 40.9038 105.867 40.2866 105.867Z" fill="#ADB9D1"/>
<path d="M57.3571 110.532C57.3479 110.346 57.2873 110.155 57.1459 110.026C57.0963 109.989 57.0485 109.951 56.9989 109.915C56.8869 109.849 56.7656 109.818 56.6352 109.817C56.4332 109.791 56.2072 109.908 56.0695 110.048C55.9243 110.195 55.8435 110.397 55.8435 110.605C55.8417 111.02 56.1889 111.422 56.6297 111.397C56.8207 111.386 57.0008 111.324 57.1404 111.188C57.2653 111.064 57.359 110.86 57.3516 110.681C57.3516 110.669 57.3479 110.656 57.3479 110.645C57.3535 110.605 57.359 110.569 57.3571 110.532Z" fill="#ADB9D1"/>
<path d="M8.32464 112.185C7.40068 112.185 7.39884 113.609 8.32464 113.609C9.24861 113.609 9.25045 112.185 8.32464 112.185Z" fill="#ADB9D1"/>
<path d="M114.498 113.64C114.106 113.658 113.777 113.953 113.777 114.354V114.536C113.777 114.909 114.108 115.268 114.498 115.25C114.889 115.231 115.218 114.936 115.218 114.536V114.354C115.218 113.981 114.887 113.622 114.498 113.64Z" fill="#ADB9D1"/>
<path d="M125.52 115.55H125.336C125.234 115.55 125.234 115.707 125.336 115.707H125.52C125.621 115.707 125.621 115.55 125.52 115.55Z" fill="#ADB9D1"/>
<path d="M170.891 121.184C169.592 121.184 169.59 123.183 170.891 123.183C172.189 123.183 172.191 121.184 170.891 121.184Z" fill="#ADB9D1"/>
<path d="M170.34 107.074C169.399 107.074 169.397 108.524 170.34 108.524C171.28 108.524 171.282 107.074 170.34 107.074Z" fill="#ADB9D1"/>
<path d="M133.418 110.829C132.859 110.829 132.858 111.69 133.418 111.69C133.976 111.688 133.978 110.829 133.418 110.829Z" fill="#ADB9D1"/>
<path d="M129.823 102.805C129.762 102.745 129.7 102.683 129.639 102.623C129.478 102.462 129.237 102.364 129.009 102.364C128.791 102.364 128.53 102.461 128.379 102.623C128.223 102.79 128.107 103.012 128.118 103.247C128.129 103.482 128.208 103.702 128.379 103.872L128.563 104.054C128.724 104.214 128.965 104.312 129.193 104.312C129.411 104.312 129.672 104.216 129.823 104.054C129.979 103.886 130.095 103.664 130.084 103.429C130.073 103.194 129.994 102.974 129.823 102.805Z" fill="#ADB9D1"/>
<path d="M162.073 101.031C161.561 101.031 161.561 101.82 162.073 101.82C162.586 101.821 162.586 101.031 162.073 101.031Z" fill="#ADB9D1"/>
<path d="M149.766 89.4541C149.353 89.4541 149.353 90.0914 149.766 90.0914C150.18 90.0914 150.18 89.4541 149.766 89.4541Z" fill="#ADB9D1"/>
<path d="M140.031 78.7988H139.847C139.785 78.7988 139.785 78.8953 139.847 78.8953H140.031C140.094 78.8971 140.094 78.7988 140.031 78.7988Z" fill="#ADB9D1"/>
<path d="M142.646 67.3331C142.481 67.1838 142.279 67.0891 142.051 67.0891H141.867C141.652 67.0891 141.425 67.182 141.272 67.3331C141.127 67.4769 141.017 67.7155 141.026 67.923C141.035 68.1379 141.107 68.3619 141.272 68.513C141.438 68.6623 141.64 68.757 141.867 68.757H142.051C142.266 68.757 142.494 68.6641 142.646 68.513C142.791 68.3691 142.902 68.1306 142.892 67.923C142.881 67.7082 142.81 67.4842 142.646 67.3331Z" fill="#ADB9D1"/>
<path d="M145.099 53.9027V54.0848C145.099 54.1813 145.251 54.1813 145.251 54.0848V53.9027C145.249 53.8062 145.099 53.8062 145.099 53.9027Z" fill="#ADB9D1"/>
<path d="M158.767 80.4104H158.654C157.845 80.4104 157.843 81.6558 158.654 81.6558H158.767C159.576 81.6558 159.577 80.4104 158.767 80.4104Z" fill="#ADB9D1"/>
<path d="M151.971 62.9321C150.692 62.9321 150.688 64.9023 151.971 64.9023C153.249 64.9023 153.253 62.9321 151.971 62.9321Z" fill="#ADB9D1"/>
<path d="M167.768 54.5803C167.228 54.5803 167.228 55.4124 167.768 55.4124C168.308 55.4106 168.308 54.5803 167.768 54.5803Z" fill="#ADB9D1"/>
<path d="M141.132 42.2644H140.949C140.717 42.2644 140.475 42.3645 140.31 42.5266C140.153 42.6814 140.036 42.9363 140.045 43.1602C140.067 43.6446 140.442 44.0561 140.949 44.0561H141.132C141.364 44.0561 141.606 43.9559 141.772 43.7939C141.928 43.6391 142.045 43.3842 142.036 43.1602C142.014 42.6759 141.639 42.2644 141.132 42.2644Z" fill="#ADB9D1"/>
<path d="M161.339 31.1445H160.971C160.589 31.1445 160.222 31.4777 160.238 31.871C160.257 32.2643 160.56 32.5975 160.971 32.5975H161.339C161.721 32.5975 162.088 32.2643 162.072 31.871C162.053 31.4777 161.748 31.1445 161.339 31.1445Z" fill="#ADB9D1"/>
<path d="M172.36 34.4238C171.185 34.4238 171.183 36.2355 172.36 36.2355C173.536 36.2374 173.538 34.4238 172.36 34.4238Z" fill="#ADB9D1"/>
<path d="M172.728 25.8059C172.417 25.8059 172.417 26.283 172.728 26.283C173.038 26.283 173.038 25.8059 172.728 25.8059Z" fill="#ADB9D1"/>
<path d="M166.436 2.96542C166.267 2.79791 165.99 2.67227 165.747 2.68137C165.496 2.6923 165.233 2.77424 165.058 2.96542C164.884 3.15479 164.772 3.38785 164.772 3.64823V3.83031C164.772 4.07794 164.88 4.33832 165.058 4.51312C165.227 4.68063 165.505 4.80627 165.747 4.79717C165.999 4.78624 166.262 4.7043 166.436 4.51312C166.611 4.32375 166.723 4.09069 166.723 3.83031V3.64823C166.723 3.4006 166.614 3.14022 166.436 2.96542Z" fill="#ADB9D1"/>
<path d="M154.289 0.217773H154.175C152.795 0.217773 152.792 2.34449 154.175 2.34449H154.289C155.668 2.34449 155.672 0.217773 154.289 0.217773Z" fill="#ADB9D1"/>
<path d="M127.724 8.62988C126.392 8.62988 126.388 10.6819 127.724 10.6819C129.056 10.6838 129.059 8.62988 127.724 8.62988Z" fill="#ADB9D1"/>
<path d="M105.864 1.61987C105.122 1.61987 105.12 2.76335 105.864 2.76335C106.606 2.76335 106.608 1.61987 105.864 1.61987Z" fill="#ADB9D1"/>
<path d="M75.7391 0.625732C74.6517 0.625732 74.6498 2.30089 75.7391 2.30089C76.8266 2.30089 76.8284 0.625732 75.7391 0.625732Z" fill="#ADB9D1"/>
<path d="M65.0848 39.5566C64.6605 39.5566 64.6605 40.2085 65.0848 40.2085C65.5092 40.2085 65.5092 39.5566 65.0848 39.5566Z" fill="#ADB9D1"/>
<path d="M37.0906 22.6921C37.0851 22.6921 37.0851 22.6994 37.0906 22.6994C37.096 22.6994 37.096 22.6921 37.0906 22.6921Z" fill="#515763"/>
<path d="M58.3104 2.20779L58.0349 1.93467C57.8879 1.78901 57.6198 1.77808 57.4746 1.93467C57.3295 2.09126 57.3185 2.33525 57.4746 2.49002C57.5665 2.58106 57.6583 2.6721 57.7502 2.76314C57.8971 2.90881 58.1653 2.91973 58.3104 2.76314C58.4555 2.60655 58.4684 2.36256 58.3104 2.20779Z" fill="#515763"/>
<path d="M2.65053 21.0823H2.37499C2.09946 21.0823 1.83678 21.3226 1.84964 21.603C1.86249 21.8853 2.08109 22.1238 2.37499 22.1238H2.65053C2.92606 22.1238 3.18874 21.8834 3.17588 21.603C3.16302 21.3208 2.94627 21.0823 2.65053 21.0823Z" fill="#515763"/>
<path d="M14.2227 52.5496C13.2712 52.5496 13.2694 54.0171 14.2227 54.0171C15.1743 54.0171 15.1761 52.5496 14.2227 52.5496Z" fill="#515763"/>
<path d="M0.501119 89.3757H0.425805C-0.560613 89.3757 -0.56245 90.8961 0.425805 90.8961H0.501119C1.48937 90.8979 1.49121 89.3757 0.501119 89.3757Z" fill="#515763"/>
<path d="M46.532 121.094H46.3483C46.1573 121.094 45.9754 121.26 45.9846 121.455C45.9938 121.652 46.1444 121.816 46.3483 121.816H46.532C46.723 121.816 46.9049 121.65 46.8957 121.455C46.8884 121.258 46.7359 121.094 46.532 121.094Z" fill="#515763"/>
<path d="M145.174 118.516C145.141 118.516 145.141 118.564 145.174 118.564C145.208 118.566 145.208 118.516 145.174 118.516Z" fill="#515763"/>
<path d="M158.4 110.259C157.575 110.259 157.573 111.528 158.4 111.528C159.224 111.53 159.226 110.259 158.4 110.259Z" fill="#515763"/>
<path d="M173.646 78.6147C172.869 78.6147 172.869 79.811 173.646 79.811C174.423 79.8092 174.423 78.6147 173.646 78.6147Z" fill="#515763"/>
<path d="M158.216 53.635C157.871 53.6496 157.579 53.9118 157.579 54.2668V54.4489C157.579 54.7785 157.871 55.0953 158.216 55.0808C158.561 55.0662 158.853 54.804 158.853 54.4489V54.2668C158.853 53.9373 158.559 53.6204 158.216 53.635Z" fill="#515763"/>
<path d="M140.582 24.3872C140.322 24.3872 140.322 24.786 140.582 24.786C140.842 24.7878 140.842 24.3872 140.582 24.3872Z" fill="#515763"/>
<path d="M174.381 7.25513C174.336 7.25513 174.336 7.32214 174.381 7.32214C174.426 7.32396 174.426 7.25513 174.381 7.25513Z" fill="#515763"/>
<path d="M111.926 7.09863C111.914 7.09863 111.914 7.11777 111.926 7.11777C111.938 7.11603 111.938 7.09863 111.926 7.09863Z" fill="#515763"/>
<path d="M98.7005 5.91674C98.3479 5.93312 98.0503 6.19896 98.0503 6.5613V6.74339C98.0503 7.08024 98.3497 7.40252 98.7005 7.38796C99.0532 7.37157 99.3508 7.10573 99.3508 6.74339V6.5613C99.3508 6.22445 99.0514 5.90217 98.7005 5.91674Z" fill="#515763"/>
<path d="M66.5728 25.0173C65.3311 25.0173 65.3292 26.9292 66.5728 26.9292C67.8127 26.9292 67.8164 25.0173 66.5728 25.0173Z" fill="#F2E3B5"/>
<path d="M39.2064 21.9637C39.0246 21.7835 38.7288 21.6487 38.468 21.6615C38.198 21.6742 37.9187 21.7616 37.7295 21.9637C37.5422 22.1658 37.4246 22.4153 37.4246 22.6957V22.9688C37.4246 23.2347 37.5403 23.5133 37.7295 23.7008C37.9114 23.8811 38.2071 24.0158 38.468 24.003C38.738 23.9903 39.0172 23.9029 39.2064 23.7008C39.3938 23.4987 39.5113 23.2492 39.5113 22.9688V22.6957C39.5113 22.4299 39.3956 22.1513 39.2064 21.9637Z" fill="#F2E3B5"/>
<path d="M39.0195 7.77783C38.8003 7.77783 38.7985 8.1165 39.0195 8.1165C39.2404 8.1165 39.2404 7.77783 39.0195 7.77783Z" fill="#F2E3B5"/>
<path d="M19.1823 19.522H18.9068C18.6735 19.522 18.4512 19.7259 18.4622 19.9626C18.4733 20.2011 18.6588 20.4051 18.9068 20.4051H19.1823C19.4156 20.4051 19.6379 20.2011 19.6268 19.9626C19.6158 19.7259 19.4321 19.522 19.1823 19.522Z" fill="#F2E3B5"/>
<path d="M0.721605 53.7864C-0.0443851 53.7864 -0.0462219 54.9663 0.721605 54.9663C1.48759 54.9663 1.48943 53.7864 0.721605 53.7864Z" fill="#F2E3B5"/>
<path d="M26.8975 55.0715H26.622C26.4126 55.0715 26.2105 55.2536 26.2216 55.4685C26.2307 55.6833 26.3979 55.8654 26.622 55.8654H26.8975C27.107 55.8654 27.309 55.6833 27.298 55.4685C27.2888 55.2536 27.1216 55.0715 26.8975 55.0715Z" fill="#F2E3B5"/>
<path d="M24.1418 86.8394C23.385 86.8394 23.3832 88.0047 24.1418 88.0047C24.8986 88.0047 24.9005 86.8394 24.1418 86.8394Z" fill="#F2E3B5"/>
<path d="M13.947 91.7849C13.2288 91.7849 13.2269 92.892 13.947 92.892C14.6652 92.892 14.6671 91.7849 13.947 91.7849Z" fill="#F2E3B5"/>
<path d="M1.65647 107.04C1.58483 106.823 1.4489 106.606 1.23765 106.499C1.08335 106.42 0.921706 106.359 0.745363 106.366C0.504729 106.377 0.253072 106.461 0.0840768 106.639C-0.105124 106.839 -0.195133 107.076 -0.204317 107.345C-0.213502 107.595 -0.0996133 107.883 0.0859141 108.052C0.412883 108.349 0.850067 108.4 1.23949 108.192C1.43788 108.086 1.59952 107.863 1.6583 107.651C1.68218 107.566 1.68769 107.469 1.68402 107.373C1.69688 107.26 1.69137 107.147 1.65647 107.04Z" fill="#F2E3B5"/>
<path d="M35.878 93.6895C35.2883 93.6895 35.2883 94.5962 35.878 94.5962C36.4676 94.5962 36.4676 93.6895 35.878 93.6895Z" fill="#F2E3B5"/>
<path d="M131.581 119.944C130.565 119.944 130.563 121.508 131.581 121.508C132.597 121.51 132.598 119.944 131.581 119.944Z" fill="#F2E3B5"/>
<path d="M145.253 120.102C145.192 120.042 145.13 119.98 145.069 119.92C144.908 119.76 144.669 119.662 144.439 119.662C144.221 119.662 143.96 119.758 143.809 119.92C143.653 120.088 143.537 120.31 143.548 120.545C143.559 120.778 143.638 121 143.809 121.169C143.87 121.229 143.932 121.291 143.993 121.351C144.155 121.512 144.393 121.61 144.623 121.61C144.842 121.61 145.102 121.513 145.253 121.351C145.409 121.184 145.525 120.962 145.514 120.727C145.503 120.494 145.422 120.272 145.253 120.102Z" fill="#F2E3B5"/>
<path d="M157.298 119.044C156.767 119.044 156.767 119.862 157.298 119.862C157.828 119.86 157.828 119.044 157.298 119.044Z" fill="#F2E3B5"/>
<path d="M148.297 101.635C148.113 101.643 147.957 101.783 147.957 101.972V102.154C147.957 102.331 148.113 102.499 148.297 102.491C148.48 102.484 148.637 102.344 148.637 102.154V101.972C148.637 101.796 148.48 101.628 148.297 101.635Z" fill="#F2E3B5"/>
<path d="M137.826 93.3999C137.099 93.3999 137.097 94.5197 137.826 94.5197C138.554 94.5215 138.555 93.3999 137.826 93.3999Z" fill="#F2E3B5"/>
<path d="M175.85 95.9727C175.152 95.9727 175.152 97.0469 175.85 97.0469C176.548 97.0469 176.548 95.9727 175.85 95.9727Z" fill="#F2E3B5"/>
<path d="M148.19 78.2253C148.129 78.1652 148.067 78.1033 148.006 78.0432C147.87 77.9084 147.62 77.8975 147.486 78.0432C147.352 78.1888 147.341 78.4146 147.486 78.5585L147.67 78.7406C147.806 78.8753 148.056 78.8862 148.19 78.7406C148.324 78.5967 148.335 78.3709 148.19 78.2253Z" fill="#F2E3B5"/>
<path d="M162.808 69.6582C162.461 69.6582 162.459 70.1935 162.808 70.1935C163.155 70.1935 163.157 69.6582 162.808 69.6582Z" fill="#F2E3B5"/>
<path d="M170.34 64.8403C170.048 64.853 169.802 65.0752 169.802 65.3738V65.5559C169.802 65.8344 170.05 66.1021 170.34 66.0893C170.632 66.0766 170.878 65.8545 170.878 65.5559V65.3738C170.878 65.0952 170.63 64.8275 170.34 64.8403Z" fill="#F2E3B5"/>
<path d="M148.113 35.7492C147.92 35.7583 147.755 35.904 147.755 36.1043V36.1953C147.755 36.3811 147.918 36.5577 148.113 36.5504C148.306 36.5413 148.471 36.3956 148.471 36.1953V36.1043C148.471 35.9186 148.306 35.742 148.113 35.7492Z" fill="#F2E3B5"/>
<path d="M137.643 31.8691C137.402 31.8691 137.402 32.2388 137.643 32.2388C137.884 32.2369 137.884 31.8691 137.643 31.8691Z" fill="#F2E3B5"/>
<path d="M172.176 15.7583H171.993C171.754 15.7583 171.522 15.9677 171.535 16.2117C171.546 16.4575 171.737 16.6651 171.993 16.6651H172.176C172.415 16.6651 172.647 16.4557 172.634 16.2117C172.623 15.9659 172.433 15.7583 172.176 15.7583Z" fill="#F2E3B5"/>
<path d="M175.115 9.33276C173.986 9.33276 173.984 11.0735 175.115 11.0735C176.245 11.0735 176.247 9.33276 175.115 9.33276Z" fill="#F2E3B5"/>
<path d="M135.543 0.745817C135.495 0.702117 135.436 0.674805 135.37 0.674805H135.324C135.262 0.674805 135.196 0.702117 135.152 0.745817C135.109 0.787695 135.076 0.856887 135.08 0.916974C135.084 0.980702 135.104 1.04443 135.152 1.08813C135.199 1.13183 135.258 1.15914 135.324 1.15914H135.37C135.433 1.15914 135.499 1.13183 135.543 1.08813C135.585 1.04625 135.618 0.977061 135.615 0.916974C135.611 0.853245 135.591 0.789516 135.543 0.745817Z" fill="#F2E3B5"/>
<path d="M121.11 -1.1626C120.067 -1.1626 120.065 0.445184 121.11 0.445184C122.154 0.447005 122.156 -1.1626 121.11 -1.1626Z" fill="#F2E3B5"/>
<path d="M111.008 7.41528C109.988 7.41528 109.986 8.98483 111.008 8.98483C112.027 8.98483 112.029 7.41528 111.008 7.41528Z" fill="#F2E3B5"/>
<path d="M88.0464 7.63379C87.7831 7.63379 87.7812 8.03983 88.0464 8.03983C88.3097 8.03801 88.3115 7.63379 88.0464 7.63379Z" fill="#F2E3B5"/>
<path d="M66.7379 42.1838C66.6534 42.1838 66.6534 42.3124 66.7379 42.3124C66.8224 42.3143 66.8224 42.1838 66.7379 42.1838Z" fill="#F2E3B5"/>
</svg>
