<svg width="415" height="291" viewBox="0 0 415 291" fill="none" xmlns="http://www.w3.org/2000/svg">
<path d="M394.789 -8.76624H5.13916C-5.90653 -8.76624 -14.8608 0.188059 -14.8608 11.2338V400.883C-14.8608 411.929 -5.90655 420.883 5.13915 420.883H394.789C405.834 420.883 414.789 411.929 414.789 400.883V11.2338C414.789 0.18807 405.834 -8.76624 394.789 -8.76624Z" fill="#4C53B4"/>
<path d="M352.162 242.381C388.01 168.263 348.927 75.2197 264.866 34.5619C180.805 -6.09586 83.599 21.0286 47.7505 95.1461C11.9021 169.264 50.986 262.307 135.047 302.965C219.108 343.623 316.314 316.498 352.162 242.381Z" fill="#5F65BF"/>
<path d="M389.344 37.799C389.118 37.5709 388.885 37.3526 388.646 37.1443C386.07 34.8957 381.258 27.179 379.428 24.2908C377.447 21.163 373.306 19.5045 369.581 20.3509C369.093 20.4612 368.619 20.6063 368.159 20.7831C366.854 21.2853 362.365 19.5726 361.843 18.2757C360.554 15.0792 357.881 12.6903 354.861 12.0415C351.179 11.251 346.895 13.1457 344.437 16.656C344.019 17.2528 343.638 17.894 343.297 18.5699C342.642 19.8653 338.832 20.4472 337.589 19.6979C334.792 18.0137 331.007 17.9621 327.943 19.5604C325.09 21.0513 322.856 23.9342 321.967 27.2812C321.322 29.7162 316.886 32.3609 314.369 32.4601C314.027 32.4736 313.677 32.5109 313.318 32.5745C310.817 33.017 308.751 34.5552 307.651 36.7936C306.555 39.0192 306.598 41.5756 307.763 43.8098C309.73 47.5821 313.756 49.9366 320.063 51.0064C324.429 51.7454 328.923 51.7927 333.267 51.8357C334.074 51.8443 334.878 51.8529 335.685 51.8657C336.321 51.8743 336.884 51.8872 337.404 51.9044C340.966 52.0161 344.532 52.0892 347.999 52.1192C349.49 52.1321 350.972 52.1407 352.459 52.1407C357.851 52.1407 363.187 52.0462 368.382 51.8614C369.666 51.8142 370.973 51.7454 372.236 51.681C374.1 51.5822 376.025 51.4834 377.92 51.4533C381.108 51.3974 383.957 51.2556 386.552 50.0956C388.794 49.0902 391.793 47.3673 391.995 44.0117C392.124 41.885 391.158 39.6207 389.344 37.799Z" fill="#93A1ED"/>
<path d="M409.912 105.671C409.755 105.514 409.594 105.363 409.429 105.219C407.641 103.66 404.31 98.3175 403.042 96.3135C401.671 94.1481 398.801 92.9966 396.223 93.5809C395.886 93.6576 395.557 93.7581 395.239 93.8805C394.328 94.2312 391.226 93.0477 390.861 92.1416C389.972 89.9289 388.116 88.2748 386.023 87.8236C383.476 87.2737 380.507 88.5884 378.805 91.0202C378.515 91.4346 378.251 91.8798 378.014 92.3492C377.561 93.2462 374.923 93.6473 374.062 93.1298C372.124 91.9654 369.503 91.9268 367.381 93.0353C365.405 94.0664 363.858 96.0643 363.243 98.3844C362.796 100.068 359.72 101.904 357.979 101.974C357.743 101.984 357.502 102.01 357.254 102.054C355.523 102.359 354.092 103.424 353.327 104.975C352.571 106.518 352.597 108.288 353.404 109.835C354.766 112.447 357.555 114.079 361.924 114.818C364.949 115.33 368.06 115.364 371.072 115.394C371.63 115.399 372.189 115.407 372.747 115.416C373.19 115.424 373.576 115.433 373.937 115.441C376.404 115.519 378.874 115.57 381.276 115.592C382.307 115.6 383.338 115.605 384.365 115.605C388.099 115.605 391.798 115.54 395.394 115.411C396.283 115.381 397.19 115.334 398.062 115.287C399.351 115.218 400.687 115.149 401.998 115.128C404.206 115.089 406.178 114.99 407.974 114.187C409.525 113.491 411.605 112.296 411.746 109.972C411.837 108.498 411.166 106.93 409.912 105.671Z" fill="#93A1ED"/>
<path d="M33.23 192.693C33.1132 192.575 32.9932 192.463 32.8703 192.356C31.5409 191.198 29.0587 187.215 28.1171 185.724C27.0946 184.108 24.9592 183.253 23.0387 183.691C22.7868 183.748 22.5413 183.823 22.3038 183.915C21.6338 184.173 19.3149 183.288 19.0472 182.622C18.3813 180.972 17.0021 179.739 15.4468 179.404C13.5477 178.995 11.335 179.975 10.0676 181.784C9.8518 182.092 9.65485 182.424 9.47824 182.773C9.1408 183.441 7.17287 183.742 6.53154 183.356C5.08792 182.488 3.13731 182.463 1.5562 183.288C0.0825052 184.057 -1.06895 185.543 -1.52868 187.27C-1.86389 188.524 -4.15203 189.891 -5.44843 189.944C-5.62422 189.951 -5.8041 189.97 -5.98844 190.003C-7.27739 190.231 -8.34292 191.026 -8.91435 192.181C-9.47719 193.328 -9.46001 194.648 -8.8585 195.799C-7.84453 197.745 -5.76932 198.961 -2.51258 199.511C-0.261214 199.894 2.05889 199.915 4.30166 199.941C4.71842 199.945 5.13518 199.949 5.54765 199.954C5.87848 199.958 6.16634 199.967 6.43273 199.975C8.27163 200.031 10.1105 200.07 11.8979 200.087C12.6669 200.095 13.4317 200.1 14.1965 200.1C16.9763 200.1 19.7304 200.053 22.4114 199.954C23.073 199.928 23.7476 199.894 24.4007 199.859C25.3631 199.808 26.3556 199.756 27.3309 199.739C28.9764 199.709 30.4458 199.64 31.782 199.039C32.9378 198.519 34.4888 197.629 34.5919 195.902C34.6607 194.802 34.1623 193.634 33.23 192.693Z" fill="#93A1ED"/>
<path d="M410.497 213.354C410.385 213.242 410.27 213.134 410.152 213.032C408.878 211.92 406.487 208.088 405.581 206.66C404.602 205.109 402.548 204.288 400.705 204.705C400.463 204.76 400.227 204.832 399.999 204.92C399.35 205.169 397.13 204.322 396.868 203.678C396.232 202.093 394.905 200.911 393.409 200.589C391.588 200.198 389.461 201.134 388.245 202.875C388.038 203.171 387.848 203.489 387.679 203.825C387.354 204.468 385.469 204.753 384.851 204.383C383.467 203.549 381.59 203.523 380.073 204.314C378.66 205.053 377.551 206.484 377.113 208.138C376.791 209.347 374.596 210.657 373.345 210.707C373.177 210.714 373.005 210.732 372.829 210.763C371.592 210.982 370.565 211.743 370.019 212.855C369.478 213.96 369.495 215.223 370.075 216.331C371.051 218.2 373.044 219.369 376.172 219.897C378.333 220.263 380.563 220.288 382.716 220.31C383.115 220.314 383.515 220.318 383.914 220.323C384.232 220.327 384.507 220.336 384.765 220.34C386.531 220.396 388.297 220.43 390.015 220.447C390.754 220.456 391.489 220.456 392.224 220.456C394.896 220.456 397.538 220.409 400.112 220.318C400.748 220.297 401.397 220.263 402.024 220.228C402.948 220.181 403.902 220.129 404.838 220.116C406.419 220.091 407.829 220.018 409.113 219.442C410.222 218.944 411.713 218.089 411.811 216.426C411.876 215.377 411.395 214.26 410.497 213.354Z" fill="#93A1ED"/>
<path d="M39.731 102.986C39.6115 102.866 39.4887 102.751 39.363 102.641C38.0061 101.46 35.4774 97.3995 34.5151 95.8792C33.4753 94.2336 31.2927 93.3615 29.3335 93.804C29.0768 93.8623 28.8266 93.939 28.5845 94.0324C27.8911 94.2999 25.5387 93.4019 25.2605 92.7127C24.5816 91.0328 23.1767 89.7739 21.587 89.4302C19.6492 89.0134 17.3936 90.0102 16.1003 91.8577C15.8811 92.1712 15.6811 92.5078 15.5017 92.8625C15.1578 93.5426 13.1486 93.8489 12.4956 93.456C11.0262 92.5709 9.0326 92.5408 7.42142 93.3829C5.92194 94.1649 4.7447 95.6859 4.27638 97.4474C3.93684 98.7289 1.60148 100.123 0.276845 100.176C0.097676 100.183 -0.0856817 100.203 -0.273604 100.236C-1.58833 100.468 -2.67534 101.28 -3.25537 102.457C-3.8311 103.626 -3.80962 104.975 -3.19522 106.148C-2.15977 108.133 -0.0415936 109.37 3.2796 109.937C5.57822 110.328 7.94129 110.35 10.227 110.376C10.6524 110.38 11.0734 110.384 11.4988 110.388C11.8339 110.393 12.1304 110.401 12.4053 110.41C14.2786 110.47 16.1562 110.504 17.9822 110.526C18.7642 110.535 19.5461 110.539 20.3281 110.539C23.1638 110.539 25.9737 110.487 28.7062 110.393C29.3808 110.367 30.0682 110.333 30.7342 110.298C31.7138 110.247 32.7278 110.195 33.7245 110.178C35.4002 110.148 36.904 110.075 38.2659 109.465C39.4432 108.936 41.0243 108.03 41.1317 106.264C41.1962 105.134 40.6849 103.944 39.731 102.986Z" fill="#93A1ED"/>
<path d="M87.2629 296.186C87.0149 295.937 86.7601 295.698 86.4992 295.47C83.673 293.003 78.3925 284.535 76.3885 281.363C74.2187 277.93 69.673 276.113 65.5871 277.037C65.0508 277.158 64.5282 277.318 64.0226 277.513C62.5894 278.065 57.6698 276.189 57.0972 274.764C55.6837 271.258 52.7491 268.637 49.4366 267.924C45.3978 267.056 40.6975 269.135 37.9993 272.985C37.5403 273.64 37.1221 274.344 36.7473 275.085C36.0272 276.51 31.8489 277.146 30.4804 276.324C27.4127 274.476 23.258 274.42 19.8982 276.173C16.7703 277.806 14.317 280.972 13.3417 284.646C12.6306 287.319 7.76795 290.219 5.00428 290.329C4.63023 290.344 4.24741 290.385 3.85505 290.455C1.10959 290.94 -1.15466 292.629 -2.36198 295.082C-3.565 297.522 -3.51774 300.328 -2.24168 302.781C-0.0848372 306.919 4.33196 309.501 11.2579 310.678C16.0485 311.49 20.9766 311.542 25.7457 311.589C26.6308 311.598 27.5158 311.606 28.3966 311.619C29.097 311.628 29.7113 311.645 30.2828 311.662C34.1883 311.782 38.1024 311.864 41.9091 311.898C43.5418 311.916 45.1744 311.92 46.7985 311.92C52.7148 311.92 58.5709 311.817 64.2681 311.611C65.6773 311.559 67.1123 311.486 68.4958 311.413C70.5409 311.306 72.6548 311.198 74.73 311.159C78.2274 311.099 81.3552 310.945 84.1995 309.669C86.6571 308.564 89.9525 306.674 90.1716 302.996C90.3134 300.667 89.2522 298.188 87.2629 296.186Z" fill="#93A1ED"/>
<path d="M74.3259 23.3888C74.1046 23.1665 73.8772 22.9537 73.6444 22.7506C71.1247 20.5517 66.4247 13.008 64.6373 10.1814C62.7039 7.12231 58.6523 5.50253 55.0132 6.32746C54.5361 6.43575 54.0712 6.57784 53.6214 6.75092C52.3451 7.24198 47.9575 5.56815 47.4471 4.29951C46.1882 1.17596 43.5716 -1.16133 40.6199 -1.79292C37.0238 -2.56629 32.8304 -0.714497 30.4287 2.7184C30.0198 3.30155 29.6471 3.92817 29.3132 4.58867C28.6707 5.85931 24.9511 6.42454 23.7304 5.69158C20.9978 4.04602 17.2943 3.99446 14.2996 5.55838C11.5112 7.01489 9.32857 9.83769 8.45638 13.1073C7.8264 15.4853 3.48756 18.0737 1.02958 18.1724C0.696139 18.1858 0.354905 18.2224 0.00517893 18.2846C-2.43953 18.7185 -4.45888 20.2223 -5.533 22.4092C-6.60283 24.5833 -6.56416 27.0838 -5.42559 29.2664C-3.50076 32.9528 0.430533 35.2557 6.6003 36.3041C10.8667 37.0302 15.262 37.0732 19.507 37.1161C20.2932 37.1247 21.0838 37.1333 21.87 37.1419C22.493 37.1505 23.043 37.1634 23.55 37.1806C27.0301 37.288 30.5146 37.361 33.9088 37.3911C35.3653 37.404 36.8175 37.4126 38.2655 37.4126C43.533 37.4126 48.7532 37.3224 53.8316 37.1376C55.0862 37.0903 56.3666 37.0259 57.5997 36.9615C59.4214 36.8669 61.3033 36.7681 63.155 36.738C66.27 36.6822 69.0584 36.5447 71.5934 35.4104C73.7846 34.4265 76.7191 32.7423 76.9167 29.4641C77.0456 27.3803 76.1004 25.1676 74.3259 23.3888Z" fill="#93A1ED"/>
<path d="M312.335 173.638C311.64 172.94 310.927 172.272 310.196 171.635C302.297 164.742 287.537 141.071 281.933 132.211C275.862 122.617 263.166 117.53 251.741 120.125C250.245 120.464 248.786 120.91 247.375 121.454C243.366 122.998 229.614 117.751 228.007 113.766C224.059 103.966 215.857 96.6403 206.594 94.651C195.307 92.2235 182.164 98.041 174.632 108.795C173.35 110.625 172.181 112.591 171.133 114.664C169.125 118.635 157.439 120.417 153.627 118.123C145.051 112.963 133.442 112.799 124.049 117.706C115.302 122.273 108.453 131.124 105.725 141.38C103.743 148.84 90.1397 156.956 82.4264 157.262C81.38 157.303 80.309 157.417 79.2112 157.612C71.542 158.97 65.209 163.687 61.8319 170.549C58.4764 177.371 58.601 185.212 62.1756 192.061C68.2079 203.627 80.5475 210.845 99.8989 214.132C113.282 216.405 127.061 216.542 140.389 216.676C142.859 216.701 145.334 216.727 147.8 216.762C149.755 216.792 151.478 216.83 153.072 216.878C163.994 217.217 174.924 217.44 185.562 217.544C190.13 217.587 194.688 217.608 199.234 217.608C215.762 217.608 232.136 217.32 248.063 216.744C252.003 216.603 256.008 216.396 259.883 216.194C265.597 215.898 271.505 215.593 277.31 215.49C287.084 215.322 295.828 214.888 303.776 211.322C310.646 208.237 319.854 202.948 320.468 192.667C320.863 186.162 317.899 179.223 312.335 173.638Z" fill="#74C7E5"/>
<path d="M169.236 157.608C168.407 157.702 167.814 158.454 167.908 159.279C168.205 161.861 166.89 164.65 164.703 166.059C162.52 167.468 159.436 167.52 157.206 166.184C154.976 164.847 153.567 162.106 153.781 159.515C153.85 158.686 153.231 157.956 152.402 157.887C151.564 157.814 150.843 158.437 150.774 159.266C150.74 159.679 150.733 160.092 150.753 160.504C150.87 162.906 150.951 165.644 148.909 166.914C148.673 167.06 148.6 167.369 148.746 167.606C148.84 167.76 149.004 167.842 149.176 167.842C149.266 167.842 149.36 167.816 149.442 167.765C149.703 167.602 149.957 167.427 150.203 167.24C151.276 166.423 152.966 166.519 153.94 167.451C154.605 168.087 154.92 169.098 154.304 169.782C153.959 170.164 153.558 170.493 153.111 170.746C152.871 170.884 152.785 171.189 152.922 171.434C153.012 171.597 153.184 171.687 153.36 171.687C153.446 171.687 153.528 171.666 153.61 171.623C155.337 170.647 157.524 169.832 159.491 170.09C159.943 170.15 160.398 170.179 160.853 170.179C162.783 170.179 164.716 169.651 166.344 168.598C169.507 166.557 171.341 162.678 170.912 158.935C170.817 158.106 170.065 157.513 169.236 157.608Z" fill="#231F20"/>
<path d="M233.128 166.914C231.087 165.644 231.168 162.906 231.284 160.504C231.304 160.094 231.298 159.682 231.264 159.271C231.195 158.441 230.477 157.827 229.635 157.887C228.806 157.956 228.187 158.682 228.256 159.515C228.467 162.106 227.057 164.847 224.832 166.184C222.602 167.52 219.521 167.468 217.334 166.059C215.152 164.65 213.833 161.861 214.129 159.279C214.224 158.45 213.631 157.702 212.802 157.608C211.977 157.513 211.225 158.106 211.13 158.935C210.701 162.673 212.535 166.557 215.698 168.598C217.33 169.651 219.259 170.179 221.188 170.179C221.644 170.179 222.099 170.15 222.55 170.09C224.519 169.831 226.704 170.646 228.432 171.623C228.51 171.666 228.596 171.687 228.682 171.687C228.858 171.687 229.03 171.597 229.12 171.434C229.257 171.193 229.171 170.884 228.931 170.746C228.483 170.494 228.08 170.164 227.734 169.781C227.12 169.098 227.435 168.091 228.1 167.456C229.074 166.525 230.768 166.427 231.842 167.241C232.088 167.428 232.342 167.602 232.604 167.765C232.686 167.816 232.78 167.842 232.871 167.842C233.038 167.842 233.201 167.756 233.3 167.606C233.433 167.374 233.365 167.064 233.128 166.914Z" fill="#231F20"/>
<path d="M178.972 193.345C177.382 191.562 174.581 190.961 172.317 191.923C169.979 192.911 168.514 195.429 168.909 197.779C169.343 200.362 171.857 201.762 174.16 202.003C174.426 202.029 174.684 202.046 174.942 202.046C176.772 202.046 178.366 201.35 179.307 200.108C180.772 198.175 180.626 195.206 178.972 193.345Z" fill="#91D9F2"/>
<path d="M158.494 177.036C155.977 175.537 152.398 175.425 149.562 175.464C146.374 175.507 142.804 175.941 139.873 177.264C137.665 178.261 136.406 180.443 137.493 182.798C138.709 185.436 142.09 186.252 144.703 186.574C148.965 187.099 158.069 187.382 160.342 182.738C161.39 180.585 160.514 178.239 158.494 177.036Z" fill="#57B6DC"/>
<path d="M247.363 177.036C244.846 175.537 241.267 175.425 238.431 175.464C235.243 175.507 231.672 175.941 228.742 177.264C226.534 178.261 225.275 180.443 226.362 182.798C227.578 185.436 230.959 186.252 233.572 186.574C237.834 187.099 246.938 187.382 249.211 182.738C250.255 180.585 249.383 178.239 247.363 177.036Z" fill="#57B6DC"/>
<path d="M71.7137 163.924C66.1755 166.239 62.5579 172.474 63.2969 178.429C64.0358 184.383 69.067 189.548 75.0005 190.437C75.138 190.459 75.2755 190.467 75.4173 190.467C76.7749 190.467 77.9479 189.453 78.1498 188.113C78.2615 187.382 78.0768 186.652 77.6385 186.055C77.2003 185.462 76.5558 185.071 75.8254 184.964C72.2593 184.426 69.2346 181.324 68.7878 177.745C68.3452 174.166 70.5193 170.416 73.8447 169.028C77.1745 167.636 81.3679 168.723 83.6021 171.554C84.0618 172.134 84.7192 172.499 85.4496 172.585C86.1843 172.671 86.9061 172.465 87.4861 172.01C88.0661 171.55 88.4313 170.893 88.5216 170.162C88.6118 169.432 88.4013 168.706 87.9458 168.126C84.2294 163.412 77.2476 161.608 71.7137 163.924Z" fill="#57B6DC"/>
<path d="M129.613 118.755C122.185 120.039 115.388 125.457 111.869 132.894C108.844 139.292 108.122 147.193 109.837 155.137C110.112 156.401 111.246 157.32 112.539 157.32C112.737 157.32 112.934 157.298 113.123 157.256C113.845 157.101 114.464 156.671 114.863 156.048C115.263 155.425 115.401 154.686 115.242 153.964C113.781 147.202 114.356 140.559 116.866 135.253C119.624 129.419 124.87 125.182 130.546 124.198C136.458 123.18 142.834 126.089 145.381 130.97C145.725 131.627 146.301 132.108 147.006 132.332C147.71 132.555 148.462 132.486 149.115 132.147C150.468 131.442 150.997 129.767 150.288 128.413C146.627 121.384 137.927 117.32 129.613 118.755Z" fill="#57B6DC"/>
<path d="M214.826 108.92C212.587 101.856 204.884 96.7393 196.909 97.0315C189.958 97.2807 183.057 101.221 178.443 107.571C174.761 112.641 172.436 119.201 171.538 127.073C171.367 128.589 172.458 129.964 173.979 130.136C174.086 130.149 174.189 130.153 174.292 130.153C175.697 130.153 176.879 129.101 177.038 127.7C177.829 120.791 179.809 115.111 182.924 110.819C186.542 105.835 191.844 102.746 197.107 102.561C202.688 102.359 208.037 105.814 209.55 110.587C209.773 111.292 210.258 111.872 210.916 112.211C211.573 112.55 212.321 112.615 213.021 112.391C214.478 111.932 215.285 110.376 214.826 108.92Z" fill="#57B6DC"/>
<path d="M281.936 132.211C286.226 138.993 286.889 147.689 284.272 155.065C283.301 157.803 285.882 162.081 288.778 162.31C289.574 162.373 290.381 162.158 290.999 161.653C305.903 149.484 315.773 131.007 317.627 111.485C319.724 89.4395 313.236 66.4661 300.691 51.5315C287.904 36.309 270.443 27.1403 248.793 24.2788C236.187 22.6118 221.24 24.6011 210.709 29.3358C200.153 34.0834 190.644 42.7752 183.942 53.8086C178.069 63.4757 174.094 75.0892 172.135 88.3181C172.101 88.5458 172.225 88.7649 172.436 88.8551C172.646 88.9454 172.891 88.8766 173.033 88.6962C177.587 82.7069 185.502 78.2729 195.323 76.202C204.917 74.1826 214.632 74.9259 222.683 78.2986C231.534 82.0022 238.658 89.1473 241.747 97.4095C245.081 106.333 243.65 116.615 238.099 123.601C237.996 123.734 237.962 123.91 238.013 124.069C238.065 124.228 238.194 124.353 238.357 124.4C239.845 124.819 241.422 124.455 242.756 123.675C245.518 122.06 248.542 120.843 251.745 120.116C263.165 117.534 275.865 122.617 281.936 132.211Z" fill="#F5C371"/>
<path d="M252.355 69.9719C252.003 68.2232 251.273 66.6077 250.62 65.2329C250.259 64.481 249.361 64.1587 248.609 64.5196C247.857 64.8805 247.539 65.7785 247.896 66.5304C248.476 67.742 249.116 69.1556 249.399 70.5648C249.593 71.5358 249.704 72.958 249.116 74.2254C248.377 75.8194 246.547 76.9279 244.562 76.9838C242.701 77.0396 240.678 76.2104 239.032 74.7152C238.413 74.1524 237.459 74.1996 236.901 74.814C236.338 75.4327 236.385 76.3866 237 76.9451C239.144 78.8957 241.825 79.9999 244.394 79.9999C244.476 79.9999 244.562 79.9999 244.643 79.9956C247.745 79.9097 250.641 78.0966 251.853 75.4886C252.587 73.9075 252.759 71.9998 252.355 69.9719Z" fill="#231F20"/>
<path d="M202.339 52.9577C197.871 51.4367 192.677 56.0899 193.368 60.6914C193.643 62.5045 194.653 64.3434 196.037 65.5464C198.64 67.8064 202.937 66.4272 205.081 64.193C208.281 60.8547 206.7 54.4443 202.339 52.9577Z" fill="#FFEAA3"/>
<path d="M232.655 62.4448C231.053 58.6982 227.177 57.4093 223.65 59.1279C221.652 60.1032 219.744 61.9034 219.512 64.2192C219.113 68.2236 222.262 72.9927 226.726 71.5534C230.254 70.4105 234.352 66.4062 232.655 62.4448Z" fill="#FFEAA3"/>
<path d="M249.493 33.1469C248.832 32.6915 248.11 32.322 247.362 32.0599C244.179 30.9428 240.707 31.583 238.516 34.2168C234.215 39.3897 237.815 48.1202 245.051 46.5219C248.041 45.8603 251.624 44.03 252.612 40.8935C253.588 37.8043 251.972 34.8612 249.493 33.1469Z" fill="#FFEAA3"/>
<path d="M298.903 57.3103C298.315 55.6089 296.854 54.3114 295.187 53.7099C291.243 52.2834 287.243 54.8828 286.19 58.7969C285.533 61.2416 286.289 64.1804 288.708 65.4006C291.595 66.8571 295.011 65.2674 297.095 63.1278C298.654 61.5338 299.681 59.5617 298.903 57.3103Z" fill="#FFEAA3"/>
<path d="M302.817 81.2119C297.253 81.0186 292.084 85.1819 292.531 91.0036C292.54 91.1137 292.56 91.2227 292.564 91.333C292.585 91.9848 292.735 92.6506 293.06 93.3237C294.142 95.5751 296.346 97.3324 298.636 98.2303C303.736 100.241 309.442 98.3378 310.297 92.5547C311.092 87.1797 308.965 81.4224 302.817 81.2119Z" fill="#FFEAA3"/>
<path d="M270.134 102.264C267.113 101.882 264.183 104.567 262.89 107.08C261.618 109.551 262.391 112.576 264.505 114.32C267.796 117.04 272.836 115.467 274.752 112.202C277.261 108.941 274.92 102.865 270.134 102.264Z" fill="#FFEAA3"/>
<path d="M302.792 123.481C300.489 119.82 296.24 119.837 292.992 122.368C290.538 124.28 288.944 127.64 290.13 130.686C291.243 133.552 294.298 135.103 297.254 135.172C303.746 135.322 305.808 128.276 302.792 123.481Z" fill="#FFEAA3"/>
<path d="M271.509 66.7965C266.143 67.0113 262.508 71.8105 259.788 75.9867C259.088 76.8846 258.576 77.9072 258.469 79.0973C258.284 81.1253 259.367 83.0114 261.266 83.7762C265.528 85.4948 270.796 80.5023 272.987 77.3658C274.873 74.6633 277.219 66.5687 271.509 66.7965Z" fill="#FFEAA3"/>
<path d="M229.09 31.4195C228.626 29.7224 226.486 29.3271 225.253 29.2455C206.546 27.9952 189.618 45.7354 181.811 62.7496C180.535 65.5337 179.624 68.3307 179.113 71.0719L179.083 71.2265C178.769 72.885 178.417 74.7669 178.288 76.4382C178.237 77.0999 178.374 77.7357 178.675 78.2298C178.795 78.4275 178.941 78.6036 179.109 78.7454C179.448 79.0376 179.822 79.1837 180.23 79.1837C180.342 79.1837 180.454 79.1708 180.57 79.1493C182.026 78.87 183.427 76.8593 183.964 75.8367C185.029 73.8044 185.785 71.6003 186.516 69.4736C186.799 68.6487 187.083 67.8237 187.384 67.0074C190.632 58.191 195.594 51.0029 202.134 45.6452C208.054 40.7945 215.375 38.0146 222.405 35.7332C222.637 35.6559 222.972 35.5699 223.367 35.4668C225.128 35.0028 228.076 34.2208 228.922 32.76C229.159 32.339 229.219 31.8878 229.09 31.4195Z" fill="#FFF4D1"/>
<path d="M234.486 27.3249C233.734 26.8866 232.845 26.9167 232.05 27.2175C231.612 27.385 231.242 27.6084 230.997 28.0295C230.039 29.6708 232.398 31.9049 234.026 31.5054C234.821 31.312 235.47 30.6933 235.663 29.8942C235.917 28.863 235.371 27.8405 234.486 27.3249Z" fill="#FFF4D1"/>
<path d="M317.808 109.285C317.816 109.159 317.824 109.033 317.832 108.907C317.871 108.297 317.221 108.065 317.013 108.64C313.46 118.282 307.995 127.24 300.991 134.763C297.975 138.003 294.71 140.959 291.298 143.747C291.844 143.3 289.674 138.106 289.369 137.367C288.463 135.171 287.324 133.07 285.984 131.102C283.35 127.24 279.939 123.902 275.999 121.384C267.754 116.112 258.207 115.175 249 118.243C246.967 118.92 245.089 119.79 243.35 121.009C242.644 121.504 241.841 121.851 240.987 121.966C240.909 121.977 240.831 121.988 240.753 121.998C239.69 122.147 238.763 122.768 238.095 123.609C237.992 123.743 237.958 123.919 238.009 124.078C238.061 124.237 238.19 124.361 238.353 124.408C239.841 124.827 241.418 124.464 242.752 123.683C245.514 122.068 248.538 120.852 251.741 120.125C263.165 117.534 275.861 122.617 281.932 132.211C286.924 140.103 287.002 150.59 282.715 158.572C282.714 158.574 282.714 158.574 282.714 158.575C282.713 158.578 282.709 158.58 282.708 158.583C282.549 158.873 282.387 159.16 282.22 159.446C282.207 159.464 282.199 159.485 282.186 159.502C282.027 159.769 281.863 160.026 281.696 160.284C281.67 160.323 281.649 160.362 281.623 160.396C281.468 160.632 281.305 160.869 281.137 161.101C281.099 161.152 281.064 161.208 281.026 161.26C280.867 161.483 280.699 161.698 280.531 161.913C280.484 161.973 280.441 162.033 280.398 162.089C280.194 162.346 280.428 162.742 280.751 162.684C283.394 162.212 286.091 162.093 288.787 162.307C289.577 162.37 290.37 162.156 290.983 161.655C305.891 149.486 315.764 131.006 317.619 111.48C317.686 110.77 317.746 110.06 317.793 109.349C317.794 109.328 317.808 109.306 317.808 109.285Z" fill="#EBCE72"/>
<path d="M90.0462 96.0301C89.7541 95.5145 89.0967 95.3341 88.5811 95.6262C84.7379 97.8078 80.4357 93.5999 82.5317 89.7093L84.3877 86.2642C84.5983 85.8689 84.5467 85.3877 84.2502 85.0483C83.9581 84.7131 83.4855 84.5928 83.0644 84.7475C77.0235 87.0075 71.2147 89.9291 65.8054 93.435C65.307 93.7573 65.1652 94.4232 65.4874 94.9216C65.8097 95.42 66.4756 95.5618 66.974 95.2396C71.4699 92.3302 76.0653 97.1804 73.5249 101.895L71.6099 105.448C71.3822 105.869 71.4639 106.389 71.8033 106.724C72.0095 106.926 72.2802 107.029 72.5552 107.029C72.7356 107.029 72.9204 106.982 73.0837 106.887L89.6381 97.4866C90.1579 97.1988 90.3384 96.5457 90.0462 96.0301Z" fill="#F7E9BC"/>
<path d="M102.193 125.083C101.961 124.537 101.329 124.284 100.783 124.516C97.8153 125.779 95.1993 122.408 96.5482 119.478C97.2706 117.909 97.9296 116.31 98.5234 114.685C98.6609 114.307 98.575 113.882 98.3043 113.585C98.0293 113.289 97.6126 113.173 97.2259 113.28C92.2377 114.681 87.4686 116.76 83.0475 119.463C82.5405 119.772 82.3815 120.434 82.6908 120.941C83.0002 121.448 83.6619 121.607 84.1688 121.298C88.4716 118.665 92.5626 123.031 89.7459 127.216C89.4439 127.664 89.1359 128.109 88.822 128.55C88.5642 128.911 88.5556 129.396 88.8005 129.766C89.0024 130.071 89.3418 130.247 89.6984 130.247C89.7758 130.247 89.8531 130.239 89.9261 130.221C93.9262 129.349 97.8618 128.09 101.63 126.488C102.171 126.26 102.425 125.628 102.193 125.083Z" fill="#F7E9BC"/>
<path d="M78.549 70.9166C78.2827 70.3881 77.6339 70.1733 77.1054 70.4397C69.974 74.0389 62.9793 66.8687 67.5795 60.338C68.3497 59.2445 69.1349 58.1618 69.9346 57.0905C70.2095 56.721 70.2181 56.214 69.9561 55.8359C69.694 55.4578 69.2171 55.286 68.7745 55.4148C61.3845 57.5588 54.4586 60.9058 48.19 65.3698C47.7088 65.7135 47.5928 66.3838 47.9365 66.8693C48.2802 67.3505 48.9505 67.4665 49.436 67.1228C54.2653 63.6819 59.0647 69.3699 56.2662 74.5977C54.7183 77.4893 53.2664 80.431 51.9151 83.4151C51.726 83.8319 51.8205 84.3174 52.1514 84.6353C52.3576 84.833 52.624 84.9361 52.8947 84.9361C53.0579 84.9361 53.2255 84.8974 53.3802 84.8201L78.0764 72.3559C78.6006 72.0938 78.8154 71.4451 78.549 70.9166Z" fill="#F7E9BC"/>
<path d="M114.292 94.445C112.423 94.445 112.419 97.3494 114.292 97.3494C116.161 97.3494 116.165 94.445 114.292 94.445Z" fill="#ADB9D1"/>
<path d="M120.737 58.204C119.5 58.204 119.5 60.1245 120.737 60.1245C121.975 60.1245 121.975 58.204 120.737 58.204Z" fill="#ADB9D1"/>
<path d="M164.557 27.8108C161.528 27.8108 161.524 32.5198 164.557 32.5198C167.586 32.5198 167.595 27.8108 164.557 27.8108Z" fill="#ADB9D1"/>
<path d="M120.093 31.1146C119.655 31.1146 119.655 31.7935 120.093 31.7935C120.531 31.7935 120.531 31.1146 120.093 31.1146Z" fill="#ADB9D1"/>
<path d="M16.9809 72.9189C16.4352 72.9189 16.4352 73.7654 16.9809 73.7654C17.5266 73.7654 17.5266 72.9189 16.9809 72.9189Z" fill="#ADB9D1"/>
<path d="M45.9825 88.7648H45.338C44.6377 88.7648 43.9718 89.3792 44.0018 90.101C44.0362 90.8228 44.5905 91.4372 45.338 91.4372H45.9825C46.6829 91.4372 47.3488 90.8228 47.3187 90.101C47.2844 89.3749 46.7301 88.7648 45.9825 88.7648Z" fill="#ADB9D1"/>
<path d="M15.692 147.936C12.9981 147.936 12.9938 152.125 15.692 152.125C18.3859 152.125 18.3902 147.936 15.692 147.936Z" fill="#ADB9D1"/>
<path d="M46.6266 166.205C44.2163 166.205 44.212 169.951 46.6266 169.951C49.0369 169.947 49.0412 166.205 46.6266 166.205Z" fill="#ADB9D1"/>
<path d="M49.2043 183.15C48.7016 183.15 48.6973 183.932 49.2043 183.932C49.707 183.932 49.707 183.15 49.2043 183.15Z" fill="#ADB9D1"/>
<path d="M14.3556 234.588C13.4705 234.588 13.4705 235.963 14.3556 235.963C15.2407 235.963 15.2407 234.588 14.3556 234.588Z" fill="#ADB9D1"/>
<path d="M49.1579 245.2C46.4511 245.2 46.4468 249.406 49.1579 249.406C51.8647 249.411 51.869 245.2 49.1579 245.2Z" fill="#ADB9D1"/>
<path d="M93.411 249.621C91.9673 249.621 91.9673 251.864 93.411 251.864C94.8546 251.864 94.8546 249.621 93.411 249.621Z" fill="#ADB9D1"/>
<path d="M133.339 260.629C133.317 260.191 133.176 259.74 132.845 259.435C132.729 259.349 132.617 259.258 132.501 259.172C132.239 259.018 131.955 258.945 131.65 258.94C131.178 258.88 130.649 259.155 130.327 259.486C129.988 259.834 129.799 260.311 129.799 260.801C129.794 261.78 130.606 262.73 131.638 262.67C132.084 262.644 132.505 262.498 132.832 262.176C133.124 261.884 133.343 261.402 133.326 260.981C133.326 260.951 133.317 260.921 133.317 260.895C133.33 260.801 133.343 260.715 133.339 260.629Z" fill="#ADB9D1"/>
<path d="M18.6527 264.53C16.4916 264.53 16.4873 267.89 18.6527 267.89C20.8139 267.89 20.8182 264.53 18.6527 264.53Z" fill="#ADB9D1"/>
<path d="M266.989 267.963C266.074 268.006 265.305 268.702 265.305 269.647V270.077C265.305 270.957 266.079 271.804 266.989 271.761C267.905 271.718 268.674 271.022 268.674 270.077V269.647C268.674 268.766 267.9 267.92 266.989 267.963Z" fill="#ADB9D1"/>
<path d="M292.769 272.47H292.339C292.103 272.47 292.103 272.84 292.339 272.84H292.769C293.005 272.84 293.005 272.47 292.769 272.47Z" fill="#ADB9D1"/>
<path d="M398.892 285.763C395.854 285.763 395.85 290.481 398.892 290.481C401.929 290.481 401.934 285.763 398.892 285.763Z" fill="#ADB9D1"/>
<path d="M397.603 252.47C395.404 252.47 395.399 255.89 397.603 255.89C399.803 255.89 399.807 252.47 397.603 252.47Z" fill="#ADB9D1"/>
<path d="M311.244 261.329C309.938 261.329 309.933 263.361 311.244 263.361C312.55 263.357 312.554 261.329 311.244 261.329Z" fill="#ADB9D1"/>
<path d="M302.836 242.395C302.694 242.253 302.548 242.107 302.406 241.965C302.028 241.587 301.465 241.355 300.932 241.355C300.421 241.355 299.811 241.583 299.458 241.965C299.093 242.361 298.823 242.885 298.848 243.439C298.874 243.993 299.059 244.513 299.458 244.913L299.888 245.342C300.266 245.72 300.829 245.952 301.362 245.952C301.873 245.952 302.483 245.725 302.836 245.342C303.201 244.947 303.471 244.423 303.446 243.869C303.42 243.314 303.235 242.795 302.836 242.395Z" fill="#ADB9D1"/>
<path d="M378.269 238.21C377.07 238.21 377.07 240.071 378.269 240.071C379.467 240.075 379.467 238.21 378.269 238.21Z" fill="#ADB9D1"/>
<path d="M349.483 210.892C348.516 210.892 348.516 212.396 349.483 212.396C350.449 212.396 350.449 210.892 349.483 210.892Z" fill="#ADB9D1"/>
<path d="M326.711 185.75H326.281C326.135 185.75 326.135 185.977 326.281 185.977H326.711C326.857 185.982 326.857 185.75 326.711 185.75Z" fill="#ADB9D1"/>
<path d="M332.829 158.694C332.442 158.342 331.97 158.119 331.437 158.119H331.007C330.505 158.119 329.972 158.338 329.615 158.694C329.276 159.034 329.018 159.597 329.039 160.087C329.061 160.593 329.229 161.122 329.615 161.479C330.002 161.831 330.474 162.054 331.007 162.054H331.437C331.94 162.054 332.472 161.835 332.829 161.479C333.168 161.139 333.426 160.576 333.405 160.087C333.379 159.58 333.211 159.051 332.829 158.694Z" fill="#ADB9D1"/>
<path d="M338.565 127.003V127.433C338.565 127.661 338.922 127.661 338.922 127.433V127.003C338.917 126.776 338.565 126.776 338.565 127.003Z" fill="#ADB9D1"/>
<path d="M370.536 189.552H370.269C368.379 189.552 368.375 192.491 370.269 192.491H370.536C372.426 192.491 372.43 189.552 370.536 189.552Z" fill="#ADB9D1"/>
<path d="M354.638 148.31C351.648 148.31 351.639 152.959 354.638 152.959C357.629 152.959 357.637 148.31 354.638 148.31Z" fill="#ADB9D1"/>
<path d="M391.588 128.602C390.325 128.602 390.325 130.566 391.588 130.566C392.851 130.561 392.851 128.602 391.588 128.602Z" fill="#ADB9D1"/>
<path d="M329.288 99.5411H328.859C328.317 99.5411 327.75 99.7774 327.364 100.16C326.998 100.525 326.723 101.126 326.745 101.655C326.796 102.798 327.673 103.769 328.859 103.769H329.288C329.83 103.769 330.397 103.532 330.783 103.15C331.149 102.785 331.424 102.183 331.402 101.655C331.351 100.512 330.474 99.5411 329.288 99.5411Z" fill="#ADB9D1"/>
<path d="M376.55 73.3021H375.691C374.797 73.3021 373.938 74.0883 373.977 75.0164C374.02 75.9444 374.728 76.7307 375.691 76.7307H376.55C377.444 76.7307 378.303 75.9444 378.265 75.0164C378.222 74.0883 377.508 73.3021 376.55 73.3021Z" fill="#ADB9D1"/>
<path d="M402.33 81.04C399.58 81.04 399.576 85.315 402.33 85.315C405.079 85.3193 405.084 81.04 402.33 81.04Z" fill="#ADB9D1"/>
<path d="M403.188 60.7048C402.462 60.7048 402.462 61.8304 403.188 61.8304C403.914 61.8304 403.914 60.7048 403.188 60.7048Z" fill="#ADB9D1"/>
<path d="M388.473 6.80917C388.078 6.41389 387.429 6.11743 386.862 6.13891C386.273 6.16469 385.659 6.35804 385.251 6.80917C384.843 7.256 384.58 7.80596 384.58 8.42036V8.85001C384.58 9.43433 384.834 10.0487 385.251 10.4612C385.646 10.8565 386.295 11.1529 386.862 11.1314C387.45 11.1057 388.065 10.9123 388.473 10.4612C388.881 10.0144 389.143 9.4644 389.143 8.85001V8.42036C389.143 7.83603 388.89 7.22163 388.473 6.80917Z" fill="#ADB9D1"/>
<path d="M360.06 0.325684H359.794C356.567 0.325684 356.559 5.34399 359.794 5.34399H360.06C363.287 5.34399 363.296 0.325684 360.06 0.325684Z" fill="#ADB9D1"/>
<path d="M297.925 20.1753C294.81 20.1753 294.801 25.0174 297.925 25.0174C301.04 25.0217 301.048 20.1753 297.925 20.1753Z" fill="#ADB9D1"/>
<path d="M246.796 3.63416C245.061 3.63416 245.056 6.33235 246.796 6.33235C248.532 6.33235 248.536 3.63416 246.796 3.63416Z" fill="#ADB9D1"/>
<path d="M176.334 1.28833C173.79 1.28833 173.786 5.24111 176.334 5.24111C178.877 5.24111 178.882 1.28833 176.334 1.28833Z" fill="#ADB9D1"/>
<path d="M151.414 93.1517C150.422 93.1517 150.422 94.6898 151.414 94.6898C152.407 94.6898 152.407 93.1517 151.414 93.1517Z" fill="#ADB9D1"/>
<path d="M85.935 53.3574C85.9222 53.3574 85.9222 53.3745 85.935 53.3745C85.9479 53.3745 85.9479 53.3574 85.935 53.3574Z" fill="#515763"/>
<path d="M135.568 5.02145L134.924 4.37698C134.58 4.03326 133.953 4.00748 133.613 4.37698C133.274 4.74648 133.248 5.32221 133.613 5.68741C133.828 5.90223 134.043 6.11706 134.258 6.33188C134.601 6.6756 135.229 6.70138 135.568 6.33188C135.907 5.96239 135.938 5.38666 135.568 5.02145Z" fill="#515763"/>
<path d="M5.38019 49.5587H4.73572C4.09124 49.5587 3.47684 50.1258 3.50692 50.7875C3.537 51.4534 4.04828 52.0163 4.73572 52.0163H5.38019C6.02467 52.0163 6.63907 51.4491 6.60899 50.7875C6.57891 50.1215 6.07193 49.5587 5.38019 49.5587Z" fill="#515763"/>
<path d="M32.448 123.811C30.2224 123.811 30.2181 127.274 32.448 127.274C34.6736 127.274 34.6779 123.811 32.448 123.811Z" fill="#515763"/>
<path d="M0.353126 210.707H0.17697C-2.13025 210.707 -2.13454 214.295 0.17697 214.295H0.353126C2.66464 214.299 2.66893 210.707 0.353126 210.707Z" fill="#515763"/>
<path d="M108.019 285.553H107.589C107.142 285.553 106.717 285.944 106.738 286.403C106.76 286.867 107.112 287.254 107.589 287.254H108.019C108.466 287.254 108.891 286.863 108.87 286.403C108.852 285.939 108.496 285.553 108.019 285.553Z" fill="#515763"/>
<path d="M338.739 279.469C338.663 279.469 338.663 279.583 338.739 279.583C338.815 279.587 338.815 279.469 338.739 279.469Z" fill="#515763"/>
<path d="M369.675 259.984C367.746 259.984 367.742 262.979 369.675 262.979C371.604 262.983 371.609 259.984 369.675 259.984Z" fill="#515763"/>
<path d="M405.336 185.315C403.519 185.315 403.519 188.138 405.336 188.138C407.154 188.134 407.154 185.315 405.336 185.315Z" fill="#515763"/>
<path d="M369.245 126.372C368.438 126.406 367.755 127.025 367.755 127.863V128.292C367.755 129.07 368.438 129.818 369.245 129.783C370.053 129.749 370.736 129.13 370.736 128.292V127.863C370.736 127.085 370.049 126.337 369.245 126.372Z" fill="#515763"/>
<path d="M327.999 57.3571C327.393 57.3571 327.393 58.298 327.999 58.298C328.605 58.3023 328.605 57.3571 327.999 57.3571Z" fill="#515763"/>
<path d="M407.054 16.9314C406.952 16.9314 406.952 17.0895 407.054 17.0895C407.157 17.0938 407.157 16.9314 407.054 16.9314Z" fill="#515763"/>
<path d="M260.974 16.5621C260.945 16.5621 260.945 16.6073 260.974 16.6073C261.003 16.6032 261.003 16.5621 260.974 16.5621Z" fill="#515763"/>
<path d="M230.04 13.7733C229.215 13.8119 228.519 14.4392 228.519 15.2942V15.7239C228.519 16.5187 229.219 17.2792 230.04 17.2448C230.865 17.2062 231.561 16.5789 231.561 15.7239V15.2942C231.561 14.4994 230.861 13.7389 230.04 13.7733Z" fill="#515763"/>
<path d="M154.894 58.8439C151.99 58.8439 151.986 63.3552 154.894 63.3552C157.794 63.3552 157.803 58.8439 154.894 58.8439Z" fill="#F2E3B5"/>
<path d="M90.8849 51.6385C90.4595 51.2131 89.7678 50.8952 89.1577 50.9252C88.5261 50.9553 87.873 51.1616 87.4305 51.6385C86.9923 52.1154 86.7173 52.704 86.7173 53.3657V54.0101C86.7173 54.6374 86.988 55.2948 87.4305 55.7373C87.8559 56.1627 88.5476 56.4806 89.1577 56.4505C89.7893 56.4205 90.4423 56.2142 90.8849 55.7373C91.3231 55.2604 91.5981 54.6718 91.5981 54.0101V53.3657C91.5981 52.7384 91.3274 52.081 90.8849 51.6385Z" fill="#F2E3B5"/>
<path d="M90.4466 18.1647C89.9353 18.1647 89.931 18.9638 90.4466 18.9638C90.9622 18.9638 90.9622 18.1647 90.4466 18.1647Z" fill="#F2E3B5"/>
<path d="M44.0489 45.8768H43.4044C42.8588 45.8768 42.3389 46.358 42.3647 46.9165C42.3905 47.4794 42.8244 47.9606 43.4044 47.9606H44.0489C44.5946 47.9606 45.1144 47.4794 45.0887 46.9165C45.0629 46.358 44.6332 45.8768 44.0489 45.8768Z" fill="#F2E3B5"/>
<path d="M0.869021 126.729C-0.922616 126.729 -0.926912 129.513 0.869021 129.513C2.66066 129.513 2.66495 126.729 0.869021 126.729Z" fill="#F2E3B5"/>
<path d="M62.0943 129.761H61.4499C60.9601 129.761 60.4874 130.191 60.5132 130.698C60.5347 131.205 60.9257 131.635 61.4499 131.635H62.0943C62.5841 131.635 63.0567 131.205 63.031 130.698C63.0095 130.191 62.6185 129.761 62.0943 129.761Z" fill="#F2E3B5"/>
<path d="M55.6492 204.722C53.879 204.722 53.8747 207.472 55.6492 207.472C57.4193 207.472 57.4236 204.722 55.6492 204.722Z" fill="#F2E3B5"/>
<path d="M31.8034 216.392C30.1235 216.392 30.1192 219.004 31.8034 219.004C33.4834 219.004 33.4877 216.392 31.8034 216.392Z" fill="#F2E3B5"/>
<path d="M3.05631 252.388C2.88875 251.876 2.57081 251.365 2.07671 251.112C1.71581 250.927 1.33772 250.781 0.925254 250.798C0.362414 250.824 -0.226207 251.021 -0.621484 251.442C-1.06402 251.915 -1.27455 252.474 -1.29603 253.11C-1.31751 253.698 -1.05113 254.377 -0.617186 254.777C0.147589 255.477 1.17015 255.597 2.08101 255.107C2.54503 254.858 2.92312 254.33 3.06061 253.831C3.17822 253.406 3.19078 252.945 3.09144 252.515C3.08155 252.472 3.06988 252.43 3.05631 252.388Z" fill="#F2E3B5"/>
<path d="M83.0998 220.886C81.7206 220.886 81.7206 223.026 83.0998 223.026C84.479 223.026 84.479 220.886 83.0998 220.886Z" fill="#F2E3B5"/>
<path d="M306.947 282.837C304.571 282.837 304.566 286.528 306.947 286.528C309.323 286.532 309.327 282.837 306.947 282.837Z" fill="#F2E3B5"/>
<path d="M338.926 283.211C338.784 283.069 338.638 282.923 338.496 282.781C338.118 282.403 337.559 282.171 337.022 282.171C336.511 282.171 335.901 282.399 335.549 282.781C335.183 283.177 334.913 283.701 334.939 284.255C334.964 284.805 335.149 285.329 335.549 285.729C335.69 285.871 335.837 286.017 335.978 286.159C336.356 286.537 336.915 286.769 337.452 286.769C337.963 286.769 338.573 286.541 338.926 286.159C339.291 285.763 339.562 285.239 339.536 284.685C339.51 284.135 339.321 283.611 338.926 283.211Z" fill="#F2E3B5"/>
<path d="M367.098 280.715C365.856 280.715 365.856 282.644 367.098 282.644C368.339 282.64 368.339 280.715 367.098 280.715Z" fill="#F2E3B5"/>
<path d="M346.045 239.636C345.615 239.653 345.25 239.984 345.25 240.431V240.861C345.25 241.277 345.615 241.673 346.045 241.655C346.474 241.638 346.84 241.307 346.84 240.861V240.431C346.84 240.014 346.474 239.619 346.045 239.636Z" fill="#F2E3B5"/>
<path d="M321.555 220.203C319.853 220.203 319.849 222.845 321.555 222.845C323.256 222.85 323.261 220.203 321.555 220.203Z" fill="#F2E3B5"/>
<path d="M410.492 226.274C408.859 226.274 408.859 228.809 410.492 228.809C412.125 228.809 412.125 226.274 410.492 226.274Z" fill="#F2E3B5"/>
<path d="M345.795 184.396C345.654 184.254 345.508 184.108 345.366 183.966C345.048 183.648 344.464 183.623 344.15 183.966C343.836 184.31 343.81 184.843 344.15 185.182L344.58 185.612C344.897 185.93 345.482 185.956 345.795 185.612C346.109 185.273 346.135 184.74 345.795 184.396Z" fill="#F2E3B5"/>
<path d="M379.987 164.181C379.175 164.181 379.171 165.444 379.987 165.444C380.799 165.444 380.803 164.181 379.987 164.181Z" fill="#F2E3B5"/>
<path d="M397.603 152.812C396.92 152.842 396.344 153.366 396.344 154.071V154.501C396.344 155.158 396.924 155.79 397.603 155.76C398.286 155.729 398.862 155.205 398.862 154.501V154.071C398.862 153.414 398.282 152.782 397.603 152.812Z" fill="#F2E3B5"/>
<path d="M345.615 84.1674C345.164 84.1889 344.777 84.5326 344.777 85.0053V85.2201C344.777 85.6583 345.159 86.0751 345.615 86.0579C346.066 86.0364 346.453 85.6927 346.453 85.2201V85.0053C346.453 84.567 346.066 84.1503 345.615 84.1674Z" fill="#F2E3B5"/>
<path d="M321.126 75.0118C320.563 75.0118 320.563 75.884 321.126 75.884C321.688 75.8797 321.688 75.0118 321.126 75.0118Z" fill="#F2E3B5"/>
<path d="M401.899 36.9958H401.469C400.911 36.9958 400.369 37.4899 400.399 38.0656C400.425 38.6456 400.872 39.1354 401.469 39.1354H401.899C402.457 39.1354 402.999 38.6413 402.969 38.0656C402.943 37.4856 402.5 36.9958 401.899 36.9958Z" fill="#F2E3B5"/>
<path d="M408.774 21.8338C406.131 21.8338 406.127 25.9412 408.774 25.9412C411.416 25.9412 411.42 21.8338 408.774 21.8338Z" fill="#F2E3B5"/>
<path d="M316.214 1.57155C316.103 1.46844 315.965 1.40399 315.811 1.40399H315.703C315.557 1.40399 315.402 1.46844 315.299 1.57155C315.2 1.67037 315.123 1.83364 315.132 1.97543C315.14 2.1258 315.188 2.27618 315.299 2.3793C315.411 2.48241 315.548 2.54686 315.703 2.54686H315.811C315.957 2.54686 316.111 2.48241 316.214 2.3793C316.313 2.28048 316.391 2.11721 316.382 1.97543C316.373 1.82505 316.326 1.67467 316.214 1.57155Z" fill="#F2E3B5"/>
<path d="M282.457 -2.93158C280.016 -2.93158 280.012 0.862225 282.457 0.862225C284.897 0.866521 284.901 -2.93158 282.457 -2.93158Z" fill="#F2E3B5"/>
<path d="M258.826 17.3092C256.442 17.3092 256.437 21.0128 258.826 21.0128C261.211 21.0128 261.215 17.3092 258.826 17.3092Z" fill="#F2E3B5"/>
<path d="M205.12 17.8248C204.505 17.8248 204.501 18.7829 205.12 18.7829C205.734 18.7786 205.738 17.8248 205.12 17.8248Z" fill="#F2E3B5"/>
<path d="M155.28 99.3508C155.083 99.3508 155.083 99.6543 155.28 99.6543C155.476 99.6586 155.476 99.3508 155.28 99.3508Z" fill="#F2E3B5"/>
</svg>
