<svg width="111" height="110" viewBox="0 0 111 110" fill="none" xmlns="http://www.w3.org/2000/svg">
<g opacity="0.3">
<path d="M55.5 55.0125V109.524C25.3979 109.524 0.976318 85.1147 0.976318 55.0125C0.976318 47.5955 2.45228 40.5258 5.14374 34.0886V55.0125H55.5Z" fill="#E6E7F2"/>
<path d="M110.024 55.0127C110.024 85.1148 85.6144 109.524 55.4999 109.524V55.0127H110.024Z" fill="#E6E7F2"/>
<path d="M110.024 55.0126H55.4999V0.488892C85.6144 0.488892 110.024 24.898 110.024 55.0126Z" fill="#E6E7F2"/>
<path d="M55.5003 0.488892V55.0126H5.14406V34.0887C13.3425 14.3555 32.8152 0.488892 55.5003 0.488892Z" fill="#E6E7F2"/>
</g>
<path d="M55.5004 55.0114V98.9614C31.2304 98.9614 11.5404 79.2814 11.5404 55.0114C11.5404 49.0314 12.7304 43.3314 14.9004 38.1414V55.0114H55.5004Z" fill="#E6E7F2"/>
<path d="M99.4604 55.0114C99.4604 79.2814 79.7804 98.9614 55.5004 98.9614V55.0114H99.4604Z" fill="#E6E7F2"/>
<path d="M99.4604 55.0114H55.5004V11.0514C79.7804 11.0514 99.4604 30.7314 99.4604 55.0114Z" fill="#E6E7F2"/>
<path d="M55.5004 11.0514V55.0114H14.9004V38.1414C21.5104 22.2314 37.2104 11.0514 55.5004 11.0514Z" fill="#E6E7F2"/>
<rect x="45.5106" y="42.5485" width="6.81957" height="24.9159" rx="3.40979" fill="#3F414E"/>
<rect x="58.6707" y="42.5485" width="6.81957" height="24.9159" rx="3.40979" fill="#3F414E"/>
</svg>
